<?xml version="1.0" encoding="UTF-8" standalone="no"?><!DOCTYPE svg PUBLIC "-//W3C//DTD SVG 1.1//EN" "http://www.w3.org/Graphics/SVG/1.1/DTD/svg11.dtd"><svg width="100%" height="100%" viewBox="0 0 1084 400" version="1.1" xmlns="http://www.w3.org/2000/svg" xmlns:xlink="http://www.w3.org/1999/xlink" xml:space="preserve" xmlns:serif="http://www.serif.com/" style="fill-rule:evenodd;clip-rule:evenodd;stroke-linejoin:round;stroke-miterlimit:2;"><rect id="Page-1" serif:id="Page 1" x="0" y="0" width="1084" height="400" style="fill:none;"/><g id="Layer-1" serif:id="Layer 1"><g><g><path d="M431.873,336.906l-8.665,5.662l0,-5.662l8.665,0Z" style="fill:#019ad9;fill-rule:nonzero;"/><path d="M165.457,336.906l2.798,5.662l-110.935,0l11.762,-5.662l96.375,0Z" style="fill:#019ad9;fill-rule:nonzero;"/><g><g><path d="M423.208,336.906l0,5.662c-9.147,0 -17.287,-5.745 -20.344,-14.37l5.337,-1.891c2.258,6.365 8.254,10.598 15.007,10.599" style="fill:#019ad9;fill-rule:nonzero;"/><g><clipPath id="_clip1"><path d="M423.209,336.906l0,5.663c-9.147,-0 -17.287,-5.746 -20.345,-14.37l5.336,-1.892c2.259,6.366 8.256,10.598 15.009,10.599Z" clip-rule="nonzero"/></clipPath><g clip-path="url(#_clip1)"><g><path d="M423.208,336.906l0,5.662c-9.147,0 -17.287,-5.745 -20.344,-14.37l5.337,-1.891c2.258,6.365 8.254,10.598 15.007,10.599" style="fill:#019ad9;fill-rule:nonzero;"/></g></g></g></g></g><g><g><path d="M428.708,337.872l-0.263,-0.965c-0.258,0.103 22.026,-12.949 44.439,-33.914l3.868,4.135c-22.867,21.389 -45.572,34.738 -46.767,35.44l-1.277,-4.696Z" style="fill:#019ad9;fill-rule:nonzero;"/></g></g><path d="M211.713,276.408l2.799,5.661l-46.257,60.499l-2.798,-5.662l46.256,-60.498Z" style="fill:#019ad9;fill-rule:nonzero;"/><path d="M351.435,276.408l-0,5.661l-136.924,0l-2.798,-5.661l139.722,-0Z" style="fill:#019ad9;fill-rule:nonzero;"/><g><g><path d="M354.247,272.512l5.379,-1.768c1.835,5.58 -2.317,11.326 -8.192,11.326l0,-5.662c1.992,0.017 3.454,-2.004 2.813,-3.896" style="fill:#019ad9;fill-rule:nonzero;"/><g><clipPath id="_clip2"><path d="M354.248,272.512l5.378,-1.768c1.835,5.579 -2.318,11.326 -8.191,11.326l-0,-5.663c1.991,0.018 3.452,-2.002 2.813,-3.895Z" clip-rule="nonzero"/></clipPath><g clip-path="url(#_clip2)"><g><path d="M354.247,272.512l5.379,-1.768c0.071,0.215 0.133,0.43 0.186,0.646l-5.5,1.342c-0.018,-0.074 -0.04,-0.147 -0.065,-0.22" style="fill:#019ad9;fill-rule:nonzero;"/><path d="M354.312,272.731l5.5,-1.341c0.079,0.32 0.139,0.641 0.181,0.959l-5.618,0.709c-0.014,-0.108 -0.035,-0.217 -0.063,-0.327" style="fill:#019ad9;fill-rule:nonzero;"/><path d="M354.375,273.058l5.618,-0.708c0.036,0.279 0.058,0.559 0.068,0.836l-5.663,0.158c-0.002,-0.095 -0.011,-0.19 -0.023,-0.286" style="fill:#019ad9;fill-rule:nonzero;"/><path d="M354.398,273.344l5.662,-0.158c0.008,0.257 0.005,0.512 -0.01,0.766l-5.655,-0.345c0.005,-0.088 0.006,-0.175 0.003,-0.263" style="fill:#019ad9;fill-rule:nonzero;"/><path d="M354.394,273.607l5.656,0.345c-0.015,0.243 -0.039,0.485 -0.074,0.723l-5.607,-0.819c0.012,-0.083 0.021,-0.165 0.025,-0.249" style="fill:#019ad9;fill-rule:nonzero;"/><path d="M354.369,273.855l5.608,0.821c-0.034,0.234 -0.078,0.466 -0.132,0.695l-5.523,-1.276c0.02,-0.079 0.034,-0.159 0.047,-0.24" style="fill:#019ad9;fill-rule:nonzero;"/><path d="M354.323,274.095l5.523,1.277c-0.054,0.228 -0.116,0.454 -0.186,0.677l-5.402,-1.72c0.025,-0.077 0.047,-0.155 0.065,-0.234" style="fill:#019ad9;fill-rule:nonzero;"/><path d="M354.258,274.328l5.401,1.721c-0.071,0.223 -0.152,0.445 -0.242,0.662l-5.243,-2.154c0.03,-0.074 0.058,-0.151 0.084,-0.229" style="fill:#019ad9;fill-rule:nonzero;"/><path d="M354.174,274.557l5.243,2.155c-0.091,0.221 -0.191,0.44 -0.3,0.652l-5.048,-2.581c0.038,-0.074 0.073,-0.149 0.105,-0.226" style="fill:#019ad9;fill-rule:nonzero;"/><path d="M354.069,274.783l5.048,2.581c-0.113,0.221 -0.236,0.437 -0.367,0.647l-4.809,-3.004c0.047,-0.073 0.089,-0.147 0.128,-0.224" style="fill:#019ad9;fill-rule:nonzero;"/><path d="M353.942,275.007l4.808,3.004c-0.138,0.22 -0.286,0.434 -0.441,0.641l-4.52,-3.423c0.054,-0.071 0.105,-0.146 0.153,-0.222" style="fill:#019ad9;fill-rule:nonzero;"/><path d="M353.789,275.229l4.519,3.422c-0.167,0.221 -0.343,0.433 -0.53,0.637l-4.173,-3.838c0.065,-0.071 0.127,-0.144 0.184,-0.221" style="fill:#019ad9;fill-rule:nonzero;"/><path d="M353.605,275.45l4.172,3.838c-0.203,0.221 -0.418,0.433 -0.644,0.632l-3.75,-4.251c0.077,-0.07 0.152,-0.143 0.222,-0.219" style="fill:#019ad9;fill-rule:nonzero;"/><path d="M353.383,275.669l3.75,4.251c-0.251,0.223 -0.516,0.431 -0.794,0.624l-3.23,-4.659c0.096,-0.066 0.188,-0.139 0.274,-0.216" style="fill:#019ad9;fill-rule:nonzero;"/><path d="M353.109,275.885l3.231,4.659c-0.327,0.226 -0.67,0.432 -1.029,0.613l-2.554,-5.06c0.123,-0.062 0.241,-0.133 0.352,-0.212" style="fill:#019ad9;fill-rule:nonzero;"/><path d="M352.756,276.097l2.554,5.059c-0.474,0.24 -0.976,0.437 -1.501,0.586l-1.567,-5.443c0.18,-0.051 0.351,-0.119 0.514,-0.202" style="fill:#019ad9;fill-rule:nonzero;"/><path d="M352.243,276.299l1.567,5.443c-0.749,0.213 -1.546,0.328 -2.376,0.328l0,-5.663c0.282,0.003 0.553,-0.035 0.809,-0.108" style="fill:#019ad9;fill-rule:nonzero;"/></g></g></g></g></g><g><g><path d="M463.975,257.8l5.312,-1.961c3.58,9.707 12.829,16.141 23.16,16.141l0,5.661c-12.698,0.002 -24.073,-7.912 -28.472,-19.841" style="fill:#019ad9;fill-rule:nonzero;"/><g><clipPath id="_clip3"><path d="M463.976,257.799l5.311,-1.96c3.579,9.707 12.828,16.141 23.161,16.141l-0,5.662c-12.699,0.002 -24.075,-7.913 -28.472,-19.843Z" clip-rule="nonzero"/></clipPath><g clip-path="url(#_clip3)"><g><path d="M463.975,257.8l5.312,-1.961c0.09,0.243 0.183,0.485 0.279,0.723l-5.247,2.126c-0.119,-0.293 -0.233,-0.589 -0.344,-0.888" style="fill:#019ad9;fill-rule:nonzero;"/><path d="M464.319,258.689l5.248,-2.127c2.023,5.001 5.572,9.08 9.986,11.784l-2.957,4.828c-5.427,-3.324 -9.791,-8.34 -12.277,-14.485" style="fill:#019ad9;fill-rule:nonzero;"/><path d="M476.596,273.174l2.957,-4.828c0.987,0.605 2.017,1.14 3.083,1.602l-2.249,5.196c-1.311,-0.568 -2.577,-1.227 -3.791,-1.97" style="fill:#019ad9;fill-rule:nonzero;"/><path d="M480.387,275.144l2.249,-5.196c0.846,0.367 1.715,0.687 2.602,0.958l-1.652,5.416c-1.091,-0.333 -2.159,-0.727 -3.199,-1.178" style="fill:#019ad9;fill-rule:nonzero;"/><path d="M483.586,276.321l1.652,-5.416c0.77,0.235 1.553,0.433 2.348,0.592l-1.115,5.553c-0.977,-0.196 -1.939,-0.441 -2.885,-0.729" style="fill:#019ad9;fill-rule:nonzero;"/><path d="M486.471,277.049l1.115,-5.552c0.723,0.146 1.458,0.259 2.2,0.339l-0.609,5.63c-0.913,-0.098 -1.815,-0.238 -2.706,-0.417" style="fill:#019ad9;fill-rule:nonzero;"/></g></g></g></g></g><path d="M247.236,229.933l11.456,-5.662l85.66,-0l-4.099,5.662l-93.017,-0Z" style="fill:#019ad9;fill-rule:nonzero;"/><path d="M340.253,229.933l4.099,-5.662l15.274,46.473l-5.379,1.768l-13.994,-42.579Z" style="fill:#019ad9;fill-rule:nonzero;"/><path d="M408.2,326.307l-5.337,1.891l-70.931,-199.728l1.841,-11.731l74.427,209.568Z" style="fill:#019ad9;fill-rule:nonzero;"/><path d="M333.773,116.738l-1.842,11.732l-73.239,95.801l-11.456,5.661l86.537,-113.194Z" style="fill:#019ad9;fill-rule:nonzero;"/><path d="M388.659,53.774l5.312,-1.956l75.316,204.02l-5.311,1.961l-75.317,-204.025Z" style="fill:#019ad9;fill-rule:nonzero;"/><path d="M69.082,336.906l-11.762,5.662l236.112,-295.885l4.425,3.532l-228.775,286.691Z" style="fill:#019ad9;fill-rule:nonzero;"/><rect x="308.847" y="39.257" width="67.111" height="5.662" style="fill:#019ad9;"/><g><g><path d="M375.958,44.918l0,-5.661c8.038,-0 15.237,5.018 18.013,12.56l-5.312,1.957c-1.959,-5.317 -7.032,-8.856 -12.701,-8.856" style="fill:#019ad9;fill-rule:nonzero;"/><g><clipPath id="_clip4"><path d="M375.958,44.919l0,-5.662c8.04,-0 15.237,5.018 18.013,12.56l-5.312,1.957c-1.959,-5.316 -7.032,-8.855 -12.701,-8.855Z" clip-rule="nonzero"/></clipPath><g clip-path="url(#_clip4)"><g><path d="M375.958,44.918l0,-5.661c0.141,-0 0.283,0.001 0.424,0.003l-0.125,5.662c-0.099,-0.002 -0.199,-0.004 -0.299,-0.004" style="fill:#019ad9;fill-rule:nonzero;"/><path d="M376.257,44.922l0.125,-5.661c0.552,0.013 1.099,0.048 1.642,0.106l-0.61,5.63c-0.381,-0.041 -0.768,-0.067 -1.157,-0.075" style="fill:#019ad9;fill-rule:nonzero;"/><path d="M377.414,44.997l0.61,-5.629c0.576,0.062 1.147,0.15 1.71,0.263l-1.114,5.552c-0.397,-0.08 -0.8,-0.142 -1.206,-0.186" style="fill:#019ad9;fill-rule:nonzero;"/><path d="M378.62,45.183l1.114,-5.553c0.617,0.124 1.226,0.279 1.825,0.461l-1.653,5.416c-0.42,-0.129 -0.851,-0.237 -1.286,-0.324" style="fill:#019ad9;fill-rule:nonzero;"/><path d="M379.907,45.507l1.651,-5.416c0.69,0.212 1.366,0.46 2.025,0.746l-2.249,5.196c-0.464,-0.201 -0.941,-0.377 -1.427,-0.526" style="fill:#019ad9;fill-rule:nonzero;"/><path d="M381.334,46.033l2.249,-5.196c0.829,0.358 1.631,0.775 2.399,1.246l-2.957,4.829c-0.541,-0.332 -1.106,-0.626 -1.691,-0.879" style="fill:#019ad9;fill-rule:nonzero;"/><path d="M383.025,46.911l2.957,-4.828c3.436,2.105 6.198,5.28 7.771,9.166l-5.25,2.124c-1.107,-2.739 -3.055,-4.977 -5.478,-6.462" style="fill:#019ad9;fill-rule:nonzero;"/><path d="M388.504,53.373l5.248,-2.124c0.077,0.187 0.15,0.377 0.22,0.568l-5.314,1.957c-0.048,-0.135 -0.101,-0.268 -0.154,-0.401" style="fill:#019ad9;fill-rule:nonzero;"/></g></g></g></g></g><path d="M472.884,302.993c-22.413,20.965 -41.011,33.913 -41.011,33.913l-8.665,0c-6.753,-0.001 -12.749,-4.234 -15.008,-10.599l-74.427,-209.568l-86.536,113.193l93.016,0l13.994,42.579c0.641,1.893 -0.822,3.915 -2.812,3.897l-139.722,-0l-46.256,60.498l-96.375,0l228.776,-286.691c2.672,-3.345 6.716,-5.297 10.988,-5.297l67.113,-0c5.668,0.001 10.742,3.539 12.7,8.855l75.316,204.027c4.398,11.93 15.774,19.843 28.472,19.842l5.028,-0" style="fill:#019ad9;fill-rule:nonzero;"/><g><g><path d="M297.858,50.215l-4.425,-3.532c3.745,-4.689 9.414,-7.426 15.414,-7.426l-0,5.661c-4.272,0 -8.317,1.953 -10.989,5.297" style="fill:#019ad9;fill-rule:nonzero;"/><g><clipPath id="_clip5"><path d="M297.858,50.215l-4.426,-3.531c3.747,-4.689 9.414,-7.427 15.415,-7.427l0,5.662c-4.273,-0.002 -8.318,1.952 -10.989,5.296Z" clip-rule="nonzero"/></clipPath><g clip-path="url(#_clip5)"><g><path d="M297.858,50.215l-4.425,-3.532c0.423,-0.53 0.87,-1.034 1.341,-1.513l4.041,3.966c-0.336,0.341 -0.656,0.701 -0.957,1.079" style="fill:#019ad9;fill-rule:nonzero;"/><path d="M298.814,49.136l-4.041,-3.966c0.542,-0.553 1.115,-1.071 1.714,-1.552l3.549,4.41c-0.427,0.344 -0.835,0.714 -1.222,1.108" style="fill:#019ad9;fill-rule:nonzero;"/><path d="M300.036,48.028l-3.549,-4.41c0.531,-0.428 1.082,-0.826 1.652,-1.195l3.075,4.753c-0.406,0.263 -0.799,0.547 -1.178,0.852" style="fill:#019ad9;fill-rule:nonzero;"/><path d="M301.215,47.176l-3.076,-4.753c0.523,-0.338 1.06,-0.652 1.612,-0.939l2.614,5.022c-0.394,0.206 -0.777,0.43 -1.15,0.67" style="fill:#019ad9;fill-rule:nonzero;"/><path d="M302.364,46.507l-2.613,-5.022c0.517,-0.27 1.046,-0.517 1.586,-0.739l2.159,5.234c-0.385,0.159 -0.762,0.335 -1.132,0.527" style="fill:#019ad9;fill-rule:nonzero;"/><path d="M303.496,45.98l-2.158,-5.235c0.514,-0.213 1.039,-0.403 1.572,-0.571l1.707,5.398c-0.38,0.12 -0.754,0.256 -1.121,0.408" style="fill:#019ad9;fill-rule:nonzero;"/><path d="M304.617,45.572l-1.707,-5.399c0.515,-0.163 1.038,-0.305 1.568,-0.426l1.256,5.521c-0.377,0.086 -0.75,0.187 -1.117,0.304" style="fill:#019ad9;fill-rule:nonzero;"/><path d="M305.734,45.268l-1.257,-5.52c0.52,-0.118 1.045,-0.217 1.575,-0.292l0.805,5.604c-0.378,0.055 -0.753,0.124 -1.123,0.208" style="fill:#019ad9;fill-rule:nonzero;"/><path d="M306.856,45.06l-0.804,-5.604c0.527,-0.075 1.059,-0.13 1.594,-0.163l0.345,5.652c-0.38,0.023 -0.759,0.062 -1.135,0.115" style="fill:#019ad9;fill-rule:nonzero;"/><path d="M307.992,44.944l-0.346,-5.652c0.398,-0.024 0.799,-0.036 1.2,-0.036l0,5.663c-0.285,-0 -0.571,0.008 -0.854,0.025" style="fill:#019ad9;fill-rule:nonzero;"/></g></g></g></g></g></g></g><path d="M490.221,271.879l11.09,-0l-3.836,5.762c0,0 -6.263,0.233 -8.298,-0.175c-3.752,-0.751 0.609,-5.63 0.609,-5.63l0.435,0.043Z" style="fill:#019ad9;fill-rule:nonzero;"/><g><g><g><g><path d="M645.11,338.751c0.017,-0.614 0.035,-1.229 0.052,-1.843l-0.052,1.843Z" style="fill:#ff4e01;fill-rule:nonzero;"/><g><clipPath id="_clip6"><path d="M645.111,338.751c0.017,-0.615 0.034,-1.229 0.051,-1.844c-0,0.001 -0,0.001 0.001,0.001l-0.052,1.843Z" clip-rule="nonzero"/></clipPath><g clip-path="url(#_clip6)"><g><path d="M645.11,338.75l0.052,-1.843l0.001,0.002l-0.053,1.843l0,-0.002" style="fill:#ff4e01;fill-rule:nonzero;"/></g></g></g></g></g><g><g><path d="M504.058,274.976c0.663,1.106 1.24,2.033 1.607,2.615c0.001,-0 -0.007,0.013 -0.022,0.041l-1.585,-2.656Z" style="fill:#ff4e01;fill-rule:nonzero;"/><g><clipPath id="_clip7"><path d="M504.058,274.976c0.662,1.107 1.24,2.033 1.608,2.614c-0,0.001 -0.007,0.015 -0.022,0.043l-1.586,-2.657Z" clip-rule="nonzero"/></clipPath><g clip-path="url(#_clip7)"><g><path d="M504.037,275.014l1.629,2.576c-0,0 -0.007,0.015 -0.022,0.042l-1.587,-2.657c0,0 -0.006,0.014 -0.02,0.039" style="fill:#ff4e01;fill-rule:nonzero;"/></g></g></g></g></g><g><g><path d="M765.737,181.816c-1.706,-1.166 -4.12,-2.738 -7.679,-4.555c2.681,1.365 6.254,3.186 8.934,4.551c-0.853,0.003 -1.255,0.004 -1.255,0.004" style="fill:#ff4e01;fill-rule:nonzero;"/><g><clipPath id="_clip8"><path d="M765.737,181.816c-1.705,-1.166 -4.12,-2.738 -7.678,-4.555c2.679,1.365 6.253,3.185 8.933,4.552c-0.852,0.002 -1.255,0.003 -1.255,0.003Z" clip-rule="nonzero"/></clipPath><g clip-path="url(#_clip8)"><g><path d="M758.059,177.261l8.933,4.551c-0.853,0.003 -1.255,0.004 -1.255,0.004l-6.613,-4.558c-0.698,0.002 -1.065,0.003 -1.065,0.003" style="fill:#ff4e01;fill-rule:nonzero;"/></g></g></g></g></g><path d="M502.27,271.98l129.929,-0.382l-129.929,0.382Z" style="fill:#ff4e01;fill-rule:nonzero;"/><g><g><path d="M645.162,336.908l0,0.001l-0.052,1.842c0.017,-0.614 0.035,-1.23 0.052,-1.843" style="fill:#ff4e01;fill-rule:nonzero;"/><g><clipPath id="_clip9"><path d="M645.162,336.907c-0,0.001 -0,0.001 0.001,0.001l-0.052,1.843c0.017,-0.615 0.034,-1.229 0.051,-1.844Z" clip-rule="nonzero"/></clipPath><g clip-path="url(#_clip9)"><g><path d="M645.162,336.908l-0.051,1.843l-0.001,-0l0.052,-1.842l0,-0.001" style="fill:#ff4e01;fill-rule:nonzero;"/><path d="M645.162,336.908l-0.052,1.843l0.052,-1.843" style="fill:#ff4e01;fill-rule:nonzero;"/></g></g></g></g></g><path d="M962.655,336.907l11.266,5.661l-97.75,0l2.894,-5.661l83.59,-0Z" style="fill:#ff4e01;fill-rule:nonzero;"/><path d="M645.162,336.909l-0.16,5.66l-221.793,-0l8.664,-5.662l213.289,0.002Z" style="fill:#ff4e01;fill-rule:nonzero;"/><g><g><path d="M645.11,338.751c0.017,-0.614 0.035,-1.229 0.052,-1.843c0,-0.028 0.603,0.018 1.749,0.018c9.477,-0.001 52.467,-1.376 68.141,-21.996l3.648,4.377c-16.893,22.056 -61.968,23.281 -71.789,23.281c-1.231,-0 -1.875,-0.018 -1.909,-0.02l0.108,-3.817Z" style="fill:#ff4e01;fill-rule:nonzero;"/><g><clipPath id="_clip10"><path d="M645.111,338.751c0.017,-0.615 0.034,-1.229 0.051,-1.844c0.001,-0.027 0.604,0.019 1.748,0.019c9.479,-0.001 52.469,-1.377 68.143,-21.997l3.646,4.378c-16.892,22.054 -61.967,23.281 -71.789,23.281c-1.229,0 -1.875,-0.018 -1.909,-0.019l0.11,-3.818Z" clip-rule="nonzero"/></clipPath><g clip-path="url(#_clip10)"><g><path d="M715.052,314.93l3.648,4.377c-0.611,0.796 -1.257,1.565 -1.937,2.308l-3.512,-4.526c0.634,-0.695 1.236,-1.415 1.801,-2.159" style="fill:#ff4e01;fill-rule:nonzero;"/><path d="M713.251,317.089l3.512,4.526c-0.96,1.049 -1.988,2.045 -3.074,2.992l-3.311,-4.717c1.018,-0.888 1.978,-1.82 2.873,-2.801" style="fill:#ff4e01;fill-rule:nonzero;"/><path d="M710.378,319.89l3.31,4.717c-1.357,1.183 -2.806,2.288 -4.33,3.32l-3.046,-4.924c1.434,-0.969 2.794,-2.006 4.066,-3.113" style="fill:#ff4e01;fill-rule:nonzero;"/><path d="M706.312,323.003l3.045,4.924c-2.255,1.528 -4.677,2.898 -7.21,4.125l-2.634,-5.172c2.393,-1.155 4.676,-2.442 6.799,-3.877" style="fill:#ff4e01;fill-rule:nonzero;"/><path d="M699.513,326.88l2.635,5.172c-4.846,2.348 -10.103,4.175 -15.397,5.596l-1.824,-5.482c5.028,-1.348 10.009,-3.075 14.586,-5.286" style="fill:#ff4e01;fill-rule:nonzero;"/><path d="M684.926,332.166l1.824,5.482c-16.896,4.535 -34.193,4.94 -39.84,4.94c-1.179,-0 -1.821,-0.016 -1.902,-0.019l0.156,-5.664c0.033,-0.022 0.633,0.021 1.746,0.021c5.449,0 21.974,-0.455 38.016,-4.76" style="fill:#ff4e01;fill-rule:nonzero;"/><path d="M645.164,336.905l-0.155,5.664l-0.003,0l0.156,-5.662c0,-0 0,-0.002 0.002,-0.002" style="fill:#ff4e01;fill-rule:nonzero;"/><path d="M645.162,336.907l-0.156,5.663l-0.004,-0l0.16,-5.662l0,-0.001" style="fill:#ff4e01;fill-rule:nonzero;"/><path d="M645.162,336.908l-0.159,5.66l-0.001,0l0.16,-5.66" style="fill:#ff4e01;fill-rule:nonzero;"/></g></g></g></g></g><path d="M497.475,277.632l3.836,-5.652l130.888,-0.383l0.016,5.663l-134.74,0.372Z" style="fill:#ff4e01;fill-rule:nonzero;"/><g><g><path d="M505.666,277.591c-0,-0 -0.008,0.014 -0.022,0.041c-0.476,-0.796 -1.11,-1.859 -1.586,-2.656c0.561,0.937 0.996,1.646 1.608,2.615" style="fill:#ff4e01;fill-rule:nonzero;"/></g></g><path d="M885.537,233.197l10.8,5.037l77.583,104.334l-11.266,-5.661l-77.117,-103.71Z" style="fill:#ff4e01;fill-rule:nonzero;"/><g><g><path d="M632.215,277.26l-0.017,-5.662c1.898,-0.011 37.951,-0.216 40.474,-17.861c3.146,-22.013 -32.761,-24.301 -34.652,-24.421l0.36,-5.653c2.079,0.134 43.013,2.313 39.896,30.875c-3.964,23.267 -43.999,22.709 -46.061,22.722" style="fill:#ff4e01;fill-rule:nonzero;"/><g><clipPath id="_clip11"><path d="M632.216,277.259l-0.018,-5.661c1.898,-0.011 37.951,-0.217 40.474,-17.861c3.146,-22.013 -32.761,-24.301 -34.651,-24.422l0.359,-5.653c2.079,0.135 43.013,2.314 39.896,30.877c-3.964,23.266 -43.999,22.709 -46.06,22.72Z" clip-rule="nonzero"/></clipPath><g clip-path="url(#_clip11)"><g><path d="M632.215,277.26l-1.939,-5.657c0.434,-0.003 4.57,-0.021 7.76,-0.248l0.651,5.695c-3.549,0.234 -6.001,0.207 -6.472,0.21" style="fill:#ff4e01;fill-rule:nonzero;"/><path d="M638.687,277.05l-0.65,-5.695c2.216,-0.16 4.904,-0.422 7.793,-0.858l1.554,5.59c-3.232,0.512 -6.23,0.8 -8.697,0.963" style="fill:#ff4e01;fill-rule:nonzero;"/><path d="M647.384,276.087l-1.555,-5.59c1.867,-0.282 3.819,-0.635 5.781,-1.08l2.257,5.371c-2.206,0.544 -4.393,0.968 -6.483,1.299" style="fill:#ff4e01;fill-rule:nonzero;"/><path d="M653.867,274.787l-2.257,-5.371c1.46,-0.33 2.925,-0.712 4.366,-1.151l2.812,5.098c-1.629,0.548 -3.28,1.02 -4.921,1.424" style="fill:#ff4e01;fill-rule:nonzero;"/><path d="M658.788,273.363l-2.812,-5.099c1.17,-0.356 2.324,-0.751 3.446,-1.188l3.268,4.793c-1.273,0.553 -2.58,1.049 -3.902,1.494" style="fill:#ff4e01;fill-rule:nonzero;"/><path d="M662.69,271.869l-3.268,-4.793c0.962,-0.375 1.9,-0.781 2.805,-1.221l3.657,4.464c-1.034,0.561 -2.102,1.076 -3.194,1.55" style="fill:#ff4e01;fill-rule:nonzero;"/><path d="M665.883,270.319l-3.657,-4.464c0.809,-0.393 1.591,-0.814 2.338,-1.262l3.998,4.11c-0.86,0.576 -1.755,1.115 -2.679,1.616" style="fill:#ff4e01;fill-rule:nonzero;"/><path d="M668.562,268.703l-3.998,-4.11c0.701,-0.421 1.37,-0.867 2.005,-1.339l4.305,3.725c-0.734,0.611 -1.508,1.184 -2.312,1.724" style="fill:#ff4e01;fill-rule:nonzero;"/><path d="M670.874,266.979l-4.305,-3.726c0.624,-0.464 1.214,-0.957 1.763,-1.474l4.597,3.291c-0.643,0.672 -1.33,1.309 -2.055,1.909" style="fill:#ff4e01;fill-rule:nonzero;"/><path d="M672.929,265.069l-4.597,-3.291c0.58,-0.548 1.115,-1.127 1.598,-1.738l4.887,2.768c-0.576,0.796 -1.207,1.55 -1.888,2.261" style="fill:#ff4e01;fill-rule:nonzero;"/><path d="M674.818,262.807l-4.888,-2.767c0.597,-0.756 1.115,-1.561 1.54,-2.419l5.216,2.024c-0.529,1.125 -1.156,2.177 -1.868,3.162" style="fill:#ff4e01;fill-rule:nonzero;"/><path d="M676.686,259.645l-5.217,-2.024c0.59,-1.19 1.002,-2.483 1.203,-3.884c3.146,-22.013 -32.761,-24.301 -34.652,-24.422l0.361,-5.653c2.078,0.135 43.012,2.314 39.896,30.876c-0.316,1.849 -0.858,3.547 -1.591,5.107" style="fill:#ff4e01;fill-rule:nonzero;"/></g></g></g></g></g><path d="M879.065,336.907l-2.895,5.661l-120.234,-166.388l11.056,5.632l112.073,155.095Z" style="fill:#ff4e01;fill-rule:nonzero;"/><g><g><path d="M638.381,223.662l-0.36,5.653c-2.935,-0.37 -58.678,-7.414 -78.934,-10.472c-69.213,-10.433 -88.02,-37.735 -89.009,-39.172l4.662,-3.212c0.748,1.09 18.062,26.497 85.192,36.786c20.169,3.045 75.876,10.075 78.449,10.417" style="fill:#ff4e01;fill-rule:nonzero;"/><g><clipPath id="_clip12"><path d="M638.38,223.662l-0.359,5.653c-2.934,-0.37 -58.678,-7.413 -78.934,-10.471c-69.213,-10.434 -88.02,-37.737 -89.01,-39.173l4.664,-3.212c0.746,1.09 18.062,26.497 85.191,36.786c20.168,3.045 75.877,10.074 78.448,10.417Z" clip-rule="nonzero"/></clipPath><g clip-path="url(#_clip12)"><g><path d="M638.381,223.662l-0.36,5.653c-2.935,-0.37 -58.678,-7.414 -78.934,-10.472c-69.213,-10.433 -88.02,-37.735 -89.009,-39.172l4.662,-3.212c0.748,1.09 18.062,26.497 85.192,36.786c20.169,3.045 75.876,10.075 78.449,10.417" style="fill:#ff4e01;fill-rule:nonzero;"/></g></g></g></g></g><path d="M558.12,112.176l-0,-5.661l306.025,-0l-0,5.661l-306.025,0Z" style="fill:#ff4e01;"/><path d="M864.146,112.177l-0,-5.664l55.652,-0l0,5.664l-55.652,-0Z" style="fill:#ff4e01;"/><g><g><path d="M765.737,181.816c-3.697,-2.526 -5.994,-3.697 -9.8,-5.636c2.12,-0.006 42.407,-0.113 80.101,-0.113c18.846,0 36.516,0.028 47.114,0.113c1.1,0.009 2.255,0.018 3.456,0.018c15.01,0 37.182,-1.687 47.362,-30.656c11.431,-32.563 -11.843,-33.367 -14.172,-33.367l0,-5.663c3.06,-0.001 32.416,2.259 19.513,40.906c-11.419,32.576 -36.635,34.465 -52.703,34.443c-1.244,0.011 -2.401,-0.01 -3.5,-0.019c-10.577,-0.085 -28.244,-0.099 -47.07,-0.113c-34.083,0.003 -70.297,0.09 -70.301,0.087" style="fill:#ff4e01;fill-rule:nonzero;"/><g><clipPath id="_clip13"><path d="M765.737,181.816c-3.697,-2.527 -5.995,-3.697 -9.801,-5.636c2.122,-0.006 42.408,-0.114 80.102,-0.114c18.846,-0 36.515,0.029 47.114,0.114c1.1,0.009 2.255,0.018 3.456,0.018c15.01,0 37.183,-1.687 47.362,-30.656c11.431,-32.563 -11.842,-33.368 -14.172,-33.368l0,-5.661c3.06,-0.002 32.416,2.257 19.514,40.905c-11.42,32.576 -36.636,34.465 -52.704,34.443c-1.244,0.011 -2.401,-0.01 -3.5,-0.019c-10.577,-0.085 -28.243,-0.099 -47.07,-0.113c-34.082,0.003 -70.297,0.09 -70.301,0.087Z" clip-rule="nonzero"/></clipPath><g clip-path="url(#_clip13)"><g><path d="M766.992,181.812l-11.056,-5.632l0.03,-0l10.914,5.632l0.112,0" style="fill:#ff4e01;fill-rule:nonzero;"/><path d="M766.88,181.812l-10.914,-5.632l0.034,0l10.775,5.632l0.105,0" style="fill:#ff4e01;fill-rule:nonzero;"/><path d="M766.774,181.813l-10.775,-5.634l0.038,0l10.636,5.634l0.101,-0" style="fill:#ff4e01;fill-rule:nonzero;"/><path d="M766.673,181.813l-10.636,-5.634l0.041,0l10.499,5.634l0.096,0" style="fill:#ff4e01;fill-rule:nonzero;"/><path d="M766.577,181.813l-10.498,-5.633l0.046,-0l10.362,5.633l0.09,0" style="fill:#ff4e01;fill-rule:nonzero;"/><path d="M766.487,181.814l-10.363,-5.635l0.05,-0l10.228,5.635l0.085,-0" style="fill:#ff4e01;fill-rule:nonzero;"/><path d="M766.402,181.814l-10.228,-5.635l0.054,0l10.094,5.635l0.08,-0" style="fill:#ff4e01;fill-rule:nonzero;"/><path d="M766.322,181.814l-10.094,-5.635l0.059,0l9.961,5.635l0.074,0" style="fill:#ff4e01;fill-rule:nonzero;"/><path d="M766.248,181.814l-9.962,-5.636l0.062,0l9.83,5.636l0.07,0" style="fill:#ff4e01;fill-rule:nonzero;"/><path d="M766.178,181.815l-9.83,-5.637l0.066,0l9.7,5.637l0.064,-0" style="fill:#ff4e01;fill-rule:nonzero;"/><path d="M766.114,181.815l-9.7,-5.636l0.07,-0l9.57,5.636l0.06,-0" style="fill:#ff4e01;fill-rule:nonzero;"/><path d="M766.055,181.815l-9.571,-5.637c5.354,-0.014 43.631,-0.112 79.554,-0.112c18.845,-0 36.516,0.029 47.114,0.114c1.1,0.009 2.254,0.018 3.455,0.018c2.18,0 4.511,-0.035 6.932,-0.184l0.575,5.648c-2.648,0.165 -5.174,0.202 -7.507,0.199c-1.243,0.011 -2.4,-0.01 -3.5,-0.019c-10.575,-0.085 -28.243,-0.099 -47.069,-0.113c-35.912,0.003 -74.188,0.099 -69.983,0.086" style="fill:#ff4e01;fill-rule:nonzero;"/><path d="M894.115,181.661l-0.576,-5.648c1.841,-0.113 3.734,-0.291 5.655,-0.571l1.135,5.582c-2.121,0.312 -4.204,0.512 -6.214,0.637" style="fill:#ff4e01;fill-rule:nonzero;"/><path d="M900.329,181.024l-1.136,-5.582c1.46,-0.212 2.936,-0.482 4.416,-0.825l1.615,5.483c-1.646,0.384 -3.281,0.687 -4.895,0.924" style="fill:#ff4e01;fill-rule:nonzero;"/><path d="M905.224,180.1l-1.615,-5.483c1.263,-0.293 2.53,-0.638 3.793,-1.047l2.046,5.357c-1.409,0.457 -2.82,0.845 -4.224,1.173" style="fill:#ff4e01;fill-rule:nonzero;"/><path d="M909.448,178.926l-2.046,-5.355c1.138,-0.368 2.274,-0.786 3.402,-1.262l2.446,5.2c-1.262,0.535 -2.531,1.005 -3.802,1.417" style="fill:#ff4e01;fill-rule:nonzero;"/><path d="M913.25,177.51l-2.447,-5.201c1.069,-0.451 2.13,-0.953 3.179,-1.514l2.832,5.014c-1.178,0.63 -2.367,1.194 -3.564,1.701" style="fill:#ff4e01;fill-rule:nonzero;"/><path d="M916.813,175.809l-2.831,-5.013c1.033,-0.552 2.054,-1.159 3.061,-1.828l3.207,4.789c-1.131,0.751 -2.278,1.433 -3.437,2.052" style="fill:#ff4e01;fill-rule:nonzero;"/><path d="M920.25,173.757l-3.208,-4.788c1.041,-0.691 2.065,-1.448 3.068,-2.276l3.592,4.506c-1.13,0.932 -2.282,1.781 -3.452,2.558" style="fill:#ff4e01;fill-rule:nonzero;"/><path d="M923.702,171.199l-3.591,-4.506c1.101,-0.91 2.178,-1.907 3.224,-2.998l3.998,4.134c-1.178,1.227 -2.39,2.348 -3.631,3.37" style="fill:#ff4e01;fill-rule:nonzero;"/><path d="M927.334,167.829l-4,-4.134c1.244,-1.299 2.443,-2.731 3.587,-4.31l4.455,3.599c-1.29,1.776 -2.64,3.387 -4.042,4.845" style="fill:#ff4e01;fill-rule:nonzero;"/><path d="M931.376,162.984l-4.455,-3.599c1.67,-2.307 3.223,-4.928 4.627,-7.907l5.041,2.615c-1.579,3.349 -3.33,6.298 -5.213,8.891" style="fill:#ff4e01;fill-rule:nonzero;"/><path d="M936.59,154.093l-5.042,-2.615c0.866,-1.84 1.676,-3.815 2.422,-5.937c11.431,-32.562 -11.843,-33.366 -14.172,-33.366l0,-5.663c3.06,-0.001 32.416,2.259 19.514,40.905c-0.837,2.387 -1.747,4.608 -2.722,6.676" style="fill:#ff4e01;fill-rule:nonzero;"/></g></g></g></g></g><g><g><path d="M558.119,106.515l0,5.661c-2.826,-0.002 -23.323,0.681 -24.051,22.498c-0.778,23.275 50.562,22.18 68.652,24.052c84.755,8.726 96.361,14.88 112.221,22.231c16.218,7.516 40.218,19.261 37.11,66.206c-3.095,46.933 -31.838,70.883 -33.352,72.144l-3.647,-4.377c1.336,-1.066 28.39,-23.579 31.349,-68.14c2.735,-43.26 -18.604,-53.615 -33.84,-60.696c-15.288,-7.089 -26.427,-13.048 -110.422,-21.736c-17.909,-1.841 -73.459,0.138 -73.731,-29.872c1.019,-27.226 26.28,-27.976 29.711,-27.971" style="fill:#ff4e01;fill-rule:nonzero;"/><g><clipPath id="_clip14"><path d="M558.119,106.515l0,5.662c-2.826,-0.003 -23.323,0.68 -24.052,22.498c-0.776,23.274 50.563,22.179 68.653,24.051c84.754,8.727 96.361,14.881 112.221,22.231c16.218,7.516 40.218,19.261 37.11,66.206c-3.096,46.933 -31.839,70.883 -33.352,72.144l-3.646,-4.378c1.336,-1.066 28.389,-23.578 31.348,-68.139c2.734,-43.26 -18.604,-53.615 -33.84,-60.696c-15.288,-7.09 -26.427,-13.048 -110.422,-21.735c-17.909,-1.842 -73.458,0.137 -73.731,-29.873c1.019,-27.226 26.28,-27.976 29.711,-27.971Z" clip-rule="nonzero"/></clipPath><g clip-path="url(#_clip14)"><g><path d="M558.119,106.515l0,5.661c-0.988,-0.001 -4.139,0.083 -7.85,1.125l-1.792,-5.414c4.571,-1.283 8.442,-1.373 9.642,-1.372" style="fill:#ff4e01;fill-rule:nonzero;"/><path d="M548.478,107.888l1.79,5.412c-1.431,0.403 -2.944,0.947 -4.45,1.684l-2.827,-5.015c1.858,-0.913 3.724,-1.586 5.487,-2.081" style="fill:#ff4e01;fill-rule:nonzero;"/><path d="M542.991,109.969l2.827,5.016c-0.892,0.436 -1.78,0.941 -2.647,1.523l-3.448,-4.65c1.07,-0.722 2.168,-1.348 3.268,-1.889" style="fill:#ff4e01;fill-rule:nonzero;"/><path d="M539.723,111.859l3.447,4.65c-0.639,0.43 -1.265,0.902 -1.873,1.421l-3.889,-4.307c0.751,-0.645 1.526,-1.232 2.315,-1.764" style="fill:#ff4e01;fill-rule:nonzero;"/><path d="M537.408,113.622l3.889,4.307c-0.502,0.43 -0.991,0.89 -1.462,1.385l-4.236,-3.97c0.584,-0.615 1.188,-1.189 1.809,-1.722" style="fill:#ff4e01;fill-rule:nonzero;"/><path d="M535.599,115.344l4.236,3.97c-0.416,0.437 -0.817,0.9 -1.201,1.391l-4.521,-3.631c0.476,-0.612 0.972,-1.188 1.486,-1.73" style="fill:#ff4e01;fill-rule:nonzero;"/><path d="M534.113,117.074l4.521,3.631c-0.354,0.454 -0.694,0.93 -1.018,1.432l-4.765,-3.281c0.401,-0.625 0.823,-1.218 1.262,-1.782" style="fill:#ff4e01;fill-rule:nonzero;"/><path d="M532.851,118.856l4.765,3.281c-0.305,0.474 -0.595,0.97 -0.869,1.489l-4.975,-2.916c0.339,-0.647 0.701,-1.265 1.079,-1.854" style="fill:#ff4e01;fill-rule:nonzero;"/><path d="M531.772,120.71l4.975,2.917c-0.27,0.511 -0.523,1.048 -0.759,1.607l-5.161,-2.522c0.294,-0.696 0.609,-1.364 0.945,-2.002" style="fill:#ff4e01;fill-rule:nonzero;"/><path d="M530.828,122.713l5.16,2.521c-0.238,0.564 -0.457,1.153 -0.655,1.767l-5.322,-2.087c0.248,-0.764 0.521,-1.499 0.817,-2.201" style="fill:#ff4e01;fill-rule:nonzero;"/><path d="M530.01,124.915l5.323,2.086c-0.204,0.629 -0.386,1.284 -0.545,1.967l-5.46,-1.601c0.199,-0.852 0.428,-1.668 0.682,-2.452" style="fill:#ff4e01;fill-rule:nonzero;"/><path d="M529.328,127.367l5.46,1.601c-0.169,0.725 -0.311,1.481 -0.424,2.27l-5.571,-1.041c0.145,-0.983 0.324,-1.927 0.535,-2.83" style="fill:#ff4e01;fill-rule:nonzero;"/><path d="M528.794,130.197l5.57,1.041c-0.101,0.701 -0.179,1.43 -0.232,2.186l-5.636,-0.5c0.069,-0.942 0.17,-1.85 0.298,-2.727" style="fill:#ff4e01;fill-rule:nonzero;"/><path d="M528.495,132.924l5.638,0.499c-0.03,0.409 -0.051,0.826 -0.066,1.252c-0.009,0.276 -0.011,0.548 -0.006,0.818l-5.619,0.048c-0.02,-0.348 -0.031,-0.7 -0.033,-1.056c0.019,-0.53 0.049,-1.05 0.086,-1.561" style="fill:#ff4e01;fill-rule:nonzero;"/><path d="M528.441,135.541l5.621,-0.048c0.012,0.602 0.059,1.187 0.142,1.756l-5.526,0.553c-0.115,-0.732 -0.195,-1.486 -0.237,-2.261" style="fill:#ff4e01;fill-rule:nonzero;"/><path d="M528.679,137.802l5.524,-0.554c0.096,0.665 0.239,1.307 0.427,1.927l-5.398,1.107c-0.232,-0.798 -0.417,-1.625 -0.553,-2.48" style="fill:#ff4e01;fill-rule:nonzero;"/><path d="M529.232,140.282l5.398,-1.107c0.237,0.788 0.546,1.539 0.92,2.259l-5.214,1.747c-0.44,-0.921 -0.81,-1.888 -1.104,-2.899" style="fill:#ff4e01;fill-rule:nonzero;"/><path d="M530.336,143.182l5.214,-1.749c1.286,2.466 3.348,4.543 5.98,6.299l-4.44,3.498c-2.92,-2.231 -5.247,-4.885 -6.754,-8.048" style="fill:#ff4e01;fill-rule:nonzero;"/><path d="M537.09,151.229l4.44,-3.497c1.501,1.001 3.187,1.899 5.02,2.702l-3.927,4.216c-2.01,-1.014 -3.867,-2.148 -5.533,-3.421" style="fill:#ff4e01;fill-rule:nonzero;"/><path d="M542.623,154.65l3.927,-4.216c1.94,0.853 4.043,1.6 6.265,2.26l-3.355,4.789c-2.414,-0.822 -4.711,-1.759 -6.837,-2.833" style="fill:#ff4e01;fill-rule:nonzero;"/><path d="M549.46,157.483l3.355,-4.788c2.952,0.877 6.113,1.596 9.375,2.194l-2.592,5.295c-3.511,-0.725 -6.93,-1.611 -10.138,-2.701" style="fill:#ff4e01;fill-rule:nonzero;"/><path d="M559.598,160.183l2.592,-5.293c5.012,0.919 10.263,1.55 15.359,2.019l-1.532,5.643c-5.407,-0.52 -11.022,-1.255 -16.419,-2.369" style="fill:#ff4e01;fill-rule:nonzero;"/><path d="M576.017,162.552l1.532,-5.642c9.946,0.915 19.305,1.209 25.171,1.817c2.855,0.293 5.627,0.585 8.318,0.873l-0.656,5.627c-2.668,-0.286 -5.414,-0.576 -8.244,-0.869c-5.805,-0.597 -15.568,-0.792 -26.121,-1.806" style="fill:#ff4e01;fill-rule:nonzero;"/><path d="M610.382,165.227l0.657,-5.627c31.501,3.374 52.04,6.367 66.361,9.21l-1.427,5.504c-14.091,-2.783 -34.383,-5.734 -65.591,-9.087" style="fill:#ff4e01;fill-rule:nonzero;"/><path d="M675.973,174.313l1.427,-5.503c7.569,1.504 13.401,2.965 18.196,4.419l-1.779,5.392c-4.68,-1.413 -10.395,-2.837 -17.844,-4.308" style="fill:#ff4e01;fill-rule:nonzero;"/><path d="M693.817,178.62l1.779,-5.391c4.86,1.474 8.654,2.941 12.112,4.435l-2.125,5.251c-3.341,-1.443 -7.021,-2.863 -11.766,-4.295" style="fill:#ff4e01;fill-rule:nonzero;"/><path d="M705.583,182.916l2.124,-5.252c2.496,1.078 4.815,2.172 7.235,3.293c3.536,1.639 7.443,3.48 11.359,5.843l-3.213,4.701c-3.591,-2.163 -7.204,-3.863 -10.528,-5.407c-2.331,-1.081 -4.565,-2.136 -6.977,-3.178" style="fill:#ff4e01;fill-rule:nonzero;"/><path d="M723.088,191.502l3.213,-4.703c3.37,2.034 6.747,4.456 9.898,7.468l-4.089,4.046c-2.859,-2.745 -5.932,-4.949 -9.022,-6.811" style="fill:#ff4e01;fill-rule:nonzero;"/><path d="M732.109,198.313l4.09,-4.046c2.517,2.406 4.89,5.19 7.003,8.455l-4.764,3.297c-1.904,-2.979 -4.047,-5.514 -6.329,-7.706" style="fill:#ff4e01;fill-rule:nonzero;"/><path d="M738.438,206.019l4.764,-3.297c1.848,2.858 3.498,6.085 4.868,9.75l-5.253,2.453c-1.23,-3.353 -2.714,-6.3 -4.379,-8.906" style="fill:#ff4e01;fill-rule:nonzero;"/><path d="M742.817,214.925l5.253,-2.453c0.87,2.328 1.628,4.833 2.254,7.533l-5.484,1.82c-0.562,-2.476 -1.242,-4.77 -2.023,-6.9" style="fill:#ff4e01;fill-rule:nonzero;"/><path d="M744.84,221.824l5.484,-1.819c0.558,2.408 1.01,4.97 1.342,7.702l-5.622,1.183c-0.299,-2.507 -0.704,-4.858 -1.204,-7.066" style="fill:#ff4e01;fill-rule:nonzero;"/><path d="M746.045,228.89l5.621,-1.184c0.329,2.7 0.541,5.563 0.622,8.604l-5.683,0.487c-0.074,-2.796 -0.265,-5.428 -0.56,-7.907" style="fill:#ff4e01;fill-rule:nonzero;"/><path d="M746.605,236.797l5.683,-0.488c0.084,3.178 0.026,6.549 -0.191,10.126l-5.655,-0.316c0.191,-3.296 0.241,-6.399 0.163,-9.322" style="fill:#ff4e01;fill-rule:nonzero;"/><path d="M746.442,246.119l5.655,0.316c-0.014,0.242 -0.03,0.485 -0.046,0.729c-0.214,3.237 -0.549,6.366 -0.989,9.386l-5.601,-0.851c0.417,-2.865 0.737,-5.834 0.941,-8.909c0.013,-0.225 0.026,-0.448 0.04,-0.671" style="fill:#ff4e01;fill-rule:nonzero;"/><path d="M745.461,255.699l5.601,0.851c-0.474,3.249 -1.07,6.374 -1.765,9.371l-5.505,-1.334c0.656,-2.841 1.22,-5.804 1.669,-8.888" style="fill:#ff4e01;fill-rule:nonzero;"/><path d="M743.792,264.587l5.505,1.335c-0.708,3.051 -1.52,5.971 -2.411,8.76l-5.369,-1.793c0.841,-2.642 1.606,-5.409 2.275,-8.302" style="fill:#ff4e01;fill-rule:nonzero;"/><path d="M741.517,272.889l5.369,1.793c-0.932,2.914 -1.95,5.685 -3.031,8.313l-5.196,-2.235c1.019,-2.488 1.979,-5.111 2.858,-7.871" style="fill:#ff4e01;fill-rule:nonzero;"/><path d="M738.659,280.759l5.196,2.236c-1.177,2.861 -2.427,5.551 -3.715,8.074l-4.98,-2.675c1.213,-2.384 2.39,-4.929 3.499,-7.635" style="fill:#ff4e01;fill-rule:nonzero;"/><path d="M735.16,288.394l4.979,2.674c-1.443,2.822 -2.934,5.433 -4.43,7.832l-4.718,-3.109c1.405,-2.264 2.811,-4.73 4.169,-7.397" style="fill:#ff4e01;fill-rule:nonzero;"/><path d="M730.991,295.791l4.718,3.108c-1.745,2.801 -3.493,5.314 -5.171,7.54l-4.409,-3.541c1.576,-2.095 3.22,-4.464 4.862,-7.107" style="fill:#ff4e01;fill-rule:nonzero;"/><path d="M726.129,302.898l4.41,3.54c-2.08,2.761 -4.051,5.08 -5.768,6.954l-4.056,-3.958c1.609,-1.758 3.46,-3.937 5.414,-6.536" style="fill:#ff4e01;fill-rule:nonzero;"/><path d="M720.714,309.434l4.057,3.959c-2.284,2.494 -4.119,4.206 -5.168,5.136l-3.72,-4.304c0.974,-0.855 2.69,-2.452 4.831,-4.791" style="fill:#ff4e01;fill-rule:nonzero;"/><path d="M715.883,314.225l3.72,4.304c-0.467,0.414 -0.779,0.673 -0.903,0.778l-3.647,-4.377c0.11,-0.088 0.396,-0.323 0.83,-0.705" style="fill:#ff4e01;fill-rule:nonzero;"/></g></g></g></g></g><g><g><path d="M1011.21,71.76l5.374,-1.865c1.198,2.069 23.975,41.39 -3.109,100.081c-25.593,55.455 -51.709,59.085 -68.78,63.212c-11.975,2.904 -46.54,4.938 -48.359,5.045l-10.8,-5.036c12.256,-0.733 46.494,-2.748 57.826,-5.511c16.368,-3.957 40.384,-7.167 64.973,-60.083c25.844,-56.204 4.383,-93.09 2.875,-95.843" style="fill:#ff4e01;fill-rule:nonzero;"/><g><clipPath id="_clip15"><path d="M1011.21,71.76l5.374,-1.865c1.198,2.07 23.975,41.39 -3.109,100.08c-25.593,55.455 -51.709,59.086 -68.78,63.214c-11.975,2.904 -46.54,4.938 -48.359,5.045l-10.8,-5.037c12.256,-0.734 46.494,-2.747 57.827,-5.512c16.367,-3.956 40.383,-7.167 64.971,-60.082c25.845,-56.203 4.384,-93.09 2.876,-95.843Z" clip-rule="nonzero"/></clipPath><g clip-path="url(#_clip15)"><g><path d="M1011.21,71.76l5.374,-1.865c0.282,0.487 1.761,3.042 3.504,7.428l-5.371,1.87c-1.689,-4.243 -3.152,-6.785 -3.507,-7.433" style="fill:#ff4e01;fill-rule:nonzero;"/><path d="M1014.72,79.192l5.371,-1.869c1.222,3.074 2.573,7.05 3.732,11.843l-5.515,1.384c-1.107,-4.576 -2.404,-8.385 -3.588,-11.358" style="fill:#ff4e01;fill-rule:nonzero;"/><path d="M1018.31,90.549l5.516,-1.382c0.784,3.241 1.481,6.859 1.989,10.826l-5.616,0.873c-0.48,-3.776 -1.141,-7.223 -1.889,-10.317" style="fill:#ff4e01;fill-rule:nonzero;"/><path d="M1020.19,100.866l5.617,-0.874c0.417,3.251 0.707,6.736 0.819,10.443l-5.671,0.369c-0.099,-3.528 -0.371,-6.844 -0.765,-9.938" style="fill:#ff4e01;fill-rule:nonzero;"/><path d="M1020.96,110.804l5.672,-0.368c0.096,3.232 0.057,6.634 -0.157,10.194l-5.682,-0.123c0.21,-3.39 0.254,-6.627 0.167,-9.703" style="fill:#ff4e01;fill-rule:nonzero;"/><path d="M1020.79,120.506l5.683,0.124c-0.197,3.291 -0.543,6.718 -1.065,10.276l-5.652,-0.614c0.504,-3.389 0.84,-6.653 1.034,-9.786" style="fill:#ff4e01;fill-rule:nonzero;"/><path d="M1019.76,130.291l5.652,0.614c-0.496,3.376 -1.151,6.869 -1.99,10.471l-5.577,-1.104c0.806,-3.435 1.436,-6.764 1.915,-9.981" style="fill:#ff4e01;fill-rule:nonzero;"/><path d="M1017.84,140.273l5.576,1.104c-0.823,3.532 -1.822,7.171 -3.022,10.909l-5.449,-1.601c1.148,-3.57 2.105,-7.042 2.895,-10.412" style="fill:#ff4e01;fill-rule:nonzero;"/><path d="M1014.95,150.686l5.45,1.601c-1.197,3.727 -2.591,7.554 -4.207,11.475l-5.264,-2.107c1.543,-3.75 2.877,-7.408 4.021,-10.969" style="fill:#ff4e01;fill-rule:nonzero;"/><path d="M1010.93,161.655l5.264,2.107c-0.844,2.046 -1.747,4.118 -2.715,6.213c-1.416,3.069 -2.834,5.978 -4.251,8.738l-4.964,-2.774c1.356,-2.632 2.714,-5.408 4.074,-8.335c0.924,-2.009 1.786,-3.992 2.592,-5.949" style="fill:#ff4e01;fill-rule:nonzero;"/><path d="M1004.26,175.938l4.965,2.774c-2.635,5.128 -5.269,9.739 -7.893,13.89l-4.591,-3.426c2.49,-3.953 5,-8.347 7.519,-13.238" style="fill:#ff4e01;fill-rule:nonzero;"/><path d="M996.742,189.177l4.592,3.426c-2.328,3.683 -4.649,7.003 -6.953,10.002l-4.223,-3.906c2.177,-2.852 4.372,-6.014 6.584,-9.522" style="fill:#ff4e01;fill-rule:nonzero;"/><path d="M990.157,198.699l4.223,3.907c-2.163,2.814 -4.314,5.345 -6.444,7.623l-3.856,-4.28c2.006,-2.165 4.032,-4.571 6.077,-7.25" style="fill:#ff4e01;fill-rule:nonzero;"/><path d="M984.08,205.948l3.856,4.282c-2.132,2.28 -4.244,4.309 -6.33,6.118l-3.477,-4.592c1.959,-1.715 3.944,-3.641 5.951,-5.808" style="fill:#ff4e01;fill-rule:nonzero;"/><path d="M978.129,211.756l3.477,4.592c-2.237,1.939 -4.445,3.628 -6.615,5.105l-3.068,-4.859c2.035,-1.398 4.105,-2.998 6.206,-4.838" style="fill:#ff4e01;fill-rule:nonzero;"/><path d="M971.923,216.594l3.067,4.859c-2.639,1.796 -5.224,3.28 -7.741,4.525l-2.584,-5.106c2.36,-1.176 4.783,-2.577 7.258,-4.278" style="fill:#ff4e01;fill-rule:nonzero;"/><path d="M964.665,220.872l2.585,5.106c-4.364,2.156 -8.523,3.596 -12.407,4.695l-1.839,-5.374c3.665,-1.037 7.569,-2.39 11.661,-4.427" style="fill:#ff4e01;fill-rule:nonzero;"/><path d="M953.003,225.299l1.84,5.374c-3.642,1.032 -7.044,1.765 -10.146,2.515c-11.975,2.904 -46.54,4.938 -48.359,5.045l-10.802,-5.036c12.257,-0.733 46.495,-2.748 57.828,-5.511c2.975,-0.72 6.201,-1.414 9.639,-2.387" style="fill:#ff4e01;fill-rule:nonzero;"/></g></g></g></g></g><g><g><path d="M959.563,46.855l-0,-5.662c47.059,0 56.523,27.266 57.022,28.702l-5.374,1.865c-0.323,-1.02 -8.307,-24.669 -51.648,-24.905" style="fill:#ff4e01;fill-rule:nonzero;"/><g><clipPath id="_clip16"><path d="M959.563,46.855l-0,-5.663c47.059,0 56.523,27.268 57.022,28.703l-5.374,1.865c-0.323,-1.02 -8.307,-24.67 -51.648,-24.905Z" clip-rule="nonzero"/></clipPath><g clip-path="url(#_clip16)"><g><path d="M959.563,46.855l-0,-5.662c0.737,0 1.464,0.006 2.182,0.02l-0.172,5.67c-0.662,-0.015 -1.332,-0.024 -2.01,-0.028" style="fill:#ff4e01;fill-rule:nonzero;"/><path d="M961.572,46.883l0.173,-5.67c3.118,0.057 6.065,0.236 8.85,0.52l-0.886,5.645c-2.557,-0.26 -5.267,-0.429 -8.137,-0.495" style="fill:#ff4e01;fill-rule:nonzero;"/><path d="M969.709,47.378l0.886,-5.644c2.797,0.285 5.43,0.678 7.909,1.161l-1.542,5.526c-2.27,-0.429 -4.685,-0.782 -7.253,-1.043" style="fill:#ff4e01;fill-rule:nonzero;"/><path d="M976.961,48.421l1.543,-5.528c2.596,0.505 5.021,1.108 7.286,1.79l-2.167,5.321c-2.068,-0.6 -4.285,-1.133 -6.662,-1.583" style="fill:#ff4e01;fill-rule:nonzero;"/><path d="M983.623,50.004l2.168,-5.321c2.483,0.747 4.775,1.588 6.889,2.498l-2.78,5.018c-1.922,-0.798 -4.01,-1.537 -6.277,-2.195" style="fill:#ff4e01;fill-rule:nonzero;"/><path d="M989.899,52.198l2.781,-5.016c2.654,1.143 5.028,2.395 7.149,3.706l-3.449,4.546c-1.916,-1.141 -4.067,-2.235 -6.481,-3.236" style="fill:#ff4e01;fill-rule:nonzero;"/><path d="M996.381,55.434l3.448,-4.547c11.274,6.966 15.399,15.578 16.469,18.243l-5.31,2.015c-0.871,-2.212 -4.42,-9.643 -14.607,-15.711" style="fill:#ff4e01;fill-rule:nonzero;"/><path d="M1010.99,71.144l5.309,-2.014c0.158,0.391 0.249,0.655 0.287,0.764l-5.372,1.865c-0.026,-0.078 -0.096,-0.29 -0.224,-0.615" style="fill:#ff4e01;fill-rule:nonzero;"/></g></g></g></g></g><path d="M527.124,46.855l-0.039,-5.662l432.478,0l-0,5.662l-432.439,-0Z" style="fill:#ff4e01;fill-rule:nonzero;"/><path d="M959.563,46.855c43.341,0.236 51.325,23.885 51.648,24.905c1.508,2.754 22.969,39.64 -2.876,95.843c-24.588,52.915 -48.604,56.126 -64.971,60.083c-11.333,2.763 -45.571,4.778 -57.827,5.511l77.118,103.71l-83.59,-0l-112.073,-155.095c-8.922,0.026 31.364,-0.079 69.046,-0.084c18.825,0.015 36.493,0.028 47.07,0.114c1.099,0.009 2.255,0.03 3.5,0.019c16.068,0.022 41.284,-1.867 52.704,-34.444c12.902,-38.646 -16.454,-40.906 -19.514,-40.905l-55.653,0.003l-306.026,-0c-3.431,-0.004 -28.692,0.745 -29.711,27.971c0.271,30.011 55.822,28.031 73.731,29.872c83.995,8.688 95.134,14.647 110.422,21.736c15.236,7.08 36.574,17.436 33.84,60.696c-2.959,44.56 -30.012,67.074 -31.348,68.14c-15.674,20.62 -58.664,21.995 -68.143,21.996c-1.16,0 -1.763,-0.047 -1.747,-0.017l-213.291,-0.002c40.182,-33.141 66.295,-60.552 65.604,-59.275l134.74,-0.373c2.061,-0.011 42.096,0.547 46.06,-22.72c3.117,-28.563 -37.817,-30.742 -39.896,-30.877c-2.572,-0.343 -58.28,-7.372 -78.448,-10.416c-67.129,-10.289 -84.445,-35.696 -85.191,-36.788c-48.456,-67.469 3.382,-108.56 18.34,-118.973c15.057,-10.488 33.174,-10.625 34.044,-10.63l432.438,-0Z" style="fill:#ff4e01;fill-rule:nonzero;"/><g><g><path d="M474.74,176.458l-4.663,3.212c-51.594,-71.761 4.051,-115.902 19.772,-126.833c16.548,-11.504 36.203,-11.636 37.237,-11.644l0.038,5.662c-0.868,0.006 -18.987,0.142 -34.043,10.631c-14.957,10.412 -66.797,51.503 -18.341,118.972" style="fill:#ff4e01;fill-rule:nonzero;"/><g><clipPath id="_clip17"><path d="M474.741,176.459l-4.664,3.212c-51.595,-71.762 4.051,-115.904 19.771,-126.834c16.549,-11.504 36.203,-11.637 37.238,-11.645l0.039,5.663c-0.87,0.005 -18.987,0.141 -34.044,10.63c-14.958,10.413 -66.796,51.504 -18.34,118.974Z" clip-rule="nonzero"/></clipPath><g clip-path="url(#_clip17)"><g><path d="M474.74,176.458l-4.663,3.212c-26.042,-36.221 -24.763,-65.406 -15.086,-86.836l5.392,2.173c-9.006,20.061 -10.1,47.395 14.357,81.451" style="fill:#ff4e01;fill-rule:nonzero;"/><path d="M460.383,95.007l-5.392,-2.173c2.432,-5.384 5.393,-10.28 8.586,-14.673l4.815,3.108c-2.983,4.114 -5.745,8.696 -8.009,13.738" style="fill:#ff4e01;fill-rule:nonzero;"/><path d="M468.392,81.269l-4.816,-3.109c3.035,-4.176 6.276,-7.9 9.467,-11.161l4.208,3.817c-2.991,3.056 -6.024,6.544 -8.859,10.453" style="fill:#ff4e01;fill-rule:nonzero;"/><path d="M477.251,70.816l-4.209,-3.816c3.54,-3.618 7.019,-6.666 10.083,-9.132l3.598,4.374c-2.888,2.322 -6.154,5.183 -9.472,8.574" style="fill:#ff4e01;fill-rule:nonzero;"/><path d="M486.723,62.243l-3.598,-4.374c2.615,-2.105 4.93,-3.785 6.724,-5.032c0.515,-0.358 1.031,-0.704 1.552,-1.04l3.092,4.74c-0.474,0.307 -0.944,0.623 -1.412,0.949c-1.707,1.187 -3.894,2.775 -6.358,4.757" style="fill:#ff4e01;fill-rule:nonzero;"/><path d="M494.493,56.537l-3.093,-4.74c1.582,-1.022 3.185,-1.946 4.791,-2.781l2.671,4.986c-1.467,0.761 -2.929,1.603 -4.369,2.535" style="fill:#ff4e01;fill-rule:nonzero;"/><path d="M498.862,54.002l-2.67,-4.986c1.717,-0.891 3.438,-1.681 5.141,-2.382l2.226,5.194c-1.557,0.639 -3.129,1.36 -4.697,2.174" style="fill:#ff4e01;fill-rule:nonzero;"/><path d="M503.56,51.828l-2.228,-5.194c1.886,-0.775 3.747,-1.44 5.556,-2.009l1.756,5.368c-1.656,0.521 -3.361,1.127 -5.084,1.835" style="fill:#ff4e01;fill-rule:nonzero;"/><path d="M508.644,49.994l-1.755,-5.37c2.081,-0.656 4.09,-1.186 5.985,-1.615l1.255,5.51c-1.736,0.391 -3.579,0.876 -5.485,1.475" style="fill:#ff4e01;fill-rule:nonzero;"/><path d="M514.129,48.519l-1.256,-5.509c2.267,-0.514 4.366,-0.881 6.217,-1.146l0.739,5.607c-1.698,0.242 -3.622,0.578 -5.7,1.048" style="fill:#ff4e01;fill-rule:nonzero;"/><path d="M519.829,47.471l-0.738,-5.607c2.342,-0.333 4.288,-0.501 5.679,-0.585l0.26,5.655c-1.27,0.078 -3.054,0.232 -5.201,0.537" style="fill:#ff4e01;fill-rule:nonzero;"/><path d="M525.03,46.934l-0.259,-5.655c1.309,-0.079 2.125,-0.084 2.315,-0.085l0.039,5.661c-0.16,0.001 -0.9,0.006 -2.095,0.079" style="fill:#ff4e01;fill-rule:nonzero;"/></g></g></g></g></g></g></g></g></svg>