<?xml version="1.0" encoding="UTF-8" standalone="no"?><!DOCTYPE svg PUBLIC "-//W3C//DTD SVG 1.1//EN" "http://www.w3.org/Graphics/SVG/1.1/DTD/svg11.dtd"><svg width="100%" height="100%" viewBox="0 0 1084 400" version="1.1" xmlns="http://www.w3.org/2000/svg" xmlns:xlink="http://www.w3.org/1999/xlink" xml:space="preserve" xmlns:serif="http://www.serif.com/" style="fill-rule:evenodd;clip-rule:evenodd;stroke-linejoin:round;stroke-miterlimit:2;"><rect id="Page-1" serif:id="Page 1" x="0" y="0" width="1084" height="400" style="fill:none;"/><g id="Layer-1" serif:id="Layer 1"><g><g><path d="M431.873,336.906l-8.665,5.662l0,-5.662l8.665,0Z" style="fill:#019ad9;fill-rule:nonzero;"/><path d="M165.457,336.906l2.798,5.662l-110.935,0l11.762,-5.662l96.375,0Z" style="fill:#019ad9;fill-rule:nonzero;"/><g><g><path d="M423.208,336.906l0,5.662c-9.147,0 -17.287,-5.745 -20.344,-14.37l5.337,-1.891c2.258,6.365 8.254,10.598 15.007,10.599" style="fill:#019ad9;fill-rule:nonzero;"/><g><clipPath id="_clip1"><path d="M423.209,336.906l0,5.663c-9.147,-0 -17.287,-5.746 -20.345,-14.37l5.336,-1.892c2.259,6.366 8.256,10.598 15.009,10.599Z" clip-rule="nonzero"/></clipPath><g clip-path="url(#_clip1)"><g><path d="M423.208,336.906l0,5.662c-9.147,0 -17.287,-5.745 -20.344,-14.37l5.337,-1.891c2.258,6.365 8.254,10.598 15.007,10.599" style="fill:#019ad9;fill-rule:nonzero;"/></g></g></g></g></g><g><g><path d="M428.708,337.872l-0.263,-0.965c-0.258,0.103 22.026,-12.949 44.439,-33.914l3.868,4.135c-22.867,21.389 -45.572,34.738 -46.767,35.44l-1.277,-4.696Z" style="fill:#019ad9;fill-rule:nonzero;"/></g></g><path d="M211.713,276.408l2.799,5.661l-46.257,60.499l-2.798,-5.662l46.256,-60.498Z" style="fill:#019ad9;fill-rule:nonzero;"/><path d="M351.435,276.408l-0,5.661l-136.924,0l-2.798,-5.661l139.722,-0Z" style="fill:#019ad9;fill-rule:nonzero;"/><g><g><path d="M354.247,272.512l5.379,-1.768c1.835,5.58 -2.317,11.326 -8.192,11.326l0,-5.662c1.992,0.017 3.454,-2.004 2.813,-3.896" style="fill:#019ad9;fill-rule:nonzero;"/><g><clipPath id="_clip2"><path d="M354.248,272.512l5.378,-1.768c1.835,5.579 -2.318,11.326 -8.191,11.326l-0,-5.663c1.991,0.018 3.452,-2.002 2.813,-3.895Z" clip-rule="nonzero"/></clipPath><g clip-path="url(#_clip2)"><g><path d="M354.247,272.512l5.379,-1.768c0.071,0.215 0.133,0.43 0.186,0.646l-5.5,1.342c-0.018,-0.074 -0.04,-0.147 -0.065,-0.22" style="fill:#019ad9;fill-rule:nonzero;"/><path d="M354.312,272.731l5.5,-1.341c0.079,0.32 0.139,0.641 0.181,0.959l-5.618,0.709c-0.014,-0.108 -0.035,-0.217 -0.063,-0.327" style="fill:#019ad9;fill-rule:nonzero;"/><path d="M354.375,273.058l5.618,-0.708c0.036,0.279 0.058,0.559 0.068,0.836l-5.663,0.158c-0.002,-0.095 -0.011,-0.19 -0.023,-0.286" style="fill:#019ad9;fill-rule:nonzero;"/><path d="M354.398,273.344l5.662,-0.158c0.008,0.257 0.005,0.512 -0.01,0.766l-5.655,-0.345c0.005,-0.088 0.006,-0.175 0.003,-0.263" style="fill:#019ad9;fill-rule:nonzero;"/><path d="M354.394,273.607l5.656,0.345c-0.015,0.243 -0.039,0.485 -0.074,0.723l-5.607,-0.819c0.012,-0.083 0.021,-0.165 0.025,-0.249" style="fill:#019ad9;fill-rule:nonzero;"/><path d="M354.369,273.855l5.608,0.821c-0.034,0.234 -0.078,0.466 -0.132,0.695l-5.523,-1.276c0.02,-0.079 0.034,-0.159 0.047,-0.24" style="fill:#019ad9;fill-rule:nonzero;"/><path d="M354.323,274.095l5.523,1.277c-0.054,0.228 -0.116,0.454 -0.186,0.677l-5.402,-1.72c0.025,-0.077 0.047,-0.155 0.065,-0.234" style="fill:#019ad9;fill-rule:nonzero;"/><path d="M354.258,274.328l5.401,1.721c-0.071,0.223 -0.152,0.445 -0.242,0.662l-5.243,-2.154c0.03,-0.074 0.058,-0.151 0.084,-0.229" style="fill:#019ad9;fill-rule:nonzero;"/><path d="M354.174,274.557l5.243,2.155c-0.091,0.221 -0.191,0.44 -0.3,0.652l-5.048,-2.581c0.038,-0.074 0.073,-0.149 0.105,-0.226" style="fill:#019ad9;fill-rule:nonzero;"/><path d="M354.069,274.783l5.048,2.581c-0.113,0.221 -0.236,0.437 -0.367,0.647l-4.809,-3.004c0.047,-0.073 0.089,-0.147 0.128,-0.224" style="fill:#019ad9;fill-rule:nonzero;"/><path d="M353.942,275.007l4.808,3.004c-0.138,0.22 -0.286,0.434 -0.441,0.641l-4.52,-3.423c0.054,-0.071 0.105,-0.146 0.153,-0.222" style="fill:#019ad9;fill-rule:nonzero;"/><path d="M353.789,275.229l4.519,3.422c-0.167,0.221 -0.343,0.433 -0.53,0.637l-4.173,-3.838c0.065,-0.071 0.127,-0.144 0.184,-0.221" style="fill:#019ad9;fill-rule:nonzero;"/><path d="M353.605,275.45l4.172,3.838c-0.203,0.221 -0.418,0.433 -0.644,0.632l-3.75,-4.251c0.077,-0.07 0.152,-0.143 0.222,-0.219" style="fill:#019ad9;fill-rule:nonzero;"/><path d="M353.383,275.669l3.75,4.251c-0.251,0.223 -0.516,0.431 -0.794,0.624l-3.23,-4.659c0.096,-0.066 0.188,-0.139 0.274,-0.216" style="fill:#019ad9;fill-rule:nonzero;"/><path d="M353.109,275.885l3.231,4.659c-0.327,0.226 -0.67,0.432 -1.029,0.613l-2.554,-5.06c0.123,-0.062 0.241,-0.133 0.352,-0.212" style="fill:#019ad9;fill-rule:nonzero;"/><path d="M352.756,276.097l2.554,5.059c-0.474,0.24 -0.976,0.437 -1.501,0.586l-1.567,-5.443c0.18,-0.051 0.351,-0.119 0.514,-0.202" style="fill:#019ad9;fill-rule:nonzero;"/><path d="M352.243,276.299l1.567,5.443c-0.749,0.213 -1.546,0.328 -2.376,0.328l0,-5.663c0.282,0.003 0.553,-0.035 0.809,-0.108" style="fill:#019ad9;fill-rule:nonzero;"/></g></g></g></g></g><g><g><path d="M463.975,257.8l5.312,-1.961c3.58,9.707 12.829,16.141 23.16,16.141l0,5.661c-12.698,0.002 -24.073,-7.912 -28.472,-19.841" style="fill:#019ad9;fill-rule:nonzero;"/><g><clipPath id="_clip3"><path d="M463.976,257.799l5.311,-1.96c3.579,9.707 12.828,16.141 23.161,16.141l-0,5.662c-12.699,0.002 -24.075,-7.913 -28.472,-19.843Z" clip-rule="nonzero"/></clipPath><g clip-path="url(#_clip3)"><g><path d="M463.975,257.8l5.312,-1.961c0.09,0.243 0.183,0.485 0.279,0.723l-5.247,2.126c-0.119,-0.293 -0.233,-0.589 -0.344,-0.888" style="fill:#019ad9;fill-rule:nonzero;"/><path d="M464.319,258.689l5.248,-2.127c2.023,5.001 5.572,9.08 9.986,11.784l-2.957,4.828c-5.427,-3.324 -9.791,-8.34 -12.277,-14.485" style="fill:#019ad9;fill-rule:nonzero;"/><path d="M476.596,273.174l2.957,-4.828c0.987,0.605 2.017,1.14 3.083,1.602l-2.249,5.196c-1.311,-0.568 -2.577,-1.227 -3.791,-1.97" style="fill:#019ad9;fill-rule:nonzero;"/><path d="M480.387,275.144l2.249,-5.196c0.846,0.367 1.715,0.687 2.602,0.958l-1.652,5.416c-1.091,-0.333 -2.159,-0.727 -3.199,-1.178" style="fill:#019ad9;fill-rule:nonzero;"/><path d="M483.586,276.321l1.652,-5.416c0.77,0.235 1.553,0.433 2.348,0.592l-1.115,5.553c-0.977,-0.196 -1.939,-0.441 -2.885,-0.729" style="fill:#019ad9;fill-rule:nonzero;"/><path d="M486.471,277.049l1.115,-5.552c0.723,0.146 1.458,0.259 2.2,0.339l-0.609,5.63c-0.913,-0.098 -1.815,-0.238 -2.706,-0.417" style="fill:#019ad9;fill-rule:nonzero;"/></g></g></g></g></g><path d="M247.236,229.933l11.456,-5.662l85.66,-0l-4.099,5.662l-93.017,-0Z" style="fill:#019ad9;fill-rule:nonzero;"/><path d="M340.253,229.933l4.099,-5.662l15.274,46.473l-5.379,1.768l-13.994,-42.579Z" style="fill:#019ad9;fill-rule:nonzero;"/><path d="M408.2,326.307l-5.337,1.891l-70.931,-199.728l1.841,-11.731l74.427,209.568Z" style="fill:#019ad9;fill-rule:nonzero;"/><path d="M333.773,116.738l-1.842,11.732l-73.239,95.801l-11.456,5.661l86.537,-113.194Z" style="fill:#019ad9;fill-rule:nonzero;"/><path d="M388.659,53.774l5.312,-1.956l75.316,204.02l-5.311,1.961l-75.317,-204.025Z" style="fill:#019ad9;fill-rule:nonzero;"/><path d="M69.082,336.906l-11.762,5.662l236.112,-295.885l4.425,3.532l-228.775,286.691Z" style="fill:#019ad9;fill-rule:nonzero;"/><rect x="308.847" y="39.257" width="67.111" height="5.662" style="fill:#019ad9;"/><g><g><path d="M375.958,44.918l0,-5.661c8.038,-0 15.237,5.018 18.013,12.56l-5.312,1.957c-1.959,-5.317 -7.032,-8.856 -12.701,-8.856" style="fill:#019ad9;fill-rule:nonzero;"/><g><clipPath id="_clip4"><path d="M375.958,44.919l0,-5.662c8.04,-0 15.237,5.018 18.013,12.56l-5.312,1.957c-1.959,-5.316 -7.032,-8.855 -12.701,-8.855Z" clip-rule="nonzero"/></clipPath><g clip-path="url(#_clip4)"><g><path d="M375.958,44.918l0,-5.661c0.141,-0 0.283,0.001 0.424,0.003l-0.125,5.662c-0.099,-0.002 -0.199,-0.004 -0.299,-0.004" style="fill:#019ad9;fill-rule:nonzero;"/><path d="M376.257,44.922l0.125,-5.661c0.552,0.013 1.099,0.048 1.642,0.106l-0.61,5.63c-0.381,-0.041 -0.768,-0.067 -1.157,-0.075" style="fill:#019ad9;fill-rule:nonzero;"/><path d="M377.414,44.997l0.61,-5.629c0.576,0.062 1.147,0.15 1.71,0.263l-1.114,5.552c-0.397,-0.08 -0.8,-0.142 -1.206,-0.186" style="fill:#019ad9;fill-rule:nonzero;"/><path d="M378.62,45.183l1.114,-5.553c0.617,0.124 1.226,0.279 1.825,0.461l-1.653,5.416c-0.42,-0.129 -0.851,-0.237 -1.286,-0.324" style="fill:#019ad9;fill-rule:nonzero;"/><path d="M379.907,45.507l1.651,-5.416c0.69,0.212 1.366,0.46 2.025,0.746l-2.249,5.196c-0.464,-0.201 -0.941,-0.377 -1.427,-0.526" style="fill:#019ad9;fill-rule:nonzero;"/><path d="M381.334,46.033l2.249,-5.196c0.829,0.358 1.631,0.775 2.399,1.246l-2.957,4.829c-0.541,-0.332 -1.106,-0.626 -1.691,-0.879" style="fill:#019ad9;fill-rule:nonzero;"/><path d="M383.025,46.911l2.957,-4.828c3.436,2.105 6.198,5.28 7.771,9.166l-5.25,2.124c-1.107,-2.739 -3.055,-4.977 -5.478,-6.462" style="fill:#019ad9;fill-rule:nonzero;"/><path d="M388.504,53.373l5.248,-2.124c0.077,0.187 0.15,0.377 0.22,0.568l-5.314,1.957c-0.048,-0.135 -0.101,-0.268 -0.154,-0.401" style="fill:#019ad9;fill-rule:nonzero;"/></g></g></g></g></g><path d="M472.884,302.993c-22.413,20.965 -41.011,33.913 -41.011,33.913l-8.665,0c-6.753,-0.001 -12.749,-4.234 -15.008,-10.599l-74.427,-209.568l-86.536,113.193l93.016,0l13.994,42.579c0.641,1.893 -0.822,3.915 -2.812,3.897l-139.722,-0l-46.256,60.498l-96.375,0l228.776,-286.691c2.672,-3.345 6.716,-5.297 10.988,-5.297l67.113,-0c5.668,0.001 10.742,3.539 12.7,8.855l75.316,204.027c4.398,11.93 15.774,19.843 28.472,19.842l5.028,-0" style="fill:#019ad9;fill-rule:nonzero;"/><g><g><path d="M297.858,50.215l-4.425,-3.532c3.745,-4.689 9.414,-7.426 15.414,-7.426l-0,5.661c-4.272,0 -8.317,1.953 -10.989,5.297" style="fill:#019ad9;fill-rule:nonzero;"/><g><clipPath id="_clip5"><path d="M297.858,50.215l-4.426,-3.531c3.747,-4.689 9.414,-7.427 15.415,-7.427l0,5.662c-4.273,-0.002 -8.318,1.952 -10.989,5.296Z" clip-rule="nonzero"/></clipPath><g clip-path="url(#_clip5)"><g><path d="M297.858,50.215l-4.425,-3.532c0.423,-0.53 0.87,-1.034 1.341,-1.513l4.041,3.966c-0.336,0.341 -0.656,0.701 -0.957,1.079" style="fill:#019ad9;fill-rule:nonzero;"/><path d="M298.814,49.136l-4.041,-3.966c0.542,-0.553 1.115,-1.071 1.714,-1.552l3.549,4.41c-0.427,0.344 -0.835,0.714 -1.222,1.108" style="fill:#019ad9;fill-rule:nonzero;"/><path d="M300.036,48.028l-3.549,-4.41c0.531,-0.428 1.082,-0.826 1.652,-1.195l3.075,4.753c-0.406,0.263 -0.799,0.547 -1.178,0.852" style="fill:#019ad9;fill-rule:nonzero;"/><path d="M301.215,47.176l-3.076,-4.753c0.523,-0.338 1.06,-0.652 1.612,-0.939l2.614,5.022c-0.394,0.206 -0.777,0.43 -1.15,0.67" style="fill:#019ad9;fill-rule:nonzero;"/><path d="M302.364,46.507l-2.613,-5.022c0.517,-0.27 1.046,-0.517 1.586,-0.739l2.159,5.234c-0.385,0.159 -0.762,0.335 -1.132,0.527" style="fill:#019ad9;fill-rule:nonzero;"/><path d="M303.496,45.98l-2.158,-5.235c0.514,-0.213 1.039,-0.403 1.572,-0.571l1.707,5.398c-0.38,0.12 -0.754,0.256 -1.121,0.408" style="fill:#019ad9;fill-rule:nonzero;"/><path d="M304.617,45.572l-1.707,-5.399c0.515,-0.163 1.038,-0.305 1.568,-0.426l1.256,5.521c-0.377,0.086 -0.75,0.187 -1.117,0.304" style="fill:#019ad9;fill-rule:nonzero;"/><path d="M305.734,45.268l-1.257,-5.52c0.52,-0.118 1.045,-0.217 1.575,-0.292l0.805,5.604c-0.378,0.055 -0.753,0.124 -1.123,0.208" style="fill:#019ad9;fill-rule:nonzero;"/><path d="M306.856,45.06l-0.804,-5.604c0.527,-0.075 1.059,-0.13 1.594,-0.163l0.345,5.652c-0.38,0.023 -0.759,0.062 -1.135,0.115" style="fill:#019ad9;fill-rule:nonzero;"/><path d="M307.992,44.944l-0.346,-5.652c0.398,-0.024 0.799,-0.036 1.2,-0.036l0,5.663c-0.285,-0 -0.571,0.008 -0.854,0.025" style="fill:#019ad9;fill-rule:nonzero;"/></g></g></g></g></g></g></g></svg>