<svg xmlns="http://www.w3.org/2000/svg" xmlns:xlink="http://www.w3.org/1999/xlink" xmlns:inkscape="http://www.inkscape.org/namespaces/inkscape" version="1.1" width="1080" height="1080" viewBox="0 0 1080 1080">
<defs>
<path id="font_1_4" d="M.6859894 0C.84599307 0 .9069977 .068984989 .9069977 .1700592V.25715638C.9069977 .3582306 .84599307 .42723084 .6859894 .42723084H.27198792C.21199036 .42723084 .18399048 .45021058 .18399048 .4921875V.535141C.18399048 .5771179 .21199036 .60009768 .27198792 .60009768H.8679962V.70410159H.27198792C.11199951 .70410159 .050994874 .6351013 .050994874 .53414919V.49317933C.050994874 .39222718 .11199951 .3232422 .27198792 .3232422H.6859894C.74598696 .3232422 .7739868 .30021668 .7739868 .25816346V.16906739C.7739868 .12701416 .74598696 .10398865 .6859894 .10398865H.07398987V0H.6859894Z"/>
<path id="font_1_9" d="M.20298767 0V.70410159H.069992069V0H.20298767Z"/>
<path id="font_1_11" d="M1.1369934 0V.70410159H1.022995L.6069946 .12901306 .18899536 .70410159H.06498718V0H.18798828V.49206544L.5469971 0H.6559906L1.0139923 .4930725V0H1.1369934Z"/>
<path id="font_1_3" d="M.8759918 0 .70999148 .31596376C.83499148 .32795716 .8839874 .3929596 .8839874 .4840088V.53404238C.8839874 .6351013 .82299807 .70410159 .6629944 .70410159H.06498718V0H.19799805V.31396485H.56900027L.73399356 0H.8759918M.7509918 .4830017C.7509918 .440979 .72299197 .41796876 .6629944 .41796876H.19799805V.60009768H.6629944C.72299197 .60009768 .7509918 .57707217 .7509918 .53504946V.4830017Z"/>
<path id="font_1_5" d="M1.0299988 0 .5649872 .70410159H.46798707L0 0H.147995L.5169983 .56707766 .8799896 0H1.0299988Z"/>
<path id="font_1_6" d="M.84799197 0V.10398865H.2809906C.22099304 .10398865 .19299317 .1269989 .19299317 .16900635V.53507998C.19299317 .5770874 .22099304 .60009768 .2809906 .60009768H.84799197V.70410159H.2809906C.12098694 .70410159 .05999756 .6351013 .05999756 .53408816V.17001343C.05999756 .068984989 .12098694 0 .2809906 0H.84799197Z"/>
<path id="font_1_12" d="M.996994 0V.70410159H.8809967V.18101502L.17999268 .70410159H.06498718V0H.18099976V.54808047L.9319916 0H.996994Z"/>
<path id="font_1_8" d="M.621994 0C.78900149 0 .8730011 .049987794 .8730011 .15000916V.38404847H.73999026V.15000916C.73999026 .119003299 .70098879 .10398865 .621994 .10398865H.31098939C.23199463 .10398865 .19299317 .11999512 .19299317 .15200806V.5520935C.19299317 .5840912 .23199463 .60009768 .31098939 .60009768H.8619995V.70410159H.31098939C.14399719 .70410159 .05999756 .65309146 .05999756 .5520935V.15200806C.05999756 .050994874 .14399719 0 .31098939 0H.621994Z"/>
<path id="font_1_2" d="M1.0299988 0 .5649872 .70410159H.46798707L0 0H.147995L.5169983 .56707766 .8799896 0H1.0299988Z"/>
<path id="font_1_10" d="M.769989 0V.10398865H.19898987V.70410159H.06498718V0H.769989Z"/>
<path id="font_1_13" d="M.8759918 0 .70999148 .31596376C.83499148 .32795716 .8839874 .3929596 .8839874 .4840088V.53404238C.8839874 .6351013 .82299807 .70410159 .6629944 .70410159H.06498718V0H.19799805V.31396485H.56900027L.73399356 0H.8759918M.7509918 .4830017C.7509918 .440979 .72299197 .41796876 .6629944 .41796876H.19799805V.60009768H.6629944C.72299197 .60009768 .7509918 .57707217 .7509918 .53504946V.4830017Z"/>
<path id="font_1_14" d="M.5649872 0 1.0299988 .70410159H.8829956L.5189972 .13700867 .15098572 .70410159H0L.46798707 0H.5649872Z"/>
<path id="font_1_7" d="M.78900149 0V.10398865H.19799805V.31982423H.7589874V.42382813H.19799805V.60009768H.78900149V.70410159H.06498718V0H.78900149Z"/>
<path id="font_1_1" d=""/>
<clipPath id="clip_2">
<path transform="matrix(1,0,0,-1,0,1080)" d="M0 1080H1080V0H0Z"/>
</clipPath>
</defs>
<g inkscape:groupmode="layer" inkscape:label="Layer 1">
<path transform="matrix(1,0,0,-1,0,1080)" d="M0 0H1080V1080H0Z" fill="#019ad9"/>
<use data-text="S" xlink:href="#font_1_4" transform="matrix(56.5668,0,0,-56.5668,529.6104,703.25588)" fill="#ffffff"/>
<use data-text="i" xlink:href="#font_1_9" transform="matrix(53.8952,0,0,-53.8952,583.4048,703.25588)" fill="#ffffff"/>
<use data-text="m" xlink:href="#font_1_11" transform="matrix(53.8952,0,0,-53.8952,598.11819,703.25588)" fill="#ffffff"/>
<use data-text="R" xlink:href="#font_1_3" transform="matrix(53.8952,0,0,-53.8952,662.9002,703.25588)" fill="#ffffff"/>
<use data-text="a" xlink:href="#font_1_5" transform="matrix(53.8952,0,0,-53.8952,712.8072,703.25588)" fill="#ffffff"/>
<use data-text="c" xlink:href="#font_1_6" transform="matrix(53.8952,0,0,-53.8952,768.3193,703.25588)" fill="#ffffff"/>
<use data-text="i" xlink:href="#font_1_9" transform="matrix(53.8952,0,0,-53.8952,816.5555,703.25588)" fill="#ffffff"/>
<use data-text="n" xlink:href="#font_1_12" transform="matrix(53.8952,0,0,-53.8952,831.26889,703.25588)" fill="#ffffff"/>
<use data-text="g" xlink:href="#font_1_8" transform="matrix(53.8952,0,0,-53.8952,888.50558,703.25588)" fill="#ffffff"/>
<use data-text="A" xlink:href="#font_1_2" transform="matrix(53.8952,0,0,-53.8952,141.30246,703.25588)" fill="#ffffff"/>
<use data-text="l" xlink:href="#font_1_10" transform="matrix(53.8952,0,0,-53.8952,196.81452,703.25588)" fill="#ffffff"/>
<use data-text="g" xlink:href="#font_1_8" transform="matrix(53.8952,0,0,-53.8952,238.79888,703.25588)" fill="#ffffff"/>
<use data-text="a" xlink:href="#font_1_5" transform="matrix(53.8952,0,0,-53.8952,287.089,703.25588)" fill="#ffffff"/>
<use data-text="r" xlink:href="#font_1_13" transform="matrix(53.8952,0,0,-53.8952,342.60105,703.25588)" fill="#ffffff"/>
<use data-text="v" xlink:href="#font_1_14" transform="matrix(53.8952,0,0,-53.8952,390.4061,703.25588)" fill="#ffffff"/>
<use data-text="e" xlink:href="#font_1_7" transform="matrix(53.8952,0,0,-53.8952,445.91816,703.25588)" fill="#ffffff"/>
<use data-text=" " xlink:href="#font_1_1" transform="matrix(53.8952,0,0,-53.8952,491.02845,703.25588)" fill="#ffffff"/>
<g clip-path="url(#clip_2)">
<path transform="matrix(1,0,0,-1,625.6763,608.01419)" d="M0 0C-.001 0-.002 0-.004 0 .175-.003 .383-.006 .619-.006 .385-.006 .178-.003 0 0M-.499 .012C-.5 .012-.501 .012-.502 .012-.453 .01-.39 .009-.329 .008-.39 .009-.45 .01-.499 .012M-.758 .014C-.759 .014-.76 .014-.762 .014-.748 .015-.749 .017-.727 .017-.748 .017-.745 .015-.758 .014M-183.39-4.647H-.951-.95C-.95-4.647-.95-4.647-.95-4.647-.95-4.647-.949-4.647-.948-4.647-.947-4.647-.946-4.647-.945-4.647-.937-4.647-.903-4.648-.883-4.649-.865-4.649-.861-4.649-.831-4.65-.785-4.651-.714-4.652-.639-4.653-.598-4.654-.572-4.655-.523-4.655-.432-4.657-.312-4.658-.192-4.659-.138-4.659-.099-4.66-.04-4.661 .151-4.662 .369-4.663 .619-4.663 .89-4.663 1.199-4.661 1.533-4.659 1.636-4.658 1.752-4.656 1.86-4.655 2.107-4.652 2.359-4.648 2.635-4.643 2.782-4.641 2.939-4.637 3.095-4.634 3.361-4.628 3.632-4.622 3.919-4.614 4.101-4.609 4.286-4.603 4.476-4.597 4.764-4.588 5.061-4.577 5.369-4.566 5.576-4.558 5.781-4.55 5.997-4.541 6.327-4.527 6.671-4.51 7.02-4.493 7.23-4.483 7.434-4.473 7.65-4.462 8.058-4.44 8.482-4.414 8.912-4.387 9.091-4.376 9.261-4.367 9.444-4.355 10.06-4.315 10.695-4.269 11.35-4.218 11.46-4.209 11.577-4.198 11.688-4.189 12.234-4.145 12.788-4.098 13.357-4.045 13.594-4.023 13.838-3.998 14.079-3.975 14.537-3.93 14.997-3.884 15.468-3.834 15.748-3.804 16.031-3.771 16.315-3.739 16.766-3.688 17.219-3.635 17.679-3.578 17.977-3.542 18.276-3.504 18.578-3.465 19.044-3.404 19.514-3.34 19.988-3.273 20.289-3.231 20.588-3.189 20.892-3.144 21.396-3.07 21.904-2.99 22.415-2.908 22.695-2.863 22.972-2.821 23.254-2.773 23.881-2.669 24.513-2.556 25.149-2.44 25.319-2.408 25.486-2.381 25.657-2.349 26.46-2.198 27.269-2.036 28.081-1.865 28.297-1.819 28.514-1.768 28.731-1.721 29.326-1.592 29.922-1.46 30.52-1.319 30.821-1.248 31.121-1.172 31.422-1.098 31.941-.97 32.459-.84 32.978-.703 33.115-.667 33.253-.636 33.39-.599 33.531-.561 33.671-.516 33.812-.477 34.621-.256 35.427-.023 36.231 .222 36.415 .278 36.6 .33 36.783 .388 37.734 .685 38.678 1.001 39.615 1.334 39.84 1.414 40.062 1.499 40.286 1.581 41.049 1.861 41.805 2.154 42.553 2.459 42.777 2.55 43.003 2.639 43.226 2.733 44.136 3.116 45.034 3.517 45.916 3.941 45.961 3.963 46.009 3.982 46.055 4.004 46.164 4.057 46.266 4.118 46.374 4.172 47.168 4.563 47.946 4.973 48.71 5.399 48.917 5.515 49.125 5.628 49.329 5.746 50.193 6.245 51.036 6.766 51.852 7.314 51.896 7.343 51.943 7.368 51.986 7.397 52.224 7.558 52.447 7.731 52.68 7.897 53.003 8.125 53.328 8.352 53.642 8.589 53.922 8.801 54.189 9.022 54.461 9.241 54.765 9.484 55.071 9.726 55.365 9.979 55.425 10.03 55.489 10.077 55.548 10.128 55.927 10.458 56.292 10.799 56.653 11.144 56.709 11.198 56.769 11.248 56.825 11.302 57.256 11.72 57.674 12.149 58.077 12.589 58.111 12.626 58.14 12.667 58.174 12.704 58.696 13.28 59.199 13.872 59.67 14.487 59.702 14.514 59.755 14.558 59.817 14.61 59.837 14.627 59.853 14.641 59.876 14.661 59.953 14.726 60.042 14.802 60.153 14.898 60.156 14.902 60.161 14.906 60.165 14.909 60.241 14.975 60.323 15.047 60.414 15.128 60.443 15.153 60.478 15.186 60.509 15.213 60.552 15.251 60.594 15.29 60.64 15.331 60.755 15.434 60.878 15.547 61.01 15.668 61.052 15.706 61.088 15.739 61.131 15.779 61.305 15.94 61.491 16.116 61.691 16.306 61.735 16.349 61.783 16.396 61.829 16.44 61.99 16.595 62.158 16.758 62.333 16.931 62.403 17 62.473 17.069 62.545 17.141 62.734 17.329 62.93 17.527 63.134 17.735 63.182 17.785 63.228 17.831 63.277 17.882 63.53 18.141 63.792 18.417 64.064 18.706 64.129 18.775 64.196 18.848 64.261 18.919 64.395 19.062 64.527 19.202 64.664 19.352 64.721 19.415 64.784 19.487 64.842 19.55 65.042 19.771 65.248 20.002 65.457 20.238 65.604 20.403 65.749 20.566 65.899 20.739 66.123 20.996 66.353 21.267 66.583 21.54 66.728 21.711 66.869 21.875 67.015 22.051 67.288 22.379 67.568 22.725 67.849 23.075 67.96 23.213 68.068 23.343 68.181 23.485 68.576 23.983 68.978 24.502 69.385 25.042 69.393 25.052 69.401 25.062 69.409 25.072 69.765 25.545 70.126 26.035 70.489 26.54 70.585 26.673 70.682 26.815 70.779 26.951 71.056 27.341 71.333 27.734 71.613 28.142 71.752 28.344 71.89 28.555 72.029 28.761 72.269 29.118 72.508 29.475 72.749 29.845 72.902 30.081 73.055 30.323 73.209 30.564 73.36 30.802 73.511 31.031 73.662 31.273 73.749 31.413 73.836 31.56 73.922 31.701 74.04 31.892 74.157 32.085 74.274 32.279 74.541 32.72 74.806 33.169 75.071 33.626 75.172 33.8 75.273 33.971 75.374 34.147 75.733 34.776 76.09 35.417 76.445 36.075 76.495 36.169 76.545 36.267 76.595 36.362 76.833 36.808 77.071 37.256 77.306 37.716 77.348 37.797 77.387 37.887 77.429 37.969 77.901 38.9 78.367 39.853 78.824 40.839 78.892 40.986 78.957 41.14 79.024 41.289 79.413 42.142 79.794 43.017 80.168 43.911 80.231 44.063 80.299 44.203 80.362 44.356 80.433 44.528 80.498 44.713 80.568 44.886 80.85 45.586 81.126 46.299 81.397 47.022 81.518 47.346 81.641 47.665 81.76 47.993 82.132 49.024 82.495 50.071 82.84 51.149 82.845 51.165 82.851 51.179 82.856 51.194 82.856 51.196 82.857 51.198 82.857 51.199 83.195 52.256 83.515 53.342 83.823 54.444 83.92 54.792 84.009 55.149 84.103 55.5 84.309 56.274 84.509 57.055 84.699 57.85 84.743 58.037 84.795 58.213 84.838 58.401 84.895 58.643 84.94 58.898 84.994 59.142 85.159 59.88 85.316 60.628 85.466 61.384 85.554 61.831 85.642 62.278 85.725 62.732 85.873 63.539 86.007 64.36 86.136 65.187 86.184 65.498 86.244 65.796 86.29 66.109 86.306 66.217 86.316 66.33 86.331 66.438 86.444 67.232 86.54 68.043 86.635 68.855 86.683 69.262 86.739 69.662 86.781 70.074 86.91 71.306 87.02 72.556 87.104 73.83 87.117 74.03 87.13 74.23 87.142 74.429 87.197 75.341 87.236 76.23 87.266 77.11 87.274 77.316 87.279 77.519 87.284 77.723 87.313 78.733 87.331 79.729 87.328 80.697 87.328 80.714 87.329 80.731 87.329 80.747 87.326 81.428 87.317 82.098 87.299 82.758 87.294 82.937 87.279 83.101 87.273 83.278 87.248 84.051 87.208 84.804 87.162 85.55 87.139 85.923 87.122 86.304 87.094 86.671 87.019 87.643 86.927 88.59 86.819 89.515 86.806 89.619 86.8 89.731 86.788 89.835 86.786 89.846 86.784 89.856 86.783 89.868 86.655 90.911 86.503 91.919 86.334 92.903 86.282 93.208 86.22 93.499 86.164 93.798 86.038 94.47 85.907 95.134 85.762 95.779 85.734 95.906 85.712 96.044 85.683 96.17 85.564 96.682 85.438 97.184 85.308 97.68 85.3 97.712 85.292 97.746 85.284 97.778 85.095 98.492 84.891 99.182 84.68 99.861 84.627 100.031 84.573 100.199 84.519 100.367 84.311 101.01 84.096 101.642 83.869 102.254 83.858 102.283 83.848 102.314 83.838 102.342 83.835 102.35 83.832 102.358 83.829 102.366 83.772 102.518 83.708 102.658 83.651 102.807 83.43 103.379 83.206 103.947 82.969 104.493 82.858 104.749 82.737 104.991 82.623 105.242 82.427 105.671 82.232 106.102 82.026 106.515 81.891 106.785 81.748 107.042 81.609 107.305 81.412 107.68 81.217 108.058 81.012 108.419 80.86 108.686 80.702 108.941 80.547 109.201 80.344 109.539 80.143 109.88 79.934 110.207 79.896 110.265 79.862 110.328 79.825 110.385 79.726 110.539 79.619 110.678 79.519 110.828 79.242 111.243 78.963 111.652 78.676 112.047 78.519 112.265 78.359 112.477 78.199 112.688 77.921 113.057 77.638 113.417 77.351 113.77 77.188 113.97 77.025 114.17 76.86 114.365 76.549 114.732 76.232 115.087 75.913 115.436 75.77 115.592 75.629 115.754 75.485 115.906 75.021 116.398 74.55 116.876 74.072 117.333 74.07 117.335 74.067 117.338 74.065 117.34 74.054 117.351 74.043 117.359 74.032 117.37 73.464 117.911 72.885 118.422 72.302 118.919 72.155 119.045 72.008 119.169 71.859 119.292 71.268 119.782 70.672 120.258 70.07 120.707 70.052 120.72 70.034 120.732 70.017 120.745 69.422 121.187 68.823 121.604 68.221 122.01 68.068 122.113 67.916 122.215 67.763 122.316 67.154 122.718 66.544 123.108 65.934 123.476 65.93 123.478 65.927 123.481 65.923 123.483 65.91 123.491 65.897 123.497 65.884 123.505 65.153 123.946 64.423 124.36 63.696 124.759 63.596 124.815 63.496 124.871 63.396 124.926 62.693 125.307 61.997 125.67 61.306 126.019 61.175 126.086 61.046 126.151 60.916 126.216 60.235 126.556 59.562 126.885 58.9 127.2 58.783 127.256 58.669 127.309 58.552 127.365 57.883 127.682 57.222 127.991 56.579 128.289 55.596 128.745 54.632 129.195 53.661 129.641 53.647 129.647 53.633 129.654 53.619 129.66 52.65 130.105 51.673 130.545 50.662 130.983 50.65 130.988 50.64 130.993 50.629 130.997 50.612 131.005 50.594 131.012 50.577 131.019 50.268 131.153 49.955 131.286 49.639 131.419 49.577 131.445 49.515 131.471 49.453 131.497 49.129 131.632 48.802 131.767 48.468 131.902 48.431 131.917 48.392 131.932 48.354 131.947 48.035 132.076 47.71 132.205 47.38 132.333 47.333 132.351 47.286 132.37 47.239 132.388 46.896 132.521 46.545 132.654 46.189 132.786 46.119 132.813 46.049 132.839 45.978 132.865 45.62 132.997 45.257 133.129 44.884 133.261 44.826 133.282 44.767 133.302 44.709 133.323 44.34 133.453 43.964 133.583 43.578 133.713 43.547 133.724 43.517 133.734 43.485 133.745 43.086 133.879 42.676 134.013 42.258 134.148 42.178 134.173 42.098 134.199 42.017 134.225 41.604 134.357 41.181 134.488 40.748 134.62 40.72 134.629 40.694 134.637 40.666 134.646 40.619 134.66 40.57 134.674 40.523 134.688 40.091 134.818 39.651 134.949 39.197 135.08 39.174 135.086 39.153 135.093 39.13 135.099 38.664 135.233 38.184 135.367 37.694 135.501 37.603 135.526 37.512 135.551 37.42 135.576 36.938 135.707 36.444 135.838 35.938 135.969 35.849 135.992 35.758 136.015 35.668 136.038 35.157 136.169 34.637 136.301 34.1 136.432 34.073 136.439 34.047 136.446 34.019 136.453 33.466 136.588 32.894 136.724 32.311 136.86 32.204 136.884 32.099 136.909 31.991 136.934 31.417 137.067 30.83 137.2 30.227 137.333 30.121 137.356 30.013 137.38 29.906 137.403 29.301 137.536 28.684 137.668 28.047 137.802 28.012 137.809 27.978 137.816 27.943 137.824 27.291 137.96 26.616 138.097 25.929 138.234 25.851 138.249 25.778 138.265 25.699 138.281 25.638 138.293 25.573 138.305 25.513 138.317 24.866 138.445 24.206 138.573 23.529 138.701 23.418 138.722 23.304 138.744 23.192 138.765 22.576 138.881 21.946 138.997 21.302 139.114 21.168 139.139 21.036 139.163 20.9 139.188 20.184 139.317 19.45 139.447 18.7 139.577 18.539 139.605 18.376 139.633 18.214 139.66 17.493 139.784 16.76 139.909 16.007 140.034 15.935 140.046 15.865 140.057 15.793 140.069 14.991 140.202 14.166 140.335 13.326 140.469 13.131 140.5 12.935 140.531 12.738 140.562 11.889 140.696 11.027 140.83 10.139 140.965 10.058 140.978 9.973 140.99 9.892 141.003 9.056 141.129 8.199 141.257 7.328 141.385 7.128 141.414 6.93 141.443 6.728 141.472 5.799 141.608 4.85 141.744 3.879 141.88 3.702 141.905 3.521 141.93 3.342 141.955 2.452 142.08 1.545 142.205 .62 142.33 .45 142.353 .283 142.376 .112 142.4-.916 142.538-1.968 142.678-3.04 142.818-3.272 142.848-3.508 142.879-3.742 142.909-4.795 143.046-5.863 143.183-6.959 143.321-7.028 143.329-7.094 143.338-7.162 143.347-8.3 143.49-9.469 143.634-10.655 143.778-10.931 143.812-11.207 143.846-11.486 143.879-12.68 144.024-13.893 144.169-15.136 144.315-15.27 144.331-15.409 144.347-15.544 144.363-16.709 144.5-17.898 144.637-19.107 144.775-19.367 144.805-19.625 144.834-19.888 144.864-21.186 145.012-22.509 145.16-23.859 145.309-24.122 145.338-24.39 145.367-24.655 145.397-25.895 145.533-27.155 145.67-28.438 145.808-28.591 145.824-28.734 145.84-28.887 145.857-28.965 145.865-29.046 145.873-29.123 145.881-29.799 145.954-30.488 146.026-31.176 146.099-31.584 146.142-31.985 146.185-32.398 146.228-33.494 146.343-34.603 146.459-35.73 146.575-36.004 146.603-36.29 146.63-36.581 146.657-36.673 146.666-36.767 146.674-36.86 146.682-37.07 146.701-37.284 146.719-37.502 146.737-37.606 146.746-37.71 146.754-37.816 146.763-38.06 146.783-38.31 146.802-38.564 146.821-38.636 146.826-38.707 146.832-38.78 146.837-39.109 146.861-39.447 146.885-39.791 146.909-39.877 146.915-39.967 146.921-40.055 146.927-40.327 146.945-40.602 146.964-40.883 146.982-40.99 146.989-41.097 146.996-41.205 147.003-41.507 147.022-41.812 147.042-42.122 147.061-42.186 147.065-42.25 147.069-42.314 147.073-43.199 147.128-44.12 147.184-45.069 147.242-45.317 147.258-45.568 147.273-45.821 147.289-45.979 147.298-46.138 147.308-46.299 147.318-46.674 147.342-47.053 147.365-47.436 147.39-47.483 147.393-47.529 147.396-47.576 147.399-48 147.426-48.429 147.454-48.862 147.482-48.979 147.49-49.098 147.498-49.216 147.506-49.524 147.527-49.833 147.548-50.144 147.569-50.308 147.581-50.472 147.592-50.636 147.604-50.958 147.627-51.281 147.65-51.606 147.674-51.728 147.683-51.85 147.691-51.972 147.701-52.417 147.734-52.865 147.768-53.316 147.804-53.422 147.812-53.53 147.821-53.636 147.83-53.982 147.857-54.328 147.886-54.676 147.915-54.836 147.929-54.995 147.942-55.155 147.956-55.479 147.984-55.804 148.013-56.129 148.042-56.254 148.054-56.378 148.065-56.503 148.076-57.492 148.168-58.488 148.267-59.487 148.374-59.561 148.382-59.634 148.39-59.708 148.398-60.724 148.509-61.741 148.628-62.757 148.759-62.776 148.761-62.795 148.764-62.813 148.766-63.823 148.896-64.83 149.038-65.831 149.19-65.893 149.2-65.955 149.209-66.017 149.219-67.009 149.371-67.994 149.536-68.968 149.714-69.062 149.731-69.154 149.748-69.247 149.766-69.842 149.876-70.433 149.99-71.018 150.11-71.071 150.121-71.123 150.133-71.176 150.144-71.748 150.263-72.314 150.387-72.875 150.516-72.943 150.532-73.01 150.547-73.078 150.562-73.643 150.694-74.202 150.833-74.754 150.977-74.858 151.003-74.961 151.03-75.065 151.058-75.608 151.202-76.144 151.351-76.673 151.507-76.74 151.527-76.806 151.547-76.874 151.567-77.735 151.825-78.576 152.098-79.391 152.39-79.417 152.399-79.443 152.407-79.469 152.417-80.287 152.711-81.077 153.026-81.839 153.358-81.93 153.398-82.022 153.437-82.112 153.478-82.347 153.583-82.579 153.69-82.808 153.799-82.918 153.851-83.03 153.903-83.139 153.956-83.432 154.1-83.72 154.246-84.002 154.396-84.039 154.416-84.077 154.434-84.113 154.454-84.429 154.623-84.736 154.798-85.037 154.976-85.128 155.03-85.215 155.086-85.305 155.141-85.515 155.269-85.721 155.398-85.923 155.531-86.036 155.604-86.146 155.679-86.256 155.754-86.398 155.852-86.54 155.951-86.678 156.051-86.791 156.132-86.902 156.214-87.012 156.297-87.147 156.399-87.28 156.503-87.41 156.608-87.515 156.692-87.62 156.776-87.722 156.862-87.85 156.97-87.975 157.079-88.098 157.19-88.196 157.277-88.294 157.364-88.388 157.452-88.51 157.567-88.627 157.684-88.744 157.801-88.832 157.889-88.921 157.976-89.006 158.066-89.122 158.189-89.233 158.316-89.344 158.442-89.422 158.53-89.501 158.617-89.576 158.707-89.69 158.843-89.797 158.984-89.904 159.124-89.967 159.207-90.034 159.288-90.095 159.372-90.221 159.546-90.339 159.725-90.454 159.904-90.489 159.958-90.528 160.01-90.561 160.064-90.708 160.3-90.845 160.54-90.973 160.785-90.99 160.818-91.005 160.853-91.021 160.886-91.143 161.124-91.255 161.367-91.359 161.614-91.397 161.705-91.432 161.798-91.467 161.89-91.544 162.088-91.615 162.288-91.68 162.491-91.716 162.603-91.752 162.716-91.784 162.829-91.82 162.957-91.853 163.086-91.885 163.216-91.917 163.349-91.948 163.483-91.976 163.618-92.002 163.75-92.026 163.883-92.048 164.017-92.067 164.13-92.084 164.245-92.099 164.359-92.154 164.768-92.189 165.186-92.2 165.615-92.207 165.86-92.21 166.107-92.201 166.359-92.187 166.805-92.154 167.232-92.12 167.656-92.09 168.027-92.049 168.386-92.004 168.741-91.98 168.936-91.959 169.136-91.931 169.327-91.844 169.909-91.74 170.473-91.616 171.013-91.594 171.11-91.565 171.2-91.542 171.296-91.439 171.713-91.328 172.12-91.205 172.511-91.152 172.68-91.093 172.842-91.036 173.007-90.933 173.307-90.825 173.601-90.71 173.886-90.643 174.053-90.573 174.217-90.501 174.379-90.383 174.647-90.26 174.908-90.132 175.162-90.056 175.312-89.982 175.462-89.904 175.607-89.753 175.885-89.595 176.151-89.433 176.413-89.367 176.52-89.305 176.632-89.237 176.736-88.994 177.109-88.74 177.466-88.477 177.805-88.426 177.871-88.372 177.93-88.32 177.995-88.081 178.292-87.834 178.578-87.581 178.85-87.497 178.941-87.412 179.03-87.327 179.118-86.983 179.471-86.631 179.809-86.268 180.12-86.012 180.339-85.753 180.549-85.49 180.748-85.448 180.779-85.406 180.806-85.365 180.837-85.141 181.003-84.916 181.165-84.688 181.318-84.363 181.535-84.035 181.737-83.704 181.929-83.611 181.983-83.516 182.032-83.422 182.085-83.18 182.22-82.938 182.349-82.694 182.471-82.571 182.533-82.449 182.593-82.326 182.651-82.158 182.731-81.991 182.808-81.824 182.882-81.692 182.94-81.56 182.998-81.428 183.053-81.259 183.123-81.091 183.19-80.923 183.255-80.794 183.305-80.665 183.355-80.537 183.402-80.366 183.465-80.196 183.523-80.026 183.58-79.903 183.622-79.78 183.664-79.658 183.703-79.484 183.759-79.313 183.809-79.142 183.86-79.03 183.892-78.918 183.927-78.808 183.957-78.471 184.051-78.14 184.135-77.816 184.211-77.739 184.228-77.665 184.244-77.588 184.261-77.332 184.318-77.081 184.37-76.835 184.417-76.749 184.433-76.663 184.45-76.578 184.466-76.278 184.52-75.984 184.569-75.705 184.61-75.704 184.61-75.703 184.61-75.703 184.61-75.418 184.651-75.151 184.684-74.893 184.713-74.821 184.721-74.752 184.729-74.682 184.736-74.483 184.757-74.292 184.775-74.113 184.789-74.066 184.793-74.015 184.798-73.969 184.802-73.754 184.818-73.553 184.83-73.371 184.839-73.329 184.841-73.293 184.843-73.252 184.844-73.112 184.851-72.981 184.855-72.865 184.858-72.826 184.859-72.786 184.861-72.75 184.861-72.622 184.864-72.505 184.865-72.417 184.865H179.308L225.087 184.867C227.003 184.867 246.147 184.205 236.744 157.421 236.457 156.605 236.156 155.821 235.847 155.057 235.747 154.809 235.641 154.574 235.539 154.332 235.324 153.824 235.107 153.322 234.883 152.838 234.73 152.508 234.574 152.187 234.417 151.868 234.28 151.589 234.143 151.307 234.003 151.036 233.831 150.705 233.655 150.385 233.479 150.065 233.337 149.807 233.197 149.547 233.052 149.296 232.869 148.98 232.681 148.676 232.493 148.371 232.348 148.136 232.204 147.895 232.057 147.666 231.859 147.361 231.657 147.069 231.455 146.775 231.311 146.565 231.168 146.349 231.022 146.144 230.919 146.002 230.813 145.869 230.709 145.729 230.375 145.278 230.036 144.84 229.691 144.418 229.547 144.242 229.401 144.07 229.255 143.899 228.928 143.515 228.597 143.144 228.261 142.785 228.123 142.638 227.987 142.486 227.847 142.342 227.592 142.079 227.333 141.829 227.073 141.579 226.911 141.424 226.751 141.263 226.588 141.112 226.291 140.839 225.99 140.581 225.689 140.324 225.557 140.213 225.428 140.094 225.296 139.985 225.095 139.819 224.89 139.666 224.686 139.507 224.471 139.34 224.258 139.167 224.042 139.007 223.836 138.856 223.628 138.716 223.421 138.572 223.201 138.418 222.983 138.26 222.762 138.114 222.589 138 222.414 137.895 222.24 137.785 221.989 137.627 221.739 137.465 221.486 137.315 221.299 137.205 221.11 137.103 220.922 136.997 220.679 136.86 220.436 136.721 220.192 136.592 219.986 136.483 219.78 136.383 219.573 136.28 219.34 136.163 219.108 136.044 218.873 135.934 218.665 135.836 218.455 135.746 218.245 135.653 218.013 135.549 217.781 135.444 217.547 135.347 217.299 135.243 217.05 135.148 216.801 135.051 216.591 134.97 216.382 134.885 216.172 134.808 215.918 134.715 215.663 134.631 215.409 134.544 215.205 134.475 215.001 134.402 214.797 134.337 214.309 134.181 213.822 134.034 213.334 133.9 213.333 133.9 213.331 133.899 213.33 133.899 212.839 133.764 212.348 133.641 211.858 133.526 211.737 133.498 211.616 133.474 211.495 133.447 211.057 133.349 210.62 133.257 210.185 133.174 210.017 133.142 209.849 133.111 209.681 133.081 209.256 133.004 208.832 132.934 208.41 132.87 208.291 132.852 208.171 132.832 208.052 132.815 207.355 132.715 206.663 132.633 205.977 132.562 205.856 132.55 205.734 132.537 205.614 132.525 204.943 132.461 204.278 132.408 203.621 132.366 203.522 132.359 203.424 132.354 203.326 132.348 202.427 132.295 201.543 132.259 200.68 132.238 200.601 132.236 200.522 132.233 200.444 132.232 199.534 132.211 198.644 132.203 197.785 132.203 196.797 132.203 195.848 132.212 194.943 132.219 186.225 132.288 171.69 132.312 156.189 132.312 153.577 132.312 150.95 132.311 148.328 132.31 148.135 132.31 147.942 132.31 147.749 132.31 146.996 132.309 146.245 132.309 145.494 132.309 145.333 132.308 145.172 132.308 145.011 132.308 144.271 132.308 143.534 132.307 142.796 132.307 142.582 132.307 142.367 132.306 142.153 132.306 141.309 132.306 140.468 132.305 139.63 132.304 139.594 132.304 139.559 132.304 139.524 132.304 139 132.304 138.477 132.303 137.955 132.303 136.446 132.301 134.948 132.3 133.464 132.298 133.127 132.298 132.792 132.298 132.456 132.297 131.911 132.297 131.368 132.296 130.828 132.295 130.437 132.295 130.047 132.294 129.658 132.294 129.031 132.293 128.408 132.292 127.788 132.291 127.417 132.291 127.05 132.29 126.681 132.29 126.477 132.29 126.271 132.289 126.068 132.289 125.284 132.288 124.507 132.287 123.737 132.286 123.59 132.286 123.446 132.285 123.299 132.285 122.847 132.284 122.393 132.284 121.946 132.283 121.254 132.282 120.57 132.281 119.892 132.28 119.614 132.28 119.339 132.279 119.064 132.279 118.804 132.278 118.547 132.278 118.289 132.277 117.788 132.277 117.286 132.276 116.794 132.275 116.076 132.274 115.37 132.272 114.671 132.271 114.652 132.271 114.632 132.271 114.613 132.271 114.274 132.271 113.937 132.27 113.604 132.269 112.219 132.267 110.873 132.264 109.578 132.262 108.685 132.26 107.823 132.258 106.977 132.257 104.042 132.251 101.406 132.245 99.137 132.24 98.711 132.239 98.301 132.238 97.901 132.237 93.532 132.227 90.77 132.22 90.3 132.219L189.2-4.647H269.606L205.789 81.176C207.285 81.264 235.717 82.936 245.567 85.325 246.204 85.479 246.856 85.633 247.523 85.789 248.167 85.94 248.825 86.094 249.496 86.255 249.53 86.263 249.563 86.271 249.597 86.279 250.263 86.439 250.942 86.606 251.633 86.782 251.669 86.792 251.705 86.801 251.742 86.81 252.429 86.987 253.128 87.174 253.839 87.374 253.864 87.381 253.888 87.387 253.913 87.394 253.929 87.399 253.946 87.404 253.961 87.409 254.724 87.625 255.499 87.858 256.286 88.11 256.322 88.122 256.356 88.133 256.392 88.144 257.189 88.401 257.998 88.679 258.818 88.982 258.844 88.992 258.87 89.001 258.896 89.011 259.731 89.32 260.578 89.656 261.435 90.023 261.447 90.028 261.459 90.032 261.471 90.037 262.339 90.409 263.219 90.813 264.108 91.253 264.112 91.254 264.115 91.255 264.118 91.257 264.132 91.264 264.146 91.272 264.16 91.279 264.625 91.509 265.094 91.751 265.564 92.002 265.621 92.033 265.677 92.061 265.733 92.092 266.194 92.34 266.658 92.6 267.124 92.869 267.206 92.917 267.287 92.963 267.369 93.011 267.829 93.28 268.291 93.56 268.755 93.851 268.837 93.902 268.918 93.954 269 94.006 269.474 94.306 269.949 94.616 270.428 94.941 270.447 94.954 270.466 94.966 270.486 94.979 270.539 95.015 270.593 95.055 270.646 95.092 270.979 95.32 271.314 95.555 271.649 95.795 271.747 95.866 271.846 95.936 271.945 96.008 272.341 96.297 272.739 96.593 273.138 96.9 273.201 96.948 273.264 96.999 273.328 97.048 273.675 97.317 274.023 97.594 274.373 97.877 274.477 97.962 274.581 98.046 274.685 98.132 275.089 98.464 275.494 98.803 275.9 99.155 275.909 99.163 275.918 99.17 275.927 99.178 275.967 99.212 276.007 99.25 276.047 99.285 276.384 99.578 276.721 99.879 277.059 100.187 277.174 100.291 277.288 100.396 277.402 100.502 277.707 100.783 278.013 101.07 278.319 101.363 278.409 101.449 278.498 101.533 278.588 101.62 278.975 101.994 279.362 102.377 279.75 102.771 279.837 102.859 279.925 102.951 280.012 103.041 280.322 103.358 280.632 103.681 280.943 104.011 281.007 104.079 281.07 104.142 281.134 104.21 281.187 104.267 281.24 104.327 281.292 104.384 281.638 104.756 281.984 105.135 282.331 105.523 282.38 105.578 282.429 105.631 282.479 105.687 282.872 106.13 283.266 106.586 283.661 107.05 283.767 107.175 283.873 107.302 283.979 107.428 284.283 107.791 284.588 108.159 284.893 108.535 285.004 108.672 285.115 108.807 285.226 108.946 285.623 109.441 286.021 109.944 286.419 110.461 286.425 110.469 286.43 110.475 286.435 110.482 286.458 110.511 286.48 110.542 286.502 110.571 286.898 111.087 287.294 111.618 287.691 112.158 287.802 112.309 287.913 112.461 288.025 112.614 288.421 113.159 288.818 113.713 289.215 114.283 289.245 114.325 289.274 114.366 289.304 114.409 289.726 115.015 290.149 115.641 290.572 116.276 290.681 116.44 290.791 116.606 290.901 116.773 291.27 117.333 291.639 117.902 292.008 118.484 292.057 118.561 292.106 118.633 292.155 118.71 292.169 118.732 292.182 118.756 292.196 118.778 292.671 119.529 293.146 120.303 293.621 121.092 293.719 121.256 293.818 121.42 293.917 121.585 294.39 122.379 294.864 123.188 295.338 124.02 295.403 124.133 295.467 124.25 295.532 124.364 295.98 125.155 296.429 125.964 296.877 126.791 296.946 126.918 297.015 127.042 297.084 127.17 297.557 128.046 298.029 128.946 298.502 129.862 298.55 129.955 298.598 130.042 298.646 130.135 298.694 130.228 298.742 130.329 298.79 130.422 299.3 131.419 299.809 132.437 300.319 133.481 300.391 133.629 300.463 133.78 300.535 133.928 301.071 135.034 301.607 136.161 302.143 137.322 302.518 138.136 302.88 138.944 303.233 139.748 303.347 140.009 303.455 140.267 303.566 140.526 303.8 141.068 304.031 141.61 304.255 142.148 304.294 142.243 304.337 142.339 304.376 142.433 304.47 142.662 304.556 142.886 304.648 143.114 304.83 143.56 305.009 144.006 305.184 144.449 305.314 144.782 305.441 145.112 305.567 145.443 305.734 145.878 305.899 146.312 306.059 146.744 306.18 147.072 306.3 147.399 306.418 147.726 306.573 148.157 306.725 148.586 306.875 149.014 306.987 149.336 307.098 149.658 307.207 149.979 307.353 150.408 307.494 150.835 307.633 151.261 307.699 151.464 307.771 151.67 307.836 151.872 307.871 151.983 307.903 152.091 307.938 152.201 308.077 152.639 308.21 153.074 308.343 153.508 308.432 153.803 308.524 154.1 308.611 154.393 308.749 154.857 308.879 155.316 309.009 155.776 309.082 156.036 309.159 156.297 309.23 156.556 309.384 157.116 309.53 157.672 309.673 158.226 309.713 158.379 309.756 158.535 309.795 158.688 309.975 159.394 310.146 160.095 310.308 160.791 310.312 160.81 310.317 160.828 310.321 160.847 310.328 160.874 310.332 160.901 310.339 160.929 310.664 162.33 310.954 163.711 311.214 165.071 311.238 165.196 311.26 165.32 311.283 165.445 311.524 166.731 311.737 167.999 311.922 169.248 311.933 169.317 311.948 169.39 311.958 169.46 311.968 169.525 311.973 169.587 311.982 169.652 312.179 171.012 312.347 172.351 312.484 173.665 312.489 173.716 312.495 173.768 312.501 173.82 312.639 175.171 312.745 176.497 312.825 177.798 312.827 177.835 312.832 177.874 312.834 177.912 312.837 177.967 312.837 178.018 312.84 178.073 312.919 179.435 312.969 180.77 312.989 182.075 312.99 182.146 312.993 182.217 312.994 182.287 313.011 183.613 313 184.908 312.964 186.172 312.963 186.213 312.964 186.257 312.963 186.297 312.96 186.4 312.953 186.498 312.95 186.6 312.931 187.169 312.907 187.732 312.878 188.288 312.872 188.409 312.867 188.531 312.86 188.652 312.823 189.301 312.78 189.941 312.731 190.572 312.719 190.725 312.705 190.875 312.693 191.026 312.649 191.548 312.602 192.063 312.551 192.572 312.537 192.708 312.524 192.845 312.51 192.981 312.446 193.587 312.376 194.185 312.302 194.773 312.297 194.811 312.293 194.85 312.288 194.887 312.28 194.953 312.269 195.015 312.261 195.08 312.163 195.827 312.06 196.562 311.947 197.278 311.946 197.281 311.946 197.284 311.945 197.287 311.832 198.006 311.711 198.704 311.584 199.391 311.568 199.479 311.553 199.567 311.537 199.654 311.415 200.304 311.287 200.938 311.156 201.56 311.133 201.669 311.11 201.778 311.086 201.886 310.955 202.494 310.82 203.089 310.68 203.668 310.671 203.708 310.662 203.752 310.652 203.792 310.631 203.878 310.61 203.958 310.589 204.043 310.51 204.365 310.43 204.682 310.349 204.994 310.316 205.123 310.283 205.253 310.25 205.38 310.139 205.799 310.027 206.212 309.914 206.614 309.911 206.626 309.907 206.637 309.904 206.648 309.792 207.046 309.678 207.433 309.564 207.814 309.528 207.933 309.493 208.048 309.457 208.165 309.372 208.443 309.287 208.717 309.201 208.985 309.165 209.1 309.129 209.215 309.092 209.328 308.984 209.662 308.876 209.99 308.768 210.309 308.758 210.336 308.749 210.366 308.739 210.393 308.621 210.74 308.503 211.075 308.386 211.403 308.35 211.502 308.315 211.597 308.28 211.694 308.195 211.929 308.11 212.159 308.025 212.384 307.989 212.481 307.953 212.578 307.917 212.673 307.817 212.935 307.718 213.19 307.62 213.438 307.608 213.469 307.595 213.503 307.583 213.534 307.58 213.54 307.578 213.545 307.576 213.551 307.409 213.969 307.247 214.364 307.088 214.741 307.072 214.779 307.055 214.818 307.039 214.856 306.886 215.217 306.738 215.556 306.593 215.878 306.574 215.922 306.555 215.965 306.535 216.008 306.396 216.317 306.262 216.606 306.134 216.878 306.113 216.923 306.092 216.967 306.071 217.011 305.946 217.272 305.828 217.515 305.716 217.739 305.697 217.778 305.678 217.815 305.659 217.853 305.549 218.072 305.447 218.274 305.352 218.455 305.337 218.483 305.324 218.508 305.31 218.535 305.216 218.714 305.13 218.874 305.055 219.013 305.045 219.03 305.037 219.044 305.028 219.061 304.954 219.197 304.888 219.315 304.835 219.408 304.828 219.421 304.824 219.427 304.818 219.439 304.767 219.528 304.726 219.599 304.7 219.645 304.686 219.685 304.661 219.754 304.63 219.841 304.619 219.87 304.607 219.901 304.594 219.935 304.566 220.011 304.533 220.095 304.494 220.196 304.482 220.225 304.476 220.243 304.464 220.274 304.452 220.302 304.436 220.34 304.424 220.369 304.391 220.448 304.357 220.53 304.319 220.619 304.287 220.694 304.254 220.771 304.217 220.853 304.175 220.949 304.129 221.05 304.08 221.156 304.038 221.247 303.996 221.338 303.949 221.435 303.895 221.548 303.837 221.665 303.777 221.786 303.725 221.891 303.672 221.997 303.614 222.108 303.547 222.237 303.476 222.37 303.402 222.506 303.339 222.624 303.276 222.74 303.208 222.862 303.128 223.005 303.042 223.152 302.955 223.301 302.88 223.43 302.805 223.557 302.725 223.691 302.631 223.846 302.529 224.006 302.427 224.167 302.34 224.306 302.254 224.442 302.161 224.585 302.052 224.751 301.933 224.922 301.815 225.094 301.715 225.24 301.618 225.384 301.512 225.534 301.385 225.712 301.247 225.895 301.111 226.078 300.999 226.229 300.892 226.377 300.773 226.53 300.625 226.723 300.463 226.92 300.304 227.116 300.183 227.266 300.068 227.413 299.941 227.565 299.763 227.777 299.57 227.994 299.379 228.209 299.255 228.35 299.139 228.488 299.01 228.63 298.784 228.878 298.54 229.128 298.298 229.379 298.188 229.492 298.086 229.605 297.973 229.719 297.609 230.084 297.229 230.451 296.829 230.819 296.764 230.879 296.691 230.939 296.625 230.998 296.286 231.306 295.939 231.614 295.573 231.922 295.417 232.053 295.247 232.182 295.086 232.313 294.794 232.55 294.505 232.787 294.197 233.022 294.005 233.169 293.799 233.313 293.601 233.458 293.304 233.677 293.01 233.895 292.698 234.111 292.478 234.263 292.243 234.412 292.016 234.563 291.706 234.769 291.399 234.974 291.074 235.177 291.02 235.21 290.972 235.245 290.917 235.279 290.476 235.552 290.021 235.821 289.552 236.087 289.518 236.106 289.482 236.125 289.448 236.144 288.945 236.428 288.424 236.706 287.889 236.98 287.711 237.072 287.527 237.161 287.346 237.251 286.934 237.455 286.515 237.656 286.084 237.853 285.878 237.948 285.671 238.042 285.46 238.136 285.317 238.199 285.181 238.265 285.036 238.328 284.59 238.52 284.132 238.708 283.666 238.893 283.629 238.907 283.591 238.921 283.554 238.936 282.938 239.178 282.3 239.411 281.649 239.638 281.506 239.688 281.364 239.738 281.218 239.788 280.615 239.992 280.002 240.193 279.369 240.383 279.315 240.399 279.255 240.413 279.201 240.429 278.345 240.684 277.465 240.926 276.554 241.152 276.525 241.159 276.498 241.167 276.469 241.175 275.53 241.406 274.556 241.618 273.556 241.815 273.494 241.827 273.438 241.843 273.376 241.855 273.078 241.913 272.756 241.957 272.453 242.012 271.825 242.125 271.198 242.238 270.547 242.337 270.124 242.401 269.685 242.455 269.252 242.513 268.625 242.597 267.996 242.679 267.347 242.75 267.185 242.767 267.034 242.792 266.87 242.809 266.562 242.84 266.231 242.857 265.917 242.885 265.277 242.943 264.631 242.998 263.97 243.042 263.465 243.076 262.951 243.102 262.434 243.128 261.764 243.161 261.085 243.188 260.394 243.206 260.122 243.214 259.866 243.232 259.591 243.237 259 243.248 258.402 243.254 257.796 243.254H-97.944C-97.976 243.253-98.039 243.253-98.115 243.252-98.139 243.252-98.158 243.251-98.188 243.251-98.279 243.249-98.387 243.247-98.521 243.243-98.534 243.243-98.543 243.243-98.557 243.242-98.7 243.238-98.869 243.232-99.055 243.224-99.101 243.222-99.146 243.22-99.194 243.217-99.367 243.209-99.555 243.2-99.76 243.188-99.792 243.186-99.816 243.185-99.849 243.183-99.856 243.182-99.867 243.182-99.875 243.181-100.124 243.166-100.398 243.147-100.688 243.124-100.759 243.119-100.83 243.113-100.904 243.107-101.208 243.082-101.527 243.055-101.871 243.021-101.879 243.02-101.887 243.02-101.895 243.019-102.24 242.985-102.611 242.944-102.992 242.899-103.082 242.888-103.17 242.878-103.261 242.867-103.653 242.819-104.057 242.767-104.482 242.706-104.496 242.705-104.507 242.703-104.521 242.701-104.581 242.693-104.647 242.682-104.708 242.673-104.985 242.633-105.266 242.59-105.555 242.544-105.681 242.524-105.809 242.503-105.937 242.481-106.19 242.44-106.447 242.395-106.709 242.349-106.849 242.324-106.99 242.299-107.132 242.272-107.411 242.221-107.695 242.166-107.983 242.108-108.106 242.084-108.227 242.061-108.352 242.035-108.765 241.951-109.184 241.861-109.611 241.764-109.619 241.763-109.627 241.761-109.635 241.76-109.648 241.757-109.662 241.753-109.675 241.75-110.428 241.578-111.204 241.388-111.998 241.175-112.039 241.164-112.081 241.152-112.123 241.141-112.897 240.932-113.688 240.703-114.493 240.45-114.515 240.443-114.536 240.438-114.558 240.431-114.606 240.416-114.656 240.397-114.705 240.382-115.38 240.167-116.062 239.939-116.752 239.691-116.781 239.68-116.81 239.671-116.84 239.66-117.531 239.411-118.23 239.139-118.931 238.854-118.997 238.827-119.062 238.805-119.128 238.778-119.165 238.763-119.203 238.744-119.241 238.729-119.849 238.477-120.46 238.21-121.073 237.93-121.2 237.871-121.328 237.81-121.456 237.751-122.075 237.461-122.694 237.16-123.314 236.839-123.328 236.832-123.342 236.826-123.356 236.819-123.36 236.817-123.364 236.815-123.367 236.813-123.951 236.509-124.534 236.186-125.116 235.853-125.259 235.771-125.402 235.688-125.545 235.604-126.13 235.261-126.714 234.908-127.294 234.534-127.295 234.533-127.297 234.532-127.298 234.531-127.725 234.255-128.151 233.97-128.574 233.676-128.915 233.439-129.284 233.178-129.669 232.903-129.712 232.872-129.751 232.844-129.795 232.813-130.166 232.547-130.558 232.26-130.964 231.96-131.031 231.91-131.096 231.862-131.165 231.811-131.569 231.51-131.989 231.192-132.423 230.859-132.5 230.8-132.576 230.74-132.654 230.68-133.095 230.339-133.548 229.982-134.015 229.608-134.046 229.583-134.074 229.562-134.104 229.537-134.138 229.51-134.174 229.479-134.208 229.452-134.772 228.996-135.353 228.518-135.948 228.015-136.019 227.954-136.09 227.893-136.162 227.832-136.756 227.327-137.362 226.799-137.978 226.248-138.053 226.18-138.127 226.114-138.203 226.046-138.828 225.483-139.462 224.896-140.103 224.286-140.17 224.222-140.236 224.161-140.302 224.096-140.966 223.461-141.635 222.801-142.307 222.116-142.338 222.085-142.367 222.057-142.398 222.026-142.412 222.011-142.427 221.995-142.442 221.98-143.041 221.367-143.641 220.732-144.242 220.08-144.306 220.01-144.37 219.942-144.434 219.872-145.023 219.228-145.61 218.563-146.196 217.881-146.271 217.793-146.347 217.707-146.422 217.618-146.998 216.941-147.57 216.244-148.138 215.53-148.219 215.428-148.3 215.327-148.381 215.225-148.942 214.512-149.496 213.781-150.043 213.032-150.09 212.969-150.138 212.91-150.185 212.846-150.219 212.798-150.252 212.746-150.287 212.697-150.864 211.9-151.43 211.081-151.985 210.244-152.059 210.133-152.133 210.022-152.206 209.91-152.76 209.065-153.301 208.199-153.827 207.313-153.895 207.198-153.964 207.084-154.032 206.969-154.556 206.076-155.063 205.162-155.553 204.23-155.615 204.111-155.678 203.994-155.74 203.875-156.228 202.933-156.695 201.97-157.143 200.988-157.176 200.916-157.214 200.848-157.247 200.775-157.283 200.694-157.317 200.61-157.354 200.529-157.478 200.25-157.599 199.968-157.719 199.686-157.837 199.411-157.956 199.137-158.07 198.859-158.187 198.574-158.301 198.285-158.414 197.997-158.525 197.717-158.635 197.437-158.742 197.154-158.852 196.863-158.958 196.568-159.063 196.273-159.166 195.986-159.27 195.7-159.369 195.41-159.471 195.113-159.568 194.812-159.665 194.512-159.76 194.219-159.856 193.927-159.947 193.631-160.04 193.327-160.128 193.019-160.217 192.712-160.303 192.414-160.39 192.118-160.472 191.817-160.557 191.505-160.636 191.19-160.716 190.875-160.793 190.572-160.871 190.269-160.944 189.963-161.019 189.647-161.087 189.328-161.157 189.009-161.225 188.698-161.295 188.388-161.358 188.074-161.423 187.751-161.481 187.425-161.541 187.1-161.599 186.784-161.658 186.469-161.711 186.15-161.766 185.82-161.813 185.487-161.863 185.155-161.91 184.833-161.96 184.513-162.002 184.188-162.046 183.852-162.082 183.513-162.12 183.174-162.157 182.847-162.196 182.521-162.227 182.191-162.259 181.85-162.283 181.504-162.31 181.16-162.335 180.826-162.363 180.494-162.383 180.157-162.404 179.809-162.416 179.457-162.43 179.105-162.444 178.767-162.46 178.43-162.468 178.089-162.476 177.733-162.475 177.373-162.477 177.014-162.479 176.671-162.483 176.33-162.479 175.985-162.474 175.622-162.459 175.255-162.448 174.889-162.437 174.541-162.429 174.195-162.412 173.844-162.394 173.476-162.366 173.103-162.341 172.732-162.317 172.378-162.296 172.025-162.266 171.668-162.234 171.293-162.191 170.913-162.152 170.534-162.114 170.176-162.081 169.819-162.037 169.458-161.99 169.074-161.932 168.686-161.878 168.3-161.827 167.937-161.78 167.576-161.723 167.211-161.661 166.82-161.587 166.425-161.517 166.031-161.452 165.664-161.392 165.299-161.32 164.929-161.243 164.534-161.153 164.133-161.068 163.734-160.988 163.36-160.913 162.988-160.826 162.611-160.733 162.21-160.627 161.804-160.526 161.4-160.43 161.02-160.341 160.642-160.238 160.26-160.127 159.847-160.003 159.429-159.883 159.013-159.774 158.634-159.671 158.257-159.554 157.875-159.426 157.456-159.284 157.031-159.146 156.609-159.021 156.223-158.902 155.839-158.769 155.451-158.624 155.026-158.464 154.597-158.309 154.17-158.168 153.779-158.033 153.389-157.883 152.995-157.718 152.559-157.536 152.117-157.36 151.677-157.204 151.286-157.056 150.898-156.892 150.506-156.706 150.058-156.502 149.605-156.305 149.154-156.135 148.763-155.971 148.374-155.793 147.98-155.587 147.526-155.363 147.067-155.146 146.61-154.958 146.213-154.778 145.819-154.582 145.419-154.353 144.954-154.106 144.484-153.867 144.016-153.664 143.619-153.47 143.225-153.259 142.826-153 142.338-152.722 141.844-152.451 141.352-152.24 140.967-152.038 140.586-151.819 140.2-151.528 139.687-151.217 139.168-150.913 138.651-150.694 138.279-150.485 137.911-150.259 137.537-149.929 136.99-149.577 136.438-149.23 135.887-149.011 135.538-148.803 135.192-148.578 134.841-148.197 134.249-147.794 133.65-147.395 133.053-147.185 132.738-146.986 132.426-146.77 132.11-146.147 131.195-145.503 130.274-144.837 129.347-144.023 128.165-128.553 105.707-71.621 97.125-54.959 94.61-9.106 88.816-6.693 88.511-5.139 88.412 24.398 86.53 21.81 68.423 21.752 68.017 21.665 67.627 21.565 67.244 21.543 67.159 21.521 67.074 21.497 66.99 21.391 66.62 21.269 66.258 21.125 65.908 21.104 65.857 21.08 65.809 21.058 65.758 20.939 65.48 20.803 65.211 20.661 64.946 20.577 64.787 20.488 64.63 20.396 64.476 20.275 64.275 20.147 64.078 20.014 63.884 19.913 63.737 19.811 63.589 19.702 63.446 19.526 63.213 19.342 62.984 19.148 62.762 19.093 62.699 19.041 62.633 18.984 62.57 18.729 62.29 18.459 62.019 18.178 61.757 17.775 61.38 17.344 61.022 16.892 60.68 16.779 60.595 16.661 60.515 16.546 60.432 16.168 60.159 15.776 59.897 15.37 59.646 15.243 59.568 15.119 59.488 14.99 59.412 14.449 59.093 13.889 58.789 13.31 58.505 13.212 58.457 13.11 58.412 13.011 58.365 12.37 58.06 11.712 57.772 11.036 57.505 10.978 57.482 10.922 57.457 10.863 57.435 9.991 57.096 9.095 56.79 8.187 56.511 8.124 56.492 8.063 56.47 8 56.451 7.455 56.286 6.905 56.131 6.354 55.985 6.218 55.949 6.083 55.917 5.947 55.883 5.527 55.775 5.107 55.671 4.686 55.575 4.53 55.539 4.374 55.505 4.218 55.47 3.518 55.315 2.819 55.169 2.129 55.041 2.107 55.037 2.085 55.032 2.063 55.028 1.349 54.895 .646 54.78-.048 54.674-.199 54.65-.351 54.626-.5 54.604-.924 54.542-1.342 54.484-1.754 54.43-1.865 54.415-1.978 54.399-2.088 54.385-2.605 54.32-3.111 54.261-3.603 54.208-3.731 54.194-3.853 54.182-3.979 54.169-4.342 54.132-4.699 54.097-5.044 54.065-5.203 54.051-5.359 54.038-5.514 54.024-5.829 53.998-6.135 53.973-6.432 53.951-6.577 53.94-6.725 53.929-6.865 53.919-9.461 53.743-12.715 53.729-13.063 53.727L-119.146 53.417M-119.146 53.5H-121.971-128.204C-128.475 53.523-128.744 53.56-129.013 53.594-129.37 53.64-129.725 53.694-130.077 53.758-130.285 53.796-130.492 53.836-130.698 53.88-131.153 53.977-131.601 54.092-132.045 54.22-132.194 54.262-132.346 54.297-132.494 54.344-132.602 54.377-132.708 54.416-132.816 54.452-133.153 54.563-133.487 54.683-133.816 54.812-133.948 54.863-134.079 54.915-134.208 54.969-134.479 55.081-134.744 55.204-135.009 55.327-135.207 55.419-135.406 55.51-135.6 55.609-135.851 55.735-136.096 55.872-136.341 56.009-136.526 56.113-136.713 56.213-136.895 56.323-137.097 56.444-137.292 56.576-137.49 56.705-137.732 56.862-137.974 57.018-138.209 57.185-138.401 57.322-138.586 57.467-138.773 57.61-138.999 57.783-139.226 57.956-139.444 58.139-139.627 58.292-139.804 58.452-139.982 58.611-140.192 58.8-140.402 58.989-140.604 59.186-140.777 59.354-140.943 59.528-141.11 59.703-141.305 59.906-141.498 60.112-141.684 60.324-141.844 60.506-141.999 60.693-142.153 60.881-142.331 61.099-142.506 61.32-142.676 61.546-142.823 61.742-142.965 61.941-143.105 62.143-143.267 62.376-143.424 62.611-143.576 62.851-143.708 63.059-143.836 63.27-143.96 63.483-144.104 63.73-144.242 63.98-144.376 64.233-144.492 64.453-144.606 64.675-144.714 64.9-144.84 65.159-144.958 65.424-145.072 65.69-145.215 66.022-145.361 66.352-145.487 66.694L-207.439 234.515C-207.497 234.672-207.557 234.828-207.619 234.982-207.663 235.09-207.716 235.191-207.762 235.298-207.851 235.505-207.943 235.71-208.041 235.912-208.125 236.087-208.213 236.259-208.303 236.43-208.407 236.627-208.514 236.821-208.626 237.012-208.723 237.178-208.823 237.343-208.926 237.505-209.044 237.692-209.166 237.875-209.292 238.055-209.4 238.212-209.51 238.367-209.625 238.519-209.757 238.695-209.893 238.867-210.032 239.037-210.152 239.183-210.272 239.328-210.396 239.47-210.542 239.636-210.692 239.796-210.844 239.955-210.973 240.09-211.102 240.224-211.235 240.354-211.394 240.509-211.557 240.656-211.722 240.804-211.86 240.927-211.997 241.052-212.139 241.17-212.309 241.313-212.486 241.448-212.662 241.583-212.807 241.694-212.951 241.807-213.1 241.913-213.284 242.044-213.473 242.166-213.662 242.288-213.78 242.365-213.892 242.448-214.011 242.522-214.047 242.544-214.086 242.562-214.122 242.584-214.263 242.669-214.409 242.747-214.553 242.828-214.744 242.934-214.934 243.041-215.129 243.14-215.281 243.217-215.435 243.287-215.589 243.359-215.721 243.421-215.85 243.489-215.984 243.547-216.028 243.566-216.076 243.578-216.12 243.597-216.597 243.799-217.084 243.98-217.582 244.135-217.605 244.142-217.626 244.153-217.65 244.16-217.732 244.185-217.819 244.2-217.902 244.224-218.246 244.322-218.593 244.411-218.944 244.487-219.014 244.502-219.081 244.525-219.151 244.539-219.242 244.557-219.336 244.565-219.428 244.581-219.701 244.631-219.976 244.673-220.254 244.708-220.355 244.722-220.455 244.744-220.557 244.755-220.629 244.763-220.702 244.763-220.773 244.769-221.025 244.793-221.278 244.807-221.532 244.818-221.658 244.824-221.781 244.84-221.907 244.843-222.023 244.845-222.14 244.847-222.256 244.847H-277.459C-277.79 244.847-278.119 244.837-278.447 244.817-278.64 244.805-278.83 244.776-279.021 244.758-279.172 244.743-279.323 244.731-279.473 244.712-279.568 244.7-279.664 244.696-279.759 244.683-280.194 244.62-280.626 244.54-281.053 244.443-281.06 244.441-281.067 244.439-281.074 244.437-281.108 244.429-281.141 244.418-281.175 244.41-281.568 244.317-281.959 244.214-282.343 244.092-282.441 244.061-282.535 244.02-282.632 243.987-282.793 243.933-282.95 243.873-283.109 243.814-283.285 243.748-283.464 243.693-283.636 243.622-283.82 243.546-283.996 243.453-284.177 243.37-284.345 243.294-284.513 243.219-284.678 243.137-284.765 243.094-284.856 243.059-284.942 243.014-285.206 242.877-285.458 242.716-285.714 242.564-285.862 242.477-286.014 242.397-286.159 242.305-286.195 242.283-286.233 242.265-286.268 242.242-286.579 242.04-286.873 241.812-287.171 241.589-287.308 241.486-287.452 241.396-287.586 241.289-287.599 241.278-287.614 241.27-287.626 241.259-287.784 241.133-287.924 240.984-288.077 240.852-288.38 240.588-288.687 240.328-288.972 240.04-288.992 240.02-289.016 240.003-289.036 239.982-289.423 239.588-289.791 239.173-290.139 238.737L-484.356-4.647H-393.105L-355.056 45.118H-242.428C-242.105 45.118-241.789 45.142-241.479 45.183-241.377 45.197-241.28 45.221-241.179 45.239-240.975 45.275-240.771 45.313-240.574 45.366-240.542 45.375-240.507 45.378-240.475 45.387-240.306 45.435-240.143 45.494-239.98 45.554-239.942 45.567-239.903 45.577-239.866 45.592-239.652 45.675-239.442 45.766-239.24 45.869-239.222 45.877-239.207 45.89-239.189 45.899-238.918 46.038-238.656 46.193-238.407 46.365-238.403 46.367-238.398 46.37-238.394 46.372-238.302 46.436-238.22 46.51-238.132 46.578-238.006 46.674-237.877 46.767-237.759 46.871-237.753 46.876-237.747 46.88-237.741 46.885-237.555 47.05-237.378 47.223-237.211 47.405-237.208 47.409-237.206 47.412-237.202 47.416-237.178 47.442-237.158 47.471-237.134 47.498-237.01 47.638-236.887 47.78-236.774 47.929-236.756 47.953-236.741 47.979-236.723 48.003-236.679 48.063-236.64 48.125-236.598 48.185-236.535 48.276-236.469 48.363-236.411 48.456-236.375 48.515-236.344 48.577-236.309 48.637-236.27 48.702-236.233 48.768-236.196 48.835-236.168 48.886-236.136 48.936-236.11 48.988-236.043 49.118-235.985 49.252-235.926 49.385-235.91 49.422-235.892 49.456-235.877 49.492-235.872 49.503-235.866 49.514-235.862 49.525-235.788 49.704-235.722 49.886-235.663 50.07-235.652 50.105-235.644 50.141-235.634 50.175-235.616 50.234-235.601 50.294-235.585 50.353-235.56 50.445-235.531 50.535-235.51 50.627-235.487 50.725-235.473 50.825-235.454 50.923-235.443 50.984-235.43 51.043-235.42 51.103-235.415 51.136-235.407 51.167-235.402 51.2-235.374 51.396-235.353 51.595-235.342 51.795-235.341 51.809-235.342 51.823-235.341 51.838-235.339 51.886-235.341 51.936-235.339 51.985-235.334 52.131-235.328 52.277-235.333 52.425-235.335 52.481-235.344 52.538-235.347 52.594-235.352 52.685-235.36 52.776-235.369 52.868-235.377 52.95-235.378 53.031-235.389 53.113-235.399 53.196-235.422 53.279-235.436 53.362-235.456 53.483-235.477 53.603-235.504 53.723-235.517 53.783-235.522 53.842-235.537 53.902-235.581 54.079-235.632 54.257-235.69 54.434L-248.254 92.661H-318.715L-258.471 171.463-200.125 7.174C-197.61 .079-190.914-4.647-183.39-4.647" fill="#ffffff"/>
</g>
</g>
</svg>
