<svg xmlns="http://www.w3.org/2000/svg" xmlns:xlink="http://www.w3.org/1999/xlink" xmlns:inkscape="http://www.inkscape.org/namespaces/inkscape" version="1.1" width="1080" height="1080" viewBox="0 0 1080 1080">
<defs>
<clipPath id="clip_1">
<path transform="matrix(1,0,0,-1,0,1080)" d="M0 1080H1080V0H0Z"/>
</clipPath>
<clipPath id="clip_2">
<path transform="matrix(1,0,0,-1,0,1080)" d="M425.551 479.159C428.067 472.065 434.763 467.339 442.286 467.339V471.997C436.731 471.998 431.799 475.479 429.942 480.715Z"/>
</clipPath>
<clipPath id="clip_3">
<path transform="matrix(1,0,0,-1,0,1080)" d="M0 1080H1080V0H0Z"/>
</clipPath>
<clipPath id="clip_4">
<path transform="matrix(1,0,0,-1,0,1080)" d="M0 1080H1080V0H0Z"/>
</clipPath>
<clipPath id="clip_5">
<path transform="matrix(1,0,0,-1,0,1080)" d="M385.562 524.965C386.088 523.409 384.886 521.746 383.248 521.761V517.103C388.079 517.103 391.495 521.83 389.986 526.42Z"/>
</clipPath>
<clipPath id="clip_6">
<path transform="matrix(1,0,0,-1,0,1080)" d="M0 1080H1080V0H0Z"/>
</clipPath>
<clipPath id="clip_7">
<path transform="matrix(1,0,0,-1,0,1080)" d="M475.82 537.067C479.437 527.253 488.794 520.745 499.24 520.745V525.403C490.741 525.403 483.133 530.695 480.189 538.68Z"/>
</clipPath>
<clipPath id="clip_8">
<path transform="matrix(1,0,0,-1,0,1080)" d="M0 1080H1080V0H0Z"/>
</clipPath>
<clipPath id="clip_9">
<path transform="matrix(1,0,0,-1,0,1080)" d="M403.421 712.175C408.082 712.174 412.257 709.264 413.867 704.891L418.237 706.501C415.953 712.704 410.033 716.832 403.421 716.832Z"/>
</clipPath>
<clipPath id="clip_10">
<path transform="matrix(1,0,0,-1,0,1080)" d="M0 1080H1080V0H0Z"/>
</clipPath>
<clipPath id="clip_11">
<path transform="matrix(1,0,0,-1,0,1080)" d="M335.537 710.723 339.178 707.818C341.375 710.569 344.703 712.175 348.217 712.175V716.832C343.282 716.832 338.619 714.58 335.537 710.723"/>
</clipPath>
<clipPath id="clip_12">
<path transform="matrix(1,0,0,-1,0,1080)" d="M0 1080H1080V0H0Z"/>
</clipPath>
<clipPath id="clip_13">
<path transform="matrix(1,0,0,-1,0,1080)" d="M463.19 467.323H938.68V715.24H463.19Z"/>
</clipPath>
<clipPath id="clip_14">
<path transform="matrix(1,0,0,-1,0,1080)" d="M624.815 470.479H624.858V471.996H624.815Z"/>
</clipPath>
<clipPath id="clip_15">
<path transform="matrix(1,0,0,-1,0,1080)" d="M508.79 520.753H510.113V522.938H508.79Z"/>
</clipPath>
<clipPath id="clip_16">
<path transform="matrix(1,0,0,-1,0,1080)" d="M717.722 599.568H725.07V603.315H717.722Z"/>
</clipPath>
<clipPath id="clip_17">
<path transform="matrix(1,0,0,-1,0,1080)" d="M624.815 470.479H624.858V471.996H624.815Z"/>
</clipPath>
<clipPath id="clip_18">
<path transform="matrix(1,0,0,-1,0,1080)" d="M624.725 467.323H685.346V490.074H624.725Z"/>
</clipPath>
<clipPath id="clip_19">
<path transform="matrix(1,0,0,-1,0,1080)" d="M508.79 520.753H510.113V522.938H508.79Z"/>
</clipPath>
<clipPath id="clip_20">
<path transform="matrix(1,0,0,-1,0,1080)" d="M614.194 521.06H652.236V565.147H614.194Z"/>
</clipPath>
<clipPath id="clip_21">
<path transform="matrix(1,0,0,-1,0,1080)" d="M480.839 560.497H619.279V603.975H480.839Z"/>
</clipPath>
<clipPath id="clip_22">
<path transform="matrix(1,0,0,-1,0,1080)" d="M715.976 599.529H869.495V661.51H715.976Z"/>
</clipPath>
<clipPath id="clip_23">
<path transform="matrix(1,0,0,-1,0,1080)" d="M528.82 486.473H713.006V661.508H528.82Z"/>
</clipPath>
<clipPath id="clip_24">
<path transform="matrix(1,0,0,-1,0,1080)" d="M822.581 553.161H938.68V691.63H822.581Z"/>
</clipPath>
<clipPath id="clip_25">
<path transform="matrix(1,0,0,-1,0,1080)" d="M883.472 690.096H930.376V715.24H883.472Z"/>
</clipPath>
<clipPath id="clip_26">
<path transform="matrix(1,0,0,-1,0,1080)" d="M463.19 601.333H527.764V715.24H463.19Z"/>
</clipPath>
<clipPath id="clip_27">
<path transform="matrix(1,0,0,-1,0,1080)" d="M442.287 467.323H938.68V715.24H442.287Z"/>
</clipPath>
<clipPath id="clip_28">
<path transform="matrix(1,0,0,-1,0,1080)" d="M624.815 470.479H624.858V471.996H624.815Z"/>
</clipPath>
<clipPath id="clip_29">
<path transform="matrix(1,0,0,-1,0,1080)" d="M624.815 470.479C624.829 470.985 624.843 471.49 624.857 471.996 624.857 471.995 624.857 471.995 624.858 471.995Z"/>
</clipPath>
<clipPath id="clip_30">
<path transform="matrix(1,0,0,-1,0,1080)" d="M624.815 470.479H624.858V471.996H624.815Z"/>
</clipPath>
<clipPath id="clip_31">
<path transform="matrix(1,0,0,-1,0,1080)" d="M508.773 520.753H510.113V522.938H508.773Z"/>
</clipPath>
<clipPath id="clip_32">
<path transform="matrix(1,0,0,-1,0,1080)" d="M508.79 522.938C509.335 522.028 509.81 521.266 510.113 520.788 510.113 520.787 510.107 520.776 510.095 520.753Z"/>
</clipPath>
<clipPath id="clip_33">
<path transform="matrix(1,0,0,-1,0,1080)" d="M508.773 520.753H510.113V522.938H508.773Z"/>
</clipPath>
<clipPath id="clip_34">
<path transform="matrix(1,0,0,-1,0,1080)" d="M717.722 599.568H725.07V603.317H717.722Z"/>
</clipPath>
<clipPath id="clip_35">
<path transform="matrix(1,0,0,-1,0,1080)" d="M724.038 599.568C722.635 600.527 720.649 601.82 717.722 603.315 719.926 602.192 722.866 600.695 725.07 599.571 724.369 599.569 724.038 599.568 724.038 599.568"/>
</clipPath>
<clipPath id="clip_36">
<path transform="matrix(1,0,0,-1,0,1080)" d="M717.722 599.568H725.07V603.317H717.722Z"/>
</clipPath>
<clipPath id="clip_37">
<path transform="matrix(1,0,0,-1,0,1080)" d="M624.815 470.479H624.858V471.996H624.815Z"/>
</clipPath>
<clipPath id="clip_38">
<path transform="matrix(1,0,0,-1,0,1080)" d="M624.857 471.996C624.857 471.995 624.857 471.995 624.858 471.995L624.815 470.479C624.829 470.985 624.843 471.49 624.857 471.996"/>
</clipPath>
<clipPath id="clip_39">
<path transform="matrix(1,0,0,-1,0,1080)" d="M624.815 470.479H624.858V471.996H624.815Z"/>
</clipPath>
<clipPath id="clip_40">
<path transform="matrix(1,0,0,-1,0,1080)" d="M624.725 467.323H685.346V490.074H624.725Z"/>
</clipPath>
<clipPath id="clip_41">
<path transform="matrix(1,0,0,-1,0,1080)" d="M624.815 470.479C624.829 470.985 624.843 471.49 624.857 471.996 624.858 472.018 625.354 471.98 626.295 471.98 634.092 471.981 669.454 473.113 682.347 490.074L685.346 486.473C671.451 468.332 634.374 467.323 626.295 467.323 625.284 467.323 624.753 467.338 624.725 467.339Z"/>
</clipPath>
<clipPath id="clip_42">
<path transform="matrix(1,0,0,-1,0,1080)" d="M624.726 467.323H685.346V490.074H624.726Z"/>
</clipPath>
<clipPath id="clip_43">
<path transform="matrix(1,0,0,-1,0,1080)" d="M508.79 520.753H510.113V522.938H508.79Z"/>
</clipPath>
<clipPath id="clip_44">
<path transform="matrix(1,0,0,-1,0,1080)" d="M612.613 521.06H652.236V565.147H612.613Z"/>
</clipPath>
<clipPath id="clip_45">
<path transform="matrix(1,0,0,-1,0,1080)" d="M614.208 521.06 614.194 525.717C615.755 525.726 645.411 525.895 647.486 540.409 650.074 558.516 620.538 560.398 618.983 560.497L619.279 565.147C620.989 565.036 654.66 563.244 652.096 539.749 648.835 520.611 615.904 521.069 614.208 521.06"/>
</clipPath>
<clipPath id="clip_46">
<path transform="matrix(1,0,0,-1,0,1080)" d="M612.613 521.06H652.236V565.147H612.613Z"/>
</clipPath>
<clipPath id="clip_47">
<path transform="matrix(1,0,0,-1,0,1080)" d="M480.839 560.497H619.279V603.975H480.839Z"/>
</clipPath>
<clipPath id="clip_48">
<path transform="matrix(1,0,0,-1,0,1080)" d="M619.279 565.147 618.983 560.497C616.57 560.802 570.717 566.595 554.055 569.11 497.123 577.693 481.653 600.151 480.839 601.333L484.675 603.975C485.289 603.078 499.532 582.179 554.75 573.716 571.34 571.211 617.164 565.429 619.279 565.147"/>
</clipPath>
<clipPath id="clip_49">
<path transform="matrix(1,0,0,-1,0,1080)" d="M480.839 560.497H619.279V603.975H480.839Z"/>
</clipPath>
<clipPath id="clip_50">
<path transform="matrix(1,0,0,-1,0,1080)" d="M715.976 599.529H869.495V661.51H715.976Z"/>
</clipPath>
<clipPath id="clip_51">
<path transform="matrix(1,0,0,-1,0,1080)" d="M724.038 599.568C720.997 601.647 719.107 602.609 715.976 604.204 717.721 604.209 750.859 604.298 781.865 604.298 797.367 604.298 811.901 604.274 820.619 604.204 821.524 604.197 822.474 604.189 823.462 604.189 835.809 604.189 854.047 605.577 862.42 629.406 871.823 656.191 852.679 656.853 850.763 656.853V661.51C853.28 661.511 877.427 659.653 866.814 627.863 857.421 601.067 836.679 599.513 823.462 599.531 822.439 599.522 821.487 599.539 820.583 599.547 811.883 599.617 797.351 599.628 781.865 599.64 753.83 599.637 724.041 599.566 724.038 599.568"/>
</clipPath>
<clipPath id="clip_52">
<path transform="matrix(1,0,0,-1,0,1080)" d="M715.976 599.529H869.495V661.51H715.976Z"/>
</clipPath>
<clipPath id="clip_53">
<path transform="matrix(1,0,0,-1,0,1080)" d="M528.82 486.473H713.006V661.508H528.82Z"/>
</clipPath>
<clipPath id="clip_54">
<path transform="matrix(1,0,0,-1,0,1080)" d="M553.259 661.508V656.851C550.934 656.853 534.074 656.291 533.475 638.345 532.836 619.2 575.066 620.101 589.946 618.561 659.662 611.383 669.209 606.321 682.255 600.275 695.595 594.092 715.337 584.431 712.78 545.816 710.234 507.211 686.591 487.51 685.346 486.473L682.347 490.074C683.446 490.951 705.699 509.469 708.133 546.123 710.382 581.707 692.83 590.225 680.297 596.049 667.722 601.881 658.559 606.782 589.468 613.928 574.737 615.443 529.044 613.815 528.82 638.5 529.658 660.895 550.437 661.512 553.259 661.508"/>
</clipPath>
<clipPath id="clip_55">
<path transform="matrix(1,0,0,-1,0,1080)" d="M528.82 486.473H713.006V661.508H528.82Z"/>
</clipPath>
<clipPath id="clip_56">
<path transform="matrix(1,0,0,-1,0,1080)" d="M822.581 553.161H938.68V691.63H822.581Z"/>
</clipPath>
<clipPath id="clip_57">
<path transform="matrix(1,0,0,-1,0,1080)" d="M925.956 690.096 930.376 691.63C931.362 689.928 950.097 657.584 927.819 609.308 906.767 563.693 885.285 560.706 871.243 557.311 861.393 554.922 832.961 553.249 831.465 553.161L822.581 557.304C832.662 557.908 860.825 559.564 870.147 561.838 883.61 565.092 903.365 567.733 923.59 611.259 944.849 657.49 927.196 687.832 925.956 690.096"/>
</clipPath>
<clipPath id="clip_58">
<path transform="matrix(1,0,0,-1,0,1080)" d="M822.581 553.161H938.68V691.63H822.581Z"/>
</clipPath>
<clipPath id="clip_59">
<path transform="matrix(1,0,0,-1,0,1080)" d="M883.472 690.096H930.376V715.24H883.472Z"/>
</clipPath>
<clipPath id="clip_60">
<path transform="matrix(1,0,0,-1,0,1080)" d="M883.472 710.582V715.24C922.181 715.24 929.966 692.811 930.376 691.63L925.956 690.096C925.69 690.935 919.123 710.389 883.472 710.582"/>
</clipPath>
<clipPath id="clip_61">
<path transform="matrix(1,0,0,-1,0,1080)" d="M883.472 690.096H930.376V715.24H883.472Z"/>
</clipPath>
<clipPath id="clip_62">
<path transform="matrix(1,0,0,-1,0,1080)" d="M463.19 601.333H527.764V715.24H463.19Z"/>
</clipPath>
<clipPath id="clip_63">
<path transform="matrix(1,0,0,-1,0,1080)" d="M484.675 603.975 480.839 601.333C438.399 660.361 484.171 696.671 497.102 705.662 510.714 715.124 526.881 715.234 527.732 715.24L527.764 710.582C527.049 710.578 512.146 710.466 499.761 701.838 487.457 693.273 444.817 659.473 484.675 603.975"/>
</clipPath>
<clipPath id="clip_64">
<path transform="matrix(1,0,0,-1,0,1080)" d="M463.19 601.333H527.764V715.24H463.19Z"/>
</clipPath>
<clipPath id="clip_65">
<path transform="matrix(1,0,0,-1,0,1080)" d="M463.19 467.323H938.68V715.24H463.19Z"/>
</clipPath>
<clipPath id="clip_66">
<path transform="matrix(1,0,0,-1,0,1080)" d="M624.815 470.479H624.858V471.996H624.815Z"/>
</clipPath>
<clipPath id="clip_67">
<path transform="matrix(1,0,0,-1,0,1080)" d="M508.79 520.753H510.113V522.938H508.79Z"/>
</clipPath>
<clipPath id="clip_68">
<path transform="matrix(1,0,0,-1,0,1080)" d="M717.722 599.568H725.07V603.315H717.722Z"/>
</clipPath>
<clipPath id="clip_69">
<path transform="matrix(1,0,0,-1,0,1080)" d="M624.815 470.479H624.858V471.996H624.815Z"/>
</clipPath>
<clipPath id="clip_70">
<path transform="matrix(1,0,0,-1,0,1080)" d="M624.725 467.323H685.346V490.074H624.725Z"/>
</clipPath>
<clipPath id="clip_71">
<path transform="matrix(1,0,0,-1,0,1080)" d="M508.79 520.753H510.113V522.938H508.79Z"/>
</clipPath>
<clipPath id="clip_72">
<path transform="matrix(1,0,0,-1,0,1080)" d="M614.194 521.06H652.236V565.147H614.194Z"/>
</clipPath>
<clipPath id="clip_73">
<path transform="matrix(1,0,0,-1,0,1080)" d="M480.839 560.497H619.279V603.975H480.839Z"/>
</clipPath>
<clipPath id="clip_74">
<path transform="matrix(1,0,0,-1,0,1080)" d="M715.976 599.529H869.495V661.51H715.976Z"/>
</clipPath>
<clipPath id="clip_75">
<path transform="matrix(1,0,0,-1,0,1080)" d="M528.82 486.473H713.006V661.508H528.82Z"/>
</clipPath>
<clipPath id="clip_76">
<path transform="matrix(1,0,0,-1,0,1080)" d="M822.581 553.161H938.68V691.63H822.581Z"/>
</clipPath>
<clipPath id="clip_77">
<path transform="matrix(1,0,0,-1,0,1080)" d="M883.472 690.096H930.376V715.24H883.472Z"/>
</clipPath>
<clipPath id="clip_78">
<path transform="matrix(1,0,0,-1,0,1080)" d="M463.19 601.333H527.764V715.24H463.19Z"/>
</clipPath>
<path id="font_79_4" d="M.6859894 0C.84599307 0 .9069977 .068984989 .9069977 .1700592V.25715638C.9069977 .3582306 .84599307 .42723084 .6859894 .42723084H.27198792C.21199036 .42723084 .18399048 .45021058 .18399048 .4921875V.535141C.18399048 .5771179 .21199036 .60009768 .27198792 .60009768H.8679962V.70410159H.27198792C.11199951 .70410159 .050994874 .6351013 .050994874 .53414919V.49317933C.050994874 .39222718 .11199951 .3232422 .27198792 .3232422H.6859894C.74598696 .3232422 .7739868 .30021668 .7739868 .25816346V.16906739C.7739868 .12701416 .74598696 .10398865 .6859894 .10398865H.07398987V0H.6859894Z"/>
<path id="font_79_9" d="M.20298767 0V.70410159H.069992069V0H.20298767Z"/>
<path id="font_79_11" d="M1.1369934 0V.70410159H1.022995L.6069946 .12901306 .18899536 .70410159H.06498718V0H.18798828V.49206544L.5469971 0H.6559906L1.0139923 .4930725V0H1.1369934Z"/>
<path id="font_79_3" d="M.8759918 0 .70999148 .31596376C.83499148 .32795716 .8839874 .3929596 .8839874 .4840088V.53404238C.8839874 .6351013 .82299807 .70410159 .6629944 .70410159H.06498718V0H.19799805V.31396485H.56900027L.73399356 0H.8759918M.7509918 .4830017C.7509918 .440979 .72299197 .41796876 .6629944 .41796876H.19799805V.60009768H.6629944C.72299197 .60009768 .7509918 .57707217 .7509918 .53504946V.4830017Z"/>
<path id="font_79_5" d="M1.0299988 0 .5649872 .70410159H.46798707L0 0H.147995L.5169983 .56707766 .8799896 0H1.0299988Z"/>
<path id="font_79_6" d="M.84799197 0V.10398865H.2809906C.22099304 .10398865 .19299317 .1269989 .19299317 .16900635V.53507998C.19299317 .5770874 .22099304 .60009768 .2809906 .60009768H.84799197V.70410159H.2809906C.12098694 .70410159 .05999756 .6351013 .05999756 .53408816V.17001343C.05999756 .068984989 .12098694 0 .2809906 0H.84799197Z"/>
<path id="font_79_12" d="M.996994 0V.70410159H.8809967V.18101502L.17999268 .70410159H.06498718V0H.18099976V.54808047L.9319916 0H.996994Z"/>
<path id="font_79_8" d="M.621994 0C.78900149 0 .8730011 .049987794 .8730011 .15000916V.38404847H.73999026V.15000916C.73999026 .119003299 .70098879 .10398865 .621994 .10398865H.31098939C.23199463 .10398865 .19299317 .11999512 .19299317 .15200806V.5520935C.19299317 .5840912 .23199463 .60009768 .31098939 .60009768H.8619995V.70410159H.31098939C.14399719 .70410159 .05999756 .65309146 .05999756 .5520935V.15200806C.05999756 .050994874 .14399719 0 .31098939 0H.621994Z"/>
<path id="font_79_2" d="M1.0299988 0 .5649872 .70410159H.46798707L0 0H.147995L.5169983 .56707766 .8799896 0H1.0299988Z"/>
<path id="font_79_10" d="M.769989 0V.10398865H.19898987V.70410159H.06498718V0H.769989Z"/>
<path id="font_79_13" d="M.8759918 0 .70999148 .31596376C.83499148 .32795716 .8839874 .3929596 .8839874 .4840088V.53404238C.8839874 .6351013 .82299807 .70410159 .6629944 .70410159H.06498718V0H.19799805V.31396485H.56900027L.73399356 0H.8759918M.7509918 .4830017C.7509918 .440979 .72299197 .41796876 .6629944 .41796876H.19799805V.60009768H.6629944C.72299197 .60009768 .7509918 .57707217 .7509918 .53504946V.4830017Z"/>
<path id="font_79_14" d="M.5649872 0 1.0299988 .70410159H.8829956L.5189972 .13700867 .15098572 .70410159H0L.46798707 0H.5649872Z"/>
<path id="font_79_7" d="M.78900149 0V.10398865H.19799805V.31982423H.7589874V.42382813H.19799805V.60009768H.78900149V.70410159H.06498718V0H.78900149Z"/>
<path id="font_79_1" d=""/>
</defs>
<g>
<g inkscape:groupmode="layer" inkscape:label="Layer 1">
<path transform="matrix(1,0,0,-1,0,1080)" d="M0 0H1080V1080H0Z"/>
<path transform="matrix(1,0,0,-1,306.9612,515.3535)" d="M0 0H70.461Z" fill="#019ad9"/>
<path transform="matrix(1,0,0,-1,348.2172,363.16804)" d="M0 0H55.203Z" fill="#019ad9"/>
<path transform="matrix(1,0,0,-1,449.4134,608.00357)" d="M0 0-7.127-4.657V0Z" fill="#019ad9"/>
<path transform="matrix(1,0,0,-1,230.2694,608.00357)" d="M0 0 2.302-4.657H-88.949L-79.274 0Z" fill="#019ad9"/>
<g clip-path="url(#clip_1)">
<path transform="matrix(1,0,0,-1,442.2865,608.00357)" d="M0 0V-4.657C-7.524-4.657-14.22 .069-16.735 7.163L-12.345 8.719C-10.487 3.483-5.555 .001 0 0" fill="#019ad9"/>
</g>
<g clip-path="url(#clip_2)">
<path transform="matrix(1,0,0,-1,442.2865,608.00357)" d="M0 0V-4.657C-7.524-4.657-14.22 .069-16.735 7.163L-12.345 8.719C-10.487 3.483-5.555 .001 0 0" fill="#019ad9"/>
</g>
<g clip-path="url(#clip_3)">
<path transform="matrix(1,0,0,-1,446.8098,608.7977)" d="M0 0-.216 .794C-.428 .709 17.902 11.445 36.338 28.69L39.52 25.289C20.71 7.695 2.034-3.285 1.051-3.863Z" fill="#019ad9"/>
</g>
<path transform="matrix(1,0,0,-1,268.3183,558.2393)" d="M0 0 2.302-4.657-35.747-54.421-38.049-49.764Z" fill="#019ad9"/>
<path transform="matrix(1,0,0,-1,383.248,558.2393)" d="M0 0V-4.657H-112.628L-114.93 0Z" fill="#019ad9"/>
<g clip-path="url(#clip_4)">
<path transform="matrix(1,0,0,-1,385.5616,555.0347)" d="M0 0 4.424 1.454C5.934-3.136 2.518-7.862-2.314-7.862V-3.205C-.676-3.219 .527-1.557 0 0" fill="#019ad9"/>
</g>
<g clip-path="url(#clip_5)">
<path transform="matrix(1,0,0,-1,385.5616,555.0347)" d="M0 0 4.424 1.454C4.483 1.277 4.534 1.1 4.577 .923L.053-.181C.038-.12 .02-.06 0 0" fill="#019ad9"/>
<path transform="matrix(1,0,0,-1,385.6149,555.2153)" d="M0 0 4.524 1.103C4.589 .84 4.638 .576 4.673 .314L.052-.269C.04-.18 .023-.09 0 0" fill="#019ad9"/>
<path transform="matrix(1,0,0,-1,385.6667,555.4844)" d="M0 0 4.621 .583C4.651 .353 4.669 .123 4.677-.105L.019-.235C.017-.157 .01-.079 0 0" fill="#019ad9"/>
<path transform="matrix(1,0,0,-1,385.6858,555.7195)" d="M0 0 4.657 .13C4.664-.081 4.661-.291 4.649-.5L-.003-.216C.001-.144 .002-.072 0 0" fill="#019ad9"/>
<path transform="matrix(1,0,0,-1,385.6826,555.9355)" d="M0 0 4.652-.284C4.64-.484 4.62-.683 4.591-.879L-.021-.205C-.011-.137-.004-.069 0 0" fill="#019ad9"/>
<path transform="matrix(1,0,0,-1,385.6613,556.1401)" d="M0 0 4.613-.675C4.585-.867 4.549-1.058 4.505-1.247L-.038-.197C-.022-.132-.01-.066 0 0" fill="#019ad9"/>
<path transform="matrix(1,0,0,-1,385.6237,556.3372)" d="M0 0 4.543-1.05C4.499-1.238 4.448-1.424 4.39-1.607L-.053-.192C-.033-.129-.015-.065 0 0" fill="#019ad9"/>
<path transform="matrix(1,0,0,-1,385.5703,556.5291)" d="M0 0 4.443-1.415C4.384-1.599 4.318-1.781 4.244-1.96L-.069-.188C-.044-.127-.021-.064 0 0" fill="#019ad9"/>
<path transform="matrix(1,0,0,-1,385.501,556.7174)" d="M0 0 4.313-1.772C4.238-1.954 4.156-2.134 4.066-2.309L-.086-.186C-.055-.125-.026-.063 0 0" fill="#019ad9"/>
<path transform="matrix(1,0,0,-1,385.4149,556.9032)" d="M0 0 4.152-2.123C4.059-2.305 3.958-2.482 3.85-2.655L-.105-.184C-.067-.124-.032-.063 0 0" fill="#019ad9"/>
<path transform="matrix(1,0,0,-1,385.3102,557.0872)" d="M0 0 3.955-2.471C3.842-2.652 3.72-2.828 3.592-2.998L-.126-.183C-.081-.124-.039-.063 0 0" fill="#019ad9"/>
<path transform="matrix(1,0,0,-1,385.1844,557.2699)" d="M0 0 3.717-2.815C3.58-2.997 3.435-3.171 3.281-3.339L-.151-.182C-.098-.123-.047-.063 0 0" fill="#019ad9"/>
<path transform="matrix(1,0,0,-1,385.0333,557.4515)" d="M0 0 3.432-3.157C3.265-3.339 3.088-3.513 2.902-3.677L-.183-.18C-.119-.123-.058-.063 0 0" fill="#019ad9"/>
<path transform="matrix(1,0,0,-1,384.8505,557.6319)" d="M0 0 3.085-3.497C2.878-3.68 2.66-3.851 2.432-4.01L-.225-.178C-.146-.123-.071-.063 0 0" fill="#019ad9"/>
<path transform="matrix(1,0,0,-1,384.6256,557.8098)" d="M0 0 2.657-3.832C2.388-4.018 2.106-4.187 1.811-4.336L-.29-.174C-.189-.123-.092-.065 0 0" fill="#019ad9"/>
<path transform="matrix(1,0,0,-1,384.3351,557.9843)" d="M0 0 2.101-4.161C1.711-4.358 1.298-4.52 .866-4.643L-.423-.166C-.275-.124-.134-.068 0 0" fill="#019ad9"/>
<path transform="matrix(1,0,0,-1,383.9125,558.1501)" d="M0 0 1.289-4.477C.673-4.652 .018-4.747-.665-4.747V-.089C-.433-.091-.21-.06 0 0" fill="#019ad9"/>
</g>
<g clip-path="url(#clip_6)">
<path transform="matrix(1,0,0,-1,475.8197,542.9332)" d="M0 0 4.369 1.613C7.314-6.372 14.922-11.664 23.42-11.664V-16.321C12.975-16.322 3.618-9.813 0 0" fill="#019ad9"/>
</g>
<g clip-path="url(#clip_7)">
<path transform="matrix(1,0,0,-1,475.8197,542.9332)" d="M0 0 4.369 1.613C4.443 1.413 4.52 1.214 4.599 1.018L.283-.731C.185-.49 .091-.246 0 0" fill="#019ad9"/>
<path transform="matrix(1,0,0,-1,476.1023,543.6644)" d="M0 0 4.317 1.749C5.981-2.364 8.9-5.72 12.531-7.944L10.099-11.915C5.635-9.181 2.045-5.055 0 0" fill="#019ad9"/>
<path transform="matrix(1,0,0,-1,486.2014,555.5796)" d="M0 0 2.432 3.971C3.244 3.474 4.091 3.034 4.968 2.654L3.118-1.62C2.04-1.153 .998-.611 0 0" fill="#019ad9"/>
<path transform="matrix(1,0,0,-1,489.3191,557.1998)" d="M0 0 1.85 4.274C2.546 3.972 3.261 3.709 3.991 3.486L2.632-.969C1.734-.695 .856-.371 0 0" fill="#019ad9"/>
<path transform="matrix(1,0,0,-1,491.9509,558.1684)" d="M0 0 1.359 4.455C1.992 4.262 2.636 4.099 3.29 3.968L2.373-.599C1.569-.438 .778-.237 0 0" fill="#019ad9"/>
<path transform="matrix(1,0,0,-1,494.3241,558.7673)" d="M0 0 .917 4.567C1.512 4.447 2.116 4.354 2.727 4.288L2.226-.343C1.475-.262 .733-.147 0 0" fill="#019ad9"/>
</g>
<path transform="matrix(1,0,0,-1,297.5381,520.0107)" d="M0 0 9.423 4.657H79.884L76.512 0Z" fill="#019ad9"/>
<path transform="matrix(1,0,0,-1,374.0502,520.0107)" d="M0 0 3.372 4.657 15.936-33.57 11.511-35.024Z" fill="#019ad9"/>
<path transform="matrix(1,0,0,-1,429.9414,599.2845)" d="M0 0-4.39-1.556-62.736 162.733-61.221 172.383Z" fill="#019ad9"/>
<path transform="matrix(1,0,0,-1,368.7203,426.90144)" d="M0 0-1.515-9.65-61.759-88.452-71.182-93.109Z" fill="#019ad9"/>
<path transform="matrix(1,0,0,-1,413.8671,375.1089)" d="M0 0 4.37 1.609 66.322-166.211 61.953-167.824Z" fill="#019ad9"/>
<path transform="matrix(1,0,0,-1,150.9953,608.00357)" d="M0 0-9.675-4.657 184.542 238.727 188.182 235.822Z" fill="#019ad9"/>
<path transform="matrix(1,0,0,-1,0,1080)" d="M348.217 716.832H403.42V712.175H348.217Z" fill="#019ad9"/>
<g clip-path="url(#clip_8)">
<path transform="matrix(1,0,0,-1,403.4201,367.82484)" d="M0 0V4.657C6.612 4.657 12.533 .529 14.817-5.675L10.447-7.284C8.836-2.911 4.663 0 0 0" fill="#019ad9"/>
</g>
<g clip-path="url(#clip_9)">
<path transform="matrix(1,0,0,-1,403.4201,367.82484)" d="M0 0V4.657C.116 4.657 .233 4.656 .349 4.654L.246-.003C.164-.001 .082 0 0 0" fill="#019ad9"/>
<path transform="matrix(1,0,0,-1,403.666,367.82759)" d="M0 0 .103 4.656C.557 4.646 1.007 4.617 1.453 4.569L.952-.062C.638-.028 .32-.007 0 0" fill="#019ad9"/>
<path transform="matrix(1,0,0,-1,404.618,367.88929)" d="M0 0 .501 4.63C.975 4.579 1.445 4.507 1.908 4.414L.992-.153C.665-.087 .334-.036 0 0" fill="#019ad9"/>
<path transform="matrix(1,0,0,-1,405.6098,368.0421)" d="M0 0 .916 4.567C1.424 4.465 1.925 4.338 2.417 4.188L1.058-.267C.712-.161 .358-.072 0 0" fill="#019ad9"/>
<path transform="matrix(1,0,0,-1,406.6682,368.30934)" d="M0 0 1.358 4.455C1.926 4.281 2.482 4.077 3.024 3.842L1.174-.432C.792-.267 .4-.122 0 0" fill="#019ad9"/>
<path transform="matrix(1,0,0,-1,407.8423,368.7414)" d="M0 0 1.85 4.274C2.532 3.979 3.191 3.636 3.823 3.249L1.391-.723C.946-.45 .481-.208 0 0" fill="#019ad9"/>
<path transform="matrix(1,0,0,-1,409.2333,369.4643)" d="M0 0 2.432 3.972C5.258 2.24 7.53-.371 8.824-3.568L4.506-5.315C3.595-3.062 1.993-1.221 0 0" fill="#019ad9"/>
<path transform="matrix(1,0,0,-1,413.7397,374.77943)" d="M0 0 4.317 1.747C4.38 1.593 4.44 1.437 4.498 1.28L.127-.33C.087-.219 .044-.109 0 0" fill="#019ad9"/>
</g>
<g clip-path="url(#clip_10)">
<path transform="matrix(1,0,0,-1,483.1474,580.10757)" d="M0 0C-18.436-17.245-33.734-27.896-33.734-27.896H-40.861C-46.416-27.895-51.348-24.413-53.206-19.177L-114.427 153.206-185.609 60.097H-109.097L-97.586 25.073C-97.059 23.516-98.262 21.853-99.899 21.868H-214.829L-252.878-27.896H-332.152L-143.97 207.926C-141.772 210.677-138.445 212.283-134.931 212.283H-79.727C-75.064 212.282-70.891 209.372-69.28 204.999L-7.328 37.174C-3.71 27.361 5.647 20.852 16.092 20.853H20.228" fill="#019ad9"/>
<path transform="matrix(1,0,0,-1,339.1776,372.1817)" d="M0 0-3.64 2.905C-.559 6.762 4.104 9.014 9.039 9.014V4.357C5.525 4.357 2.198 2.751 0 0" fill="#019ad9"/>
</g>
<g clip-path="url(#clip_11)">
<path transform="matrix(1,0,0,-1,339.1776,372.1817)" d="M0 0-3.64 2.905C-3.292 3.341-2.924 3.756-2.537 4.15L.787 .888C.511 .607 .248 .311 0 0" fill="#019ad9"/>
<path transform="matrix(1,0,0,-1,339.9643,371.294)" d="M0 0-3.324 3.262C-2.878 3.717-2.407 4.143-1.914 4.539L1.005 .911C.654 .628 .318 .324 0 0" fill="#019ad9"/>
<path transform="matrix(1,0,0,-1,340.9697,370.38288)" d="M0 0-2.92 3.628C-2.483 3.98-2.03 4.307-1.561 4.611L.969 .701C.635 .485 .311 .251 0 0" fill="#019ad9"/>
<path transform="matrix(1,0,0,-1,341.9389,369.68214)" d="M0 0-2.53 3.91C-2.1 4.188-1.658 4.446-1.204 4.682L.946 .551C.622 .382 .307 .198 0 0" fill="#019ad9"/>
<path transform="matrix(1,0,0,-1,342.8845,369.13148)" d="M0 0-2.15 4.131C-1.724 4.353-1.289 4.556-.845 4.739L.931 .433C.614 .303 .304 .158 0 0" fill="#019ad9"/>
<path transform="matrix(1,0,0,-1,343.8152,368.69813)" d="M0 0-1.775 4.306C-1.352 4.481-.92 4.638-.482 4.776L.922 .336C.61 .237 .302 .125 0 0" fill="#019ad9"/>
<path transform="matrix(1,0,0,-1,344.7373,368.36244)" d="M0 0-1.404 4.441C-.98 4.575-.55 4.692-.114 4.791L.919 .25C.609 .179 .302 .096 0 0" fill="#019ad9"/>
<path transform="matrix(1,0,0,-1,345.6567,368.1126)" d="M0 0-1.034 4.541C-.607 4.638-.175 4.719 .261 4.781L.923 .171C.612 .126 .304 .069 0 0" fill="#019ad9"/>
<path transform="matrix(1,0,0,-1,346.5792,367.9416)" d="M0 0-.661 4.61C-.228 4.672 .21 4.717 .65 4.744L.934 .095C.621 .076 .309 .044 0 0" fill="#019ad9"/>
<path transform="matrix(1,0,0,-1,347.5134,367.8462)" d="M0 0-.284 4.649C.043 4.669 .373 4.679 .703 4.679V.021C.468 .021 .233 .014 0 0" fill="#019ad9"/>
</g>
<g clip-path="url(#clip_12)">
<path transform="matrix(1,0,0,-1,497.4087,554.5143)" d="M0 0H6.297 9.122L5.967-4.74C5.967-4.74 .815-4.931-.859-4.596-3.945-3.978-.358 .035-.358 .035Z" fill="#019ad9"/>
<g>
<g clip-path="url(#clip_13)">
<g>
<g clip-path="url(#clip_14)">
</g>
</g>
<g>
<g clip-path="url(#clip_15)">
</g>
</g>
<g>
<g clip-path="url(#clip_16)">
</g>
</g>
<g>
<g clip-path="url(#clip_17)">
</g>
</g>
<g>
<g clip-path="url(#clip_18)">
</g>
</g>
<g>
<g clip-path="url(#clip_19)">
</g>
</g>
<g>
<g clip-path="url(#clip_20)">
</g>
</g>
<g>
<g clip-path="url(#clip_21)">
</g>
</g>
<g>
<g clip-path="url(#clip_22)">
</g>
</g>
<g>
<g clip-path="url(#clip_23)">
</g>
</g>
<g>
<g clip-path="url(#clip_24)">
</g>
</g>
<g>
<g clip-path="url(#clip_25)">
</g>
</g>
<g>
<g clip-path="url(#clip_26)">
</g>
</g>
</g>
</g>
<g>
<g clip-path="url(#clip_27)">
<g>
<g clip-path="url(#clip_28)">
<path transform="matrix(1,0,0,-1,624.8146,609.5209)" d="M0 0C.014 .505 .029 1.011 .043 1.516Z" fill="#fe4900"/>
<g clip-path="url(#clip_29)">
<g>
<g clip-path="url(#clip_30)">
<path transform="matrix(1,0,0,-1,624.8149,609.52029)" d="M0 0 .042 1.516 .043 1.515 0-.001V0" fill="#fe4900"/>
</g>
</g>
</g>
</g>
</g>
<g>
<g clip-path="url(#clip_31)">
<path transform="matrix(1,0,0,-1,508.7904,557.0617)" d="M0 0C.545-.91 1.02-1.672 1.322-2.151 1.323-2.151 1.316-2.162 1.304-2.185Z" fill="#fe4900"/>
<g clip-path="url(#clip_32)">
<g>
<g clip-path="url(#clip_33)">
<path transform="matrix(1,0,0,-1,508.7729,557.0933)" d="M0 0 1.34-2.119C1.34-2.119 1.334-2.131 1.322-2.153L.017 .032C.017 .032 .012 .021 0 0" fill="#fe4900"/>
</g>
</g>
</g>
</g>
</g>
<g>
<g clip-path="url(#clip_34)">
<path transform="matrix(1,0,0,-1,724.0378,480.4319)" d="M0 0C-1.403 .959-3.389 2.252-6.316 3.747-4.111 2.624-1.172 1.126 1.032 .003 .331 .001 0 0 0 0" fill="#fe4900"/>
<g clip-path="url(#clip_35)">
<g>
<g clip-path="url(#clip_36)">
<path transform="matrix(1,0,0,-1,717.7219,476.6848)" d="M0 0 7.348-3.744C6.647-3.746 6.316-3.747 6.316-3.747L.876 .002C.302 .001 0 0 0 0" fill="#fe4900"/>
</g>
</g>
</g>
</g>
</g>
<path transform="matrix(1,0,0,-1,507.3193,554.5974)" d="M0 0V0L106.875 .314Z" fill="#fe4900"/>
<path transform="matrix(1,0,0,-1,527.7322,364.7605)" d="M0 0V0H355.74Z" fill="#fe4900"/>
<g>
<g clip-path="url(#clip_37)">
<path transform="matrix(1,0,0,-1,624.8574,608.0044)" d="M0 0V-.001L-.043-1.516C-.029-1.011-.014-.505 0 0" fill="#fe4900"/>
<g clip-path="url(#clip_38)">
<g>
<g clip-path="url(#clip_39)">
<path transform="matrix(1,0,0,-1,624.8574,608.0044)" d="M0 0-.042-1.516H-.043L0-.001V0" fill="#fe4900"/>
<path transform="matrix(1,0,0,-1,624.8575,608.0049)" d="M0 0-.043-1.516 0 0" fill="#fe4900"/>
</g>
</g>
</g>
</g>
</g>
<path transform="matrix(1,0,0,-1,886.015,608.0039)" d="M0 0 9.267-4.657H-71.138L-68.758 0Z" fill="#fe4900"/>
<path transform="matrix(1,0,0,-1,624.8577,608.0053)" d="M0 0-.132-4.656H-182.571L-175.444 .001Z" fill="#fe4900"/>
<g>
<g clip-path="url(#clip_40)">
<path transform="matrix(1,0,0,-1,624.8146,609.5209)" d="M0 0C.014 .505 .029 1.011 .043 1.516 .043 1.539 .539 1.501 1.481 1.501 9.277 1.502 44.639 2.633 57.532 19.594L60.532 15.994C46.637-2.148 9.56-3.156 1.481-3.156 .469-3.156-.061-3.141-.089-3.14Z" fill="#fe4900"/>
<g clip-path="url(#clip_41)">
<g>
<g clip-path="url(#clip_42)">
<path transform="matrix(1,0,0,-1,682.3466,589.9265)" d="M0 0 3-3.6C2.498-4.255 1.966-4.888 1.407-5.499L-1.482-1.776C-.96-1.204-.465-.612 0 0" fill="#fe4900"/>
<path transform="matrix(1,0,0,-1,680.8647,591.7023)" d="M0 0 2.889-3.723C2.099-4.586 1.254-5.405 .36-6.184L-2.363-2.304C-1.526-1.574-.736-.807 0 0" fill="#fe4900"/>
<path transform="matrix(1,0,0,-1,678.5012,594.0062)" d="M0 0 2.723-3.88C1.607-4.853 .415-5.762-.839-6.611L-3.344-2.561C-2.165-1.764-1.046-.911 0 0" fill="#fe4900"/>
<path transform="matrix(1,0,0,-1,675.1568,596.5672)" d="M0 0 2.505-4.05C.65-5.307-1.342-6.434-3.426-7.443L-5.592-3.189C-3.624-2.239-1.746-1.18 0 0" fill="#fe4900"/>
<path transform="matrix(1,0,0,-1,669.5645,599.7564)" d="M0 0 2.167-4.254C-1.819-6.185-6.143-7.688-10.498-8.857L-11.998-4.348C-7.862-3.239-3.765-1.818 0 0" fill="#fe4900"/>
<path transform="matrix(1,0,0,-1,657.566,604.1046)" d="M0 0 1.5-4.509C-12.398-8.239-26.626-8.572-31.271-8.572-32.241-8.572-32.769-8.559-32.835-8.557L-32.707-3.898C-32.68-3.88-32.186-3.915-31.271-3.915-26.789-3.915-13.196-3.541 0 0" fill="#fe4900"/>
<path transform="matrix(1,0,0,-1,624.8586,608.0027)" d="M0 0-.127-4.659C-.128-4.659-.13-4.659-.13-4.659L-.001-.001C-.001-.001-.001 0 0 0" fill="#fe4900"/>
<path transform="matrix(1,0,0,-1,624.8576,608.0038)" d="M0 0-.129-4.658C-.13-4.658-.131-4.658-.132-4.658L0-.001V0" fill="#fe4900"/>
<path transform="matrix(1,0,0,-1,624.8575,608.0049)" d="M0 0-.131-4.656H-.132C-.132-4.656-.132-4.656-.132-4.656L0 0" fill="#fe4900"/>
</g>
</g>
</g>
</g>
</g>
<path transform="matrix(1,0,0,-1,503.3756,559.2465)" d="M0 0 3.155 4.649 110.819 4.964 110.832 .306Z" fill="#fe4900"/>
<g>
<g clip-path="url(#clip_43)">
<path transform="matrix(1,0,0,-1,510.1127,559.2125)" d="M0 0C0 0-.006-.012-.018-.034-.409 .621-.931 1.495-1.322 2.151-.861 1.38-.503 .797 0 0" fill="#fe4900"/>
</g>
</g>
<path transform="matrix(1,0,0,-1,822.5807,522.6958)" d="M0 0 8.884-4.143 72.701-89.965 63.434-85.308Z" fill="#fe4900"/>
<g>
<g clip-path="url(#clip_44)">
<path transform="matrix(1,0,0,-1,614.2079,558.9402)" d="M0 0-.014 4.657C1.547 4.666 31.203 4.835 33.278 19.349 35.866 37.456 6.33 39.338 4.775 39.437L5.071 44.087C6.781 43.976 40.452 42.184 37.888 18.69 34.627-.449 1.696 .01 0 0" fill="#fe4900"/>
<g clip-path="url(#clip_45)">
<g>
<g clip-path="url(#clip_46)">
<path transform="matrix(1,0,0,-1,614.2079,558.9402)" d="M0 0-1.595 4.653C-1.238 4.655 2.164 4.67 4.788 4.857L5.323 .172C2.404-.02 .387 .002 0 0" fill="#fe4900"/>
<path transform="matrix(1,0,0,-1,619.5314,558.7679)" d="M0 0-.535 4.685C1.288 4.816 3.499 5.032 5.875 5.39L7.154 .792C4.495 .371 2.029 .134 0 0" fill="#fe4900"/>
<path transform="matrix(1,0,0,-1,626.685,557.9758)" d="M0 0-1.279 4.598C.257 4.83 1.862 5.121 3.476 5.487L5.333 1.069C3.518 .621 1.719 .272 0 0" fill="#fe4900"/>
<path transform="matrix(1,0,0,-1,632.0179,556.9067)" d="M0 0-1.857 4.418C-.656 4.69 .549 5.004 1.735 5.365L4.048 1.172C2.708 .721 1.35 .333 0 0" fill="#fe4900"/>
<path transform="matrix(1,0,0,-1,636.0659,555.7347)" d="M0 0-2.313 4.194C-1.351 4.487-.402 4.812 .521 5.171L3.209 1.229C2.162 .774 1.087 .366 0 0" fill="#fe4900"/>
<path transform="matrix(1,0,0,-1,639.2751,554.5062)" d="M0 0-2.688 3.943C-1.897 4.251-1.125 4.585-.381 4.947L2.627 1.275C1.777 .814 .898 .39 0 0" fill="#fe4900"/>
<path transform="matrix(1,0,0,-1,641.9019,553.231)" d="M0 0-3.008 3.672C-2.343 3.995-1.7 4.341-1.085 4.71L2.203 1.329C1.496 .855 .76 .412 0 0" fill="#fe4900"/>
<path transform="matrix(1,0,0,-1,644.1049,551.902)" d="M0 0-3.288 3.381C-2.712 3.727-2.161 4.094-1.639 4.482L1.902 1.418C1.298 .916 .662 .444 0 0" fill="#fe4900"/>
<path transform="matrix(1,0,0,-1,646.0073,550.4841)" d="M0 0-3.541 3.065C-3.028 3.447-2.543 3.852-2.091 4.278L1.69 1.571C1.161 1.018 .596 .494 0 0" fill="#fe4900"/>
<path transform="matrix(1,0,0,-1,647.6974,548.9127)" d="M0 0-3.781 2.707C-3.304 3.158-2.864 3.634-2.467 4.137L1.553 1.86C1.079 1.205 .56 .585 0 0" fill="#fe4900"/>
<path transform="matrix(1,0,0,-1,649.2509,547.0522)" d="M0 0-4.02 2.276C-3.529 2.898-3.103 3.56-2.754 4.266L1.537 2.601C1.102 1.676 .586 .81 0 0" fill="#fe4900"/>
<path transform="matrix(1,0,0,-1,650.7877,544.451)" d="M0 0-4.291 1.665C-3.806 2.644-3.467 3.707-3.302 4.86-.714 22.967-30.25 24.849-31.805 24.948L-31.508 29.598C-29.799 29.487 3.872 27.695 1.309 4.201 1.049 2.68 .603 1.283 0 0" fill="#fe4900"/>
</g>
</g>
</g>
</g>
</g>
<path transform="matrix(1,0,0,-1,817.2573,608.0039)" d="M0 0-2.381-4.657-101.281 132.208-92.187 127.575Z" fill="#fe4900"/>
<g>
<g clip-path="url(#clip_47)">
<path transform="matrix(1,0,0,-1,619.2794,514.8531)" d="M0 0-.296-4.65C-2.71-4.345-48.562 1.449-65.224 3.964-122.156 12.546-137.626 35.004-138.44 36.186L-134.605 38.828C-133.99 37.931-119.748 17.032-64.529 8.569-47.939 6.064-2.116 .282 0 0" fill="#fe4900"/>
<g clip-path="url(#clip_48)">
<g>
<g clip-path="url(#clip_49)">
<path transform="matrix(1,0,0,-1,619.2794,514.8531)" d="M0 0-.296-4.65C-2.71-4.345-48.562 1.449-65.224 3.964-122.156 12.546-137.626 35.004-138.44 36.186L-134.605 38.828C-133.99 37.931-119.748 17.032-64.529 8.569-47.939 6.064-2.116 .282 0 0" fill="#fe4900"/>
</g>
</g>
</g>
</g>
</g>
<path transform="matrix(1,0,0,-1,804.9846,418.49189)" d="M0 0V-4.657H-251.725V0Z" fill="#fe4900"/>
<path transform="matrix(1,0,0,-1,850.7631,418.49018)" d="M0 0V-4.657L-45.778-4.659-45.779-.002Z" fill="#fe4900"/>
<g>
<g clip-path="url(#clip_50)">
<path transform="matrix(1,0,0,-1,724.0378,480.4319)" d="M0 0C-3.041 2.078-4.93 3.041-8.061 4.636-6.317 4.641 26.821 4.729 57.827 4.729 73.329 4.729 87.864 4.706 96.581 4.636 97.486 4.629 98.436 4.621 99.424 4.621 111.771 4.621 130.009 6.009 138.382 29.838 147.785 56.623 128.641 57.284 126.725 57.284V61.942C129.242 61.943 153.389 60.084 142.776 28.295 133.383 1.499 112.641-.055 99.424-.037 98.401-.046 97.449-.029 96.545-.021 87.845 .049 73.313 .06 57.827 .072 29.792 .069 .003-.002 0 0" fill="#fe4900"/>
<g clip-path="url(#clip_51)">
<g>
<g clip-path="url(#clip_52)">
<path transform="matrix(1,0,0,-1,725.0703,480.4286)" d="M0 0-9.094 4.633C-9.086 4.633-9.078 4.633-9.07 4.633L-.092 0C-.062 0-.031 0 0 0" fill="#fe4900"/>
<path transform="matrix(1,0,0,-1,724.9784,480.4289)" d="M0 0-8.978 4.633C-8.969 4.633-8.96 4.633-8.95 4.633L-.087 0C-.059 0-.03 0 0 0" fill="#fe4900"/>
<path transform="matrix(1,0,0,-1,724.891,480.42909)" d="M0 0-8.863 4.634C-8.853 4.634-8.843 4.634-8.832 4.634L-.083 0C-.056 0-.028 0 0 0" fill="#fe4900"/>
<path transform="matrix(1,0,0,-1,724.8079,480.42939)" d="M0 0-8.749 4.634C-8.738 4.634-8.727 4.634-8.715 4.634L-.079 0C-.053 0-.027 0 0 0" fill="#fe4900"/>
<path transform="matrix(1,0,0,-1,724.7292,480.42964)" d="M0 0-8.636 4.634C-8.624 4.634-8.612 4.634-8.598 4.634L-.074 0C-.05 0-.026 0 0 0" fill="#fe4900"/>
<path transform="matrix(1,0,0,-1,724.6549,480.4298)" d="M0 0-8.524 4.635C-8.511 4.635-8.497 4.635-8.483 4.635L-.07 0C-.047 0-.024 0 0 0" fill="#fe4900"/>
<path transform="matrix(1,0,0,-1,724.585,480.4301)" d="M0 0-8.413 4.635C-8.399 4.635-8.384 4.635-8.369 4.635L-.066 0C-.044 0-.023 0 0 0" fill="#fe4900"/>
<path transform="matrix(1,0,0,-1,724.5193,480.43019)" d="M0 0-8.303 4.635C-8.288 4.635-8.272 4.635-8.255 4.635L-.061 0C-.042 0-.021 0 0 0" fill="#fe4900"/>
<path transform="matrix(1,0,0,-1,724.4579,480.43043)" d="M0 0-8.194 4.636C-8.178 4.636-8.161 4.636-8.143 4.636L-.057 0C-.039 0-.02 0 0 0" fill="#fe4900"/>
<path transform="matrix(1,0,0,-1,724.4008,480.4306)" d="M0 0-8.086 4.636C-8.068 4.636-8.05 4.636-8.032 4.636L-.053 0C-.036 0-.018 0 0 0" fill="#fe4900"/>
<path transform="matrix(1,0,0,-1,724.3479,480.43074)" d="M0 0-7.979 4.636C-7.96 4.636-7.941 4.636-7.921 4.636L-.049 0C-.033 0-.017 0 0 0" fill="#fe4900"/>
<path transform="matrix(1,0,0,-1,724.2993,480.4309)" d="M0 0-7.873 4.637C-3.469 4.648 28.017 4.729 57.566 4.729 73.067 4.729 87.602 4.705 96.32 4.635 97.225 4.628 98.174 4.62 99.162 4.62 100.955 4.62 102.872 4.649 104.864 4.772L105.337 .126C103.159-.01 101.081-.04 99.162-.038 98.139-.047 97.188-.03 96.283-.022 87.584 .048 73.051 .059 57.566 .071 28.026 .068-3.459-.011 0 0" fill="#fe4900"/>
<path transform="matrix(1,0,0,-1,829.6365,480.3047)" d="M0 0-.473 4.646C1.041 4.739 2.598 4.886 4.178 5.116L5.112 .524C3.367 .268 1.654 .103 0 0" fill="#fe4900"/>
<path transform="matrix(1,0,0,-1,834.7487,479.7804)" d="M0 0-.935 4.592C.266 4.766 1.48 4.988 2.698 5.27L4.026 .76C2.672 .444 1.327 .195 0 0" fill="#fe4900"/>
<path transform="matrix(1,0,0,-1,838.7745,479.02033)" d="M0 0-1.328 4.51C-.289 4.751 .753 5.035 1.792 5.371L3.475 .965C2.316 .589 1.155 .27 0 0" fill="#fe4900"/>
<path transform="matrix(1,0,0,-1,842.2496,478.055)" d="M0 0-1.683 4.405C-.747 4.708 .187 5.052 1.115 5.443L3.127 1.166C2.089 .726 1.045 .339 0 0" fill="#fe4900"/>
<path transform="matrix(1,0,0,-1,845.3769,476.88954)" d="M0 0-2.013 4.278C-1.134 4.649-.261 5.062 .602 5.523L2.931 1.399C1.962 .881 .984 .417 0 0" fill="#fe4900"/>
<path transform="matrix(1,0,0,-1,848.3074,475.4909)" d="M0 0-2.329 4.124C-1.479 4.578-.639 5.077 .189 5.627L2.827 1.688C1.897 1.07 .953 .509 0 0" fill="#fe4900"/>
<path transform="matrix(1,0,0,-1,851.1348,473.80299)" d="M0 0-2.639 3.939C-1.783 4.507-.94 5.13-.115 5.811L2.839 2.104C1.91 1.338 .962 .639 0 0" fill="#fe4900"/>
<path transform="matrix(1,0,0,-1,853.9742,471.6989)" d="M0 0-2.954 3.707C-2.048 4.455-1.162 5.275-.302 6.173L2.987 2.772C2.018 1.763 1.021 .841 0 0" fill="#fe4900"/>
<path transform="matrix(1,0,0,-1,856.9616,468.92689)" d="M0 0-3.29 3.401C-2.267 4.469-1.281 5.647-.34 6.946L3.325 3.986C2.264 2.525 1.153 1.2 0 0" fill="#fe4900"/>
<path transform="matrix(1,0,0,-1,860.2867,464.94099)" d="M0 0-3.665 2.96C-2.291 4.858-1.014 7.014 .141 9.464L4.288 7.313C2.989 4.558 1.549 2.133 0 0" fill="#fe4900"/>
<path transform="matrix(1,0,0,-1,864.5749,457.6277)" d="M0 0-4.147 2.151C-3.435 3.664-2.768 5.289-2.155 7.034 7.248 33.819-11.896 34.48-13.812 34.48V39.138C-11.295 39.139 12.852 37.28 2.239 5.491 1.551 3.528 .802 1.701 0 0" fill="#fe4900"/>
</g>
</g>
</g>
</g>
</g>
<g>
<g clip-path="url(#clip_53)">
<path transform="matrix(1,0,0,-1,553.2591,418.49189)" d="M0 0V-4.657C-2.325-4.655-19.185-5.217-19.784-23.163-20.424-42.308 21.807-41.407 36.687-42.947 106.403-50.125 115.95-55.187 128.996-61.233 142.336-67.416 162.078-77.077 159.521-115.692 156.975-154.297 133.332-173.998 132.087-175.035L129.087-171.435C130.186-170.558 152.44-152.039 154.874-115.385 157.123-79.801 139.571-71.283 127.038-65.459 114.463-59.628 105.3-54.726 36.209-47.58 21.478-46.065-24.216-47.693-24.439-23.008-23.601-.613-2.822 .004 0 0" fill="#fe4900"/>
<g clip-path="url(#clip_54)">
<g>
<g clip-path="url(#clip_55)">
<path transform="matrix(1,0,0,-1,553.2591,418.49189)" d="M0 0V-4.657C-.813-4.656-3.405-4.725-6.457-5.582L-7.931-1.129C-4.171-.073-.987 .001 0 0" fill="#fe4900"/>
<path transform="matrix(1,0,0,-1,545.3282,419.6214)" d="M0 0 1.473-4.452C.296-4.783-.949-5.231-2.188-5.837L-4.513-1.712C-2.985-.961-1.45-.407 0 0" fill="#fe4900"/>
<path transform="matrix(1,0,0,-1,540.8152,421.33314)" d="M0 0 2.325-4.126C1.592-4.485 .861-4.9 .148-5.379L-2.688-1.554C-1.808-.96-.905-.445 0 0" fill="#fe4900"/>
<path transform="matrix(1,0,0,-1,538.1268,422.8874)" d="M0 0 2.836-3.825C2.31-4.179 1.795-4.567 1.295-4.994L-1.904-1.451C-1.286-.921-.649-.438 0 0" fill="#fe4900"/>
<path transform="matrix(1,0,0,-1,536.2228,424.33808)" d="M0 0 3.199-3.543C2.786-3.896 2.384-4.275 1.996-4.682L-1.488-1.416C-1.008-.91-.511-.438 0 0" fill="#fe4900"/>
<path transform="matrix(1,0,0,-1,534.7352,425.7542)" d="M0 0 3.484-3.266C3.142-3.625 2.812-4.006 2.496-4.41L-1.223-1.423C-.831-.92-.423-.446 0 0" fill="#fe4900"/>
<path transform="matrix(1,0,0,-1,533.5121,427.1773)" d="M0 0 3.719-2.987C3.428-3.36 3.148-3.752 2.882-4.165L-1.038-1.466C-.708-.952-.361-.464 0 0" fill="#fe4900"/>
<path transform="matrix(1,0,0,-1,532.4741,428.64314)" d="M0 0 3.92-2.699C3.669-3.089 3.43-3.497 3.205-3.924L-.887-1.525C-.608-.993-.311-.485 0 0" fill="#fe4900"/>
<path transform="matrix(1,0,0,-1,531.5867,430.1684)" d="M0 0 4.092-2.399C3.87-2.82 3.662-3.261 3.468-3.721L-.777-1.647C-.535-1.074-.276-.525 0 0" fill="#fe4900"/>
<path transform="matrix(1,0,0,-1,530.81,431.8156)" d="M0 0 4.245-2.074C4.049-2.538 3.869-3.022 3.706-3.527L-.672-1.811C-.468-1.182-.243-.578 0 0" fill="#fe4900"/>
<path transform="matrix(1,0,0,-1,530.1376,433.627)" d="M0 0 4.378-1.716C4.211-2.233 4.061-2.772 3.93-3.334L-.561-2.017C-.397-1.316-.209-.645 0 0" fill="#fe4900"/>
<path transform="matrix(1,0,0,-1,529.5768,435.64399)" d="M0 0 4.491-1.317C4.352-1.913 4.235-2.535 4.142-3.184L-.44-2.328C-.321-1.519-.174-.743 0 0" fill="#fe4900"/>
<path transform="matrix(1,0,0,-1,529.137,437.97224)" d="M0 0 4.582-.856C4.499-1.433 4.435-2.032 4.391-2.654L-.245-2.243C-.188-1.468-.105-.721 0 0" fill="#fe4900"/>
<path transform="matrix(1,0,0,-1,528.8916,440.21528)" d="M0 0 4.637-.41C4.613-.747 4.595-1.09 4.583-1.44 4.576-1.667 4.574-1.891 4.578-2.113L-.044-2.152C-.06-1.866-.069-1.577-.071-1.284-.055-.848-.031-.42 0 0" fill="#fe4900"/>
<path transform="matrix(1,0,0,-1,528.8472,442.3673)" d="M0 0 4.623 .039C4.633-.456 4.672-.937 4.74-1.405L.195-1.86C.1-1.258 .034-.638 0 0" fill="#fe4900"/>
<path transform="matrix(1,0,0,-1,529.0424,444.2271)" d="M0 0 4.544 .455C4.623-.092 4.741-.62 4.895-1.13L.455-2.04C.264-1.384 .112-.704 0 0" fill="#fe4900"/>
<path transform="matrix(1,0,0,-1,529.4976,446.2671)" d="M0 0 4.44 .91C4.635 .262 4.889-.356 5.197-.948L.908-2.385C.546-1.627 .242-.832 0 0" fill="#fe4900"/>
<path transform="matrix(1,0,0,-1,530.4055,448.65254)" d="M0 0 4.289 1.438C5.347-.59 7.043-2.299 9.208-3.743L5.556-6.62C3.154-4.785 1.24-2.602 0 0" fill="#fe4900"/>
<path transform="matrix(1,0,0,-1,535.9613,455.27223)" d="M0 0 3.652 2.877C4.887 2.053 6.274 1.315 7.781 .654L4.551-2.814C2.898-1.98 1.37-1.047 0 0" fill="#fe4900"/>
<path transform="matrix(1,0,0,-1,540.5123,458.08644)" d="M0 0 3.23 3.468C4.826 2.767 6.556 2.152 8.384 1.609L5.624-2.33C3.638-1.654 1.749-.883 0 0" fill="#fe4900"/>
<path transform="matrix(1,0,0,-1,546.1364,460.41603)" d="M0 0 2.76 3.938C5.188 3.217 7.788 2.625 10.471 2.133L8.339-2.222C5.451-1.626 2.639-.897 0 0" fill="#fe4900"/>
<path transform="matrix(1,0,0,-1,554.4755,462.63758)" d="M0 0 2.132 4.354C6.255 3.598 10.574 3.079 14.766 2.693L13.506-1.948C9.058-1.521 4.439-.916 0 0" fill="#fe4900"/>
<path transform="matrix(1,0,0,-1,567.9813,464.5857)" d="M0 0 1.26 4.641C9.441 3.888 17.14 3.646 21.965 3.146 24.313 2.905 26.593 2.665 28.807 2.428L28.267-2.201C26.073-1.965 23.814-1.727 21.486-1.486 16.711-.995 8.68-.834 0 0" fill="#fe4900"/>
<path transform="matrix(1,0,0,-1,596.2482,466.78669)" d="M0 0 .541 4.629C26.452 1.854 43.347-.608 55.127-2.947L53.953-7.474C42.362-5.185 25.671-2.758 0 0" fill="#fe4900"/>
<path transform="matrix(1,0,0,-1,650.2014,474.26039)" d="M0 0 1.174 4.527C7.4 3.29 12.197 2.088 16.141 .892L14.678-3.543C10.828-2.381 6.127-1.21 0 0" fill="#fe4900"/>
<path transform="matrix(1,0,0,-1,664.8792,477.80323)" d="M0 0 1.463 4.435C5.461 3.222 8.582 2.016 11.426 .787L9.678-3.533C6.93-2.346 3.903-1.178 0 0" fill="#fe4900"/>
<path transform="matrix(1,0,0,-1,674.5574,481.3365)" d="M0 0 1.747 4.32C3.8 3.433 5.708 2.533 7.698 1.611 10.607 .263 13.821-1.251 17.042-3.195L14.399-7.062C11.445-5.283 8.473-3.884 5.739-2.614 3.822-1.725 1.984-.857 0 0" fill="#fe4900"/>
<path transform="matrix(1,0,0,-1,688.9562,488.39894)" d="M0 0 2.643 3.868C5.415 2.195 8.193 .203 10.785-2.275L7.421-5.603C5.07-3.345 2.542-1.532 0 0" fill="#fe4900"/>
<path transform="matrix(1,0,0,-1,696.3767,494.0017)" d="M0 0 3.364 3.328C5.435 1.349 7.387-.941 9.125-3.627L5.206-6.339C3.64-3.888 1.877-1.803 0 0" fill="#fe4900"/>
<path transform="matrix(1,0,0,-1,701.5826,500.34028)" d="M0 0 3.919 2.712C5.439 .361 6.796-2.293 7.923-5.308L3.602-7.326C2.59-4.568 1.37-2.144 0 0" fill="#fe4900"/>
<path transform="matrix(1,0,0,-1,705.1845,507.66639)" d="M0 0 4.321 2.018C5.037 .103 5.66-1.957 6.175-4.178L1.664-5.675C1.202-3.639 .643-1.752 0 0" fill="#fe4900"/>
<path transform="matrix(1,0,0,-1,706.8484,513.341)" d="M0 0 4.511 1.496C4.97-.484 5.342-2.592 5.615-4.839L.991-5.812C.745-3.75 .412-1.816 0 0" fill="#fe4900"/>
<path transform="matrix(1,0,0,-1,707.8396,519.1533)" d="M0 0 4.624 .974C4.895-1.247 5.069-3.602 5.136-6.103L.461-6.504C.4-4.204 .243-2.039 0 0" fill="#fe4900"/>
<path transform="matrix(1,0,0,-1,708.3005,525.6569)" d="M0 0 4.675 .401C4.744-2.213 4.696-4.986 4.518-7.928L-.134-7.668C.023-4.957 .064-2.405 0 0" fill="#fe4900"/>
<path transform="matrix(1,0,0,-1,708.1664,533.3253)" d="M0 0 4.652-.26C4.64-.459 4.627-.659 4.614-.859 4.438-3.522 4.162-6.096 3.8-8.58L-.807-7.88C-.464-5.523-.201-3.081-.033-.552-.022-.367-.011-.183 0 0" fill="#fe4900"/>
<path transform="matrix(1,0,0,-1,707.3596,541.2051)" d="M0 0 4.607-.7C4.217-3.373 3.727-5.943 3.155-8.408L-1.373-7.311C-.833-4.974-.369-2.537 0 0" fill="#fe4900"/>
<path transform="matrix(1,0,0,-1,705.9868,548.5159)" d="M0 0 4.528-1.098C3.946-3.608 3.278-6.01 2.545-8.304L-1.871-6.829C-1.18-4.656-.55-2.38 0 0" fill="#fe4900"/>
<path transform="matrix(1,0,0,-1,704.1154,555.3452)" d="M0 0 4.416-1.475C3.65-3.872 2.812-6.151 1.923-8.313L-2.351-6.474C-1.513-4.428-.723-2.27 0 0" fill="#fe4900"/>
<path transform="matrix(1,0,0,-1,701.7645,561.8189)" d="M0 0 4.274-1.839C3.306-4.192 2.278-6.405 1.218-8.48L-2.878-6.28C-1.88-4.319-.912-2.226 0 0" fill="#fe4900"/>
<path transform="matrix(1,0,0,-1,698.8861,568.09878)" d="M0 0 4.096-2.2C2.909-4.521 1.682-6.669 .452-8.642L-3.429-6.085C-2.273-4.222-1.117-2.194 0 0" fill="#fe4900"/>
<path transform="matrix(1,0,0,-1,695.4568,574.1833)" d="M0 0 3.881-2.557C2.446-4.861 1.008-6.928-.372-8.759L-3.999-5.846C-2.703-4.123-1.35-2.174 0 0" fill="#fe4900"/>
<path transform="matrix(1,0,0,-1,691.4581,580.02957)" d="M0 0 3.627-2.912C1.916-5.183 .295-7.09-1.117-8.632L-4.454-5.376C-3.13-3.93-1.608-2.138 0 0" fill="#fe4900"/>
<path transform="matrix(1,0,0,-1,687.0039,585.4059)" d="M0 0 3.337-3.256C1.458-5.308-.051-6.716-.914-7.481L-3.974-3.941C-3.173-3.237-1.761-1.924 0 0" fill="#fe4900"/>
<path transform="matrix(1,0,0,-1,683.0299,589.3468)" d="M0 0 3.06-3.54C2.676-3.881 2.419-4.094 2.317-4.18L-.683-.58C-.592-.507-.357-.314 0 0" fill="#fe4900"/>
</g>
</g>
</g>
</g>
</g>
<g>
<g clip-path="url(#clip_56)">
<path transform="matrix(1,0,0,-1,925.9559,389.90364)" d="M0 0 4.42 1.534C5.406-.168 24.141-32.512 1.863-80.789-19.189-126.404-40.671-129.39-54.713-132.785-64.563-135.174-92.995-136.847-94.491-136.935L-103.375-132.792C-93.294-132.189-65.131-130.532-55.809-128.259-42.346-125.004-22.591-122.364-2.365-78.837 18.893-32.606 1.24-2.265 0 0" fill="#fe4900"/>
<g clip-path="url(#clip_57)">
<g>
<g clip-path="url(#clip_58)">
<path transform="matrix(1,0,0,-1,925.9559,389.90364)" d="M0 0 4.42 1.534C4.652 1.133 5.869-.968 7.303-4.576L2.885-6.114C1.495-2.624 .292-.533 0 0" fill="#fe4900"/>
<path transform="matrix(1,0,0,-1,928.8406,396.0174)" d="M0 0 4.418 1.538C5.423-.991 6.534-4.261 7.488-8.204L2.951-9.342C2.041-5.578 .974-2.445 0 0" fill="#fe4900"/>
<path transform="matrix(1,0,0,-1,931.7912,405.3592)" d="M0 0 4.537 1.137C5.182-1.529 5.755-4.505 6.173-7.768L1.554-8.486C1.159-5.38 .615-2.545 0 0" fill="#fe4900"/>
<path transform="matrix(1,0,0,-1,933.345,413.84529)" d="M0 0 4.62 .719C4.963-1.955 5.202-4.822 5.294-7.871L.629-8.175C.548-5.273 .324-2.545 0 0" fill="#fe4900"/>
<path transform="matrix(1,0,0,-1,933.9744,422.02009)" d="M0 0 4.665 .303C4.744-2.356 4.712-5.154 4.536-8.082L-.138-7.981C.035-5.193 .071-2.53 0 0" fill="#fe4900"/>
<path transform="matrix(1,0,0,-1,933.8362,430.00068)" d="M0 0 4.674-.102C4.512-2.809 4.228-5.628 3.798-8.554L-.851-8.049C-.436-5.262-.16-2.577 0 0" fill="#fe4900"/>
<path transform="matrix(1,0,0,-1,932.9855,438.04939)" d="M0 0 4.649-.505C4.241-3.282 3.702-6.155 3.012-9.118L-1.575-8.21C-.912-5.384-.394-2.646 0 0" fill="#fe4900"/>
<path transform="matrix(1,0,0,-1,931.4109,446.25984)" d="M0 0 4.587-.908C3.91-3.814 3.088-6.807 2.101-9.882L-2.381-8.565C-1.437-5.628-.65-2.772 0 0" fill="#fe4900"/>
<path transform="matrix(1,0,0,-1,929.0294,454.8252)" d="M0 0 4.483-1.317C3.499-4.383 2.352-7.531 1.023-10.756L-3.307-9.023C-2.038-5.938-.941-2.929 0 0" fill="#fe4900"/>
<path transform="matrix(1,0,0,-1,925.722,463.8482)" d="M0 0 4.33-1.733C3.636-3.416 2.893-5.12 2.097-6.844 .932-9.368-.234-11.761-1.4-14.031L-5.483-11.749C-4.368-9.584-3.251-7.301-2.132-4.893-1.372-3.241-.663-1.61 0 0" fill="#fe4900"/>
<path transform="matrix(1,0,0,-1,920.2387,475.59693)" d="M0 0 4.084-2.282C1.917-6.5-.25-10.293-2.408-13.707L-6.185-10.889C-4.136-7.637-2.072-4.023 0 0" fill="#fe4900"/>
<path transform="matrix(1,0,0,-1,914.054,486.4864)" d="M0 0 3.777-2.818C1.862-5.848-.047-8.579-1.942-11.046L-5.416-7.833C-3.625-5.487-1.819-2.886 0 0" fill="#fe4900"/>
<path transform="matrix(1,0,0,-1,908.6376,494.31953)" d="M0 0 3.474-3.213C1.694-5.528-.075-7.61-1.827-9.484L-4.999-5.963C-3.349-4.182-1.682-2.203 0 0" fill="#fe4900"/>
<path transform="matrix(1,0,0,-1,903.6388,500.2823)" d="M0 0 3.172-3.522C1.418-5.397-.319-7.066-2.035-8.554L-4.895-4.777C-3.284-3.366-1.651-1.782 0 0" fill="#fe4900"/>
<path transform="matrix(1,0,0,-1,898.7437,505.05958)" d="M0 0 2.86-3.777C1.02-5.372-.796-6.761-2.581-7.976L-5.105-3.979C-3.431-2.829-1.728-1.513 0 0" fill="#fe4900"/>
<path transform="matrix(1,0,0,-1,893.6389,509.0387)" d="M0 0 2.523-3.997C.352-5.474-1.774-6.695-3.845-7.719L-5.97-3.519C-4.029-2.552-2.036-1.399 0 0" fill="#fe4900"/>
<path transform="matrix(1,0,0,-1,887.6687,512.5575)" d="M0 0 2.126-4.2C-1.463-5.974-4.884-7.158-8.079-8.062L-9.592-3.642C-6.577-2.789-3.366-1.676 0 0" fill="#fe4900"/>
<path transform="matrix(1,0,0,-1,878.0764,516.1996)" d="M0 0 1.513-4.42C-1.483-5.269-4.281-5.872-6.833-6.489-16.683-8.878-45.115-10.551-46.611-10.639L-55.496-6.496C-45.414-5.893-17.251-4.236-7.929-1.963-5.482-1.371-2.828-.8 0 0" fill="#fe4900"/>
</g>
</g>
</g>
</g>
</g>
<g>
<g clip-path="url(#clip_59)">
<path transform="matrix(1,0,0,-1,883.472,369.4178)" d="M0 0V4.657C38.709 4.657 46.494-17.771 46.904-18.952L42.484-20.486C42.218-19.647 35.651-.194 0 0" fill="#fe4900"/>
<g clip-path="url(#clip_60)">
<g>
<g clip-path="url(#clip_61)">
<path transform="matrix(1,0,0,-1,883.472,369.4178)" d="M0 0V4.657C.606 4.657 1.204 4.652 1.795 4.641L1.653-.023C1.109-.011 .558-.003 0 0" fill="#fe4900"/>
<path transform="matrix(1,0,0,-1,885.1246,369.44093)" d="M0 0 .142 4.664C2.707 4.617 5.131 4.47 7.422 4.236L6.693-.407C4.59-.193 2.361-.054 0 0" fill="#fe4900"/>
<path transform="matrix(1,0,0,-1,891.8174,369.84809)" d="M0 0 .729 4.643C3.03 4.408 5.196 4.085 7.235 3.688L5.966-.858C4.099-.505 2.113-.215 0 0" fill="#fe4900"/>
<path transform="matrix(1,0,0,-1,897.7832,370.70619)" d="M0 0 1.269 4.547C3.404 4.132 5.399 3.636 7.262 3.075L5.48-1.302C3.779-.808 1.955-.37 0 0" fill="#fe4900"/>
<path transform="matrix(1,0,0,-1,903.2629,372.00843)" d="M0 0 1.783 4.377C3.826 3.763 5.711 3.071 7.45 2.322L5.163-1.805C3.582-1.149 1.865-.541 0 0" fill="#fe4900"/>
<path transform="matrix(1,0,0,-1,908.4257,373.81318)" d="M0 0 2.287 4.126C4.47 3.186 6.423 2.156 8.168 1.078L5.331-2.661C3.755-1.723 1.985-.823 0 0" fill="#fe4900"/>
<path transform="matrix(1,0,0,-1,913.757,376.4746)" d="M0 0 2.836 3.74C12.11-1.99 15.503-9.074 16.383-11.266L12.015-12.923C11.299-11.104 8.38-4.991 0 0" fill="#fe4900"/>
<path transform="matrix(1,0,0,-1,925.7723,389.39723)" d="M0 0 4.367 1.657C4.497 1.335 4.572 1.118 4.603 1.028L.184-.506C.163-.442 .105-.267 0 0" fill="#fe4900"/>
</g>
</g>
</g>
</g>
</g>
<path transform="matrix(1,0,0,-1,527.7638,369.41773)" d="M0 0-.032 4.657H355.708V0Z" fill="#fe4900"/>
<path transform="matrix(1,0,0,-1,883.472,369.4178)" d="M0 0C35.651-.194 42.218-19.647 42.484-20.486 43.724-22.751 61.377-53.092 40.118-99.323 19.893-142.849 .138-145.49-13.325-148.745-22.647-151.018-50.81-152.675-60.891-153.278L2.543-238.586H-66.215L-158.402-111.011C-165.741-111.032-132.603-110.946-101.607-110.942-86.122-110.954-71.589-110.965-62.889-111.035-61.985-111.043-61.034-111.06-60.01-111.051-46.793-111.069-26.051-109.515-16.658-82.719-6.045-50.93-30.192-49.071-32.709-49.072L-78.487-49.074H-330.213C-333.035-49.071-353.814-49.687-354.652-72.082-354.429-96.768-308.735-95.139-294.004-96.654-224.913-103.8-215.75-108.702-203.175-114.533-190.642-120.357-173.09-128.875-175.339-164.459-177.773-201.113-200.026-219.632-201.125-220.509-214.018-237.47-249.38-238.601-257.177-238.602-258.131-238.602-258.627-238.563-258.614-238.588L-434.059-238.586C-401.007-211.326-379.527-188.778-380.096-189.829L-269.264-189.522C-267.568-189.513-234.637-189.972-231.376-170.833-228.812-147.338-262.483-145.546-264.193-145.435-266.309-145.153-312.132-139.371-328.722-136.867-383.94-128.404-398.183-107.505-398.797-106.607-438.655-51.109-396.015-17.309-383.711-8.744-371.326-.117-356.423-.004-355.708 0Z" fill="#fe4900"/>
<g>
<g clip-path="url(#clip_62)">
<path transform="matrix(1,0,0,-1,484.6747,476.02473)" d="M0 0-3.836-2.642C-46.275 56.386-.504 92.695 12.428 101.686 26.04 111.149 42.207 111.258 43.058 111.264L43.089 106.607C42.375 106.602 27.471 106.49 15.086 97.862 2.783 89.298-39.858 55.498 0 0" fill="#fe4900"/>
<g clip-path="url(#clip_63)">
<g>
<g clip-path="url(#clip_64)">
<path transform="matrix(1,0,0,-1,484.6747,476.02473)" d="M0 0-3.836-2.642C-25.257 27.152-24.205 51.159-16.245 68.786L-11.81 66.999C-19.218 50.497-20.118 28.013 0 0" fill="#fe4900"/>
<path transform="matrix(1,0,0,-1,472.8649,409.02558)" d="M0 0-4.435 1.787C-2.435 6.216 .001 10.243 2.627 13.857L6.588 11.3C4.134 7.916 1.862 4.147 0 0" fill="#fe4900"/>
<path transform="matrix(1,0,0,-1,479.4526,397.7259)" d="M0 0-3.961 2.558C-1.465 5.993 1.201 9.056 3.826 11.738L7.287 8.599C4.827 6.085 2.332 3.216 0 0" fill="#fe4900"/>
<path transform="matrix(1,0,0,-1,486.7399,389.127)" d="M0 0-3.462 3.139C-.55 6.115 2.311 8.622 4.832 10.65L7.791 7.052C5.416 5.142 2.729 2.789 0 0" fill="#fe4900"/>
<path transform="matrix(1,0,0,-1,494.5308,382.07533)" d="M0 0-2.959 3.598C-.808 5.329 1.096 6.711 2.572 7.737 2.995 8.031 3.42 8.316 3.848 8.592L6.392 4.693C6.002 4.441 5.615 4.181 5.23 3.913 3.826 2.936 2.027 1.63 0 0" fill="#fe4900"/>
<path transform="matrix(1,0,0,-1,500.9224,377.38233)" d="M0 0-2.544 3.899C-1.243 4.74 .076 5.5 1.397 6.187L3.594 2.086C2.387 1.46 1.185 .767 0 0" fill="#fe4900"/>
<path transform="matrix(1,0,0,-1,504.5162,375.29634)" d="M0 0-2.196 4.101C-.784 4.834 .632 5.484 2.033 6.06L3.864 1.788C2.583 1.262 1.29 .669 0 0" fill="#fe4900"/>
<path transform="matrix(1,0,0,-1,508.3803,373.5083)" d="M0 0-1.832 4.272C-.281 4.91 1.25 5.457 2.738 5.925L4.182 1.509C2.82 1.081 1.418 .582 0 0" fill="#fe4900"/>
<path transform="matrix(1,0,0,-1,512.5627,371.9995)" d="M0 0-1.444 4.417C.268 4.956 1.921 5.392 3.479 5.745L4.512 1.213C3.084 .891 1.568 .492 0 0" fill="#fe4900"/>
<path transform="matrix(1,0,0,-1,517.0743,370.7862)" d="M0 0-1.033 4.531C.832 4.954 2.558 5.256 4.081 5.474L4.689 .862C3.292 .663 1.709 .386 0 0" fill="#fe4900"/>
<path transform="matrix(1,0,0,-1,521.7633,369.92463)" d="M0 0-.607 4.612C1.319 4.886 2.92 5.024 4.064 5.093L4.278 .442C3.233 .378 1.766 .251 0 0" fill="#fe4900"/>
<path transform="matrix(1,0,0,-1,526.041,369.48298)" d="M0 0-.213 4.652C.864 4.717 1.535 4.721 1.691 4.722L1.723 .065C1.592 .064 .983 .06 0 0" fill="#fe4900"/>
</g>
</g>
</g>
</g>
</g>
</g>
</g>
<g>
<g clip-path="url(#clip_65)">
<g>
<g clip-path="url(#clip_66)">
</g>
</g>
<g>
<g clip-path="url(#clip_67)">
</g>
</g>
<g>
<g clip-path="url(#clip_68)">
</g>
</g>
<g>
<g clip-path="url(#clip_69)">
</g>
</g>
<g>
<g clip-path="url(#clip_70)">
</g>
</g>
<g>
<g clip-path="url(#clip_71)">
</g>
</g>
<g>
<g clip-path="url(#clip_72)">
</g>
</g>
<g>
<g clip-path="url(#clip_73)">
</g>
</g>
<g>
<g clip-path="url(#clip_74)">
</g>
</g>
<g>
<g clip-path="url(#clip_75)">
</g>
</g>
<g>
<g clip-path="url(#clip_76)">
</g>
</g>
<g>
<g clip-path="url(#clip_77)">
</g>
</g>
<g>
<g clip-path="url(#clip_78)">
</g>
</g>
</g>
</g>
</g>
<use data-text="S" xlink:href="#font_79_4" transform="matrix(56.5668,0,0,-56.5668,529.6104,703.25588)" fill="#fe4900"/>
<use data-text="i" xlink:href="#font_79_9" transform="matrix(53.8952,0,0,-53.8952,583.4048,703.25588)" fill="#fe4900"/>
<use data-text="m" xlink:href="#font_79_11" transform="matrix(53.8952,0,0,-53.8952,598.11819,703.25588)" fill="#fe4900"/>
<use data-text="R" xlink:href="#font_79_3" transform="matrix(53.8952,0,0,-53.8952,662.9002,703.25588)" fill="#fe4900"/>
<use data-text="a" xlink:href="#font_79_5" transform="matrix(53.8952,0,0,-53.8952,712.8072,703.25588)" fill="#fe4900"/>
<use data-text="c" xlink:href="#font_79_6" transform="matrix(53.8952,0,0,-53.8952,768.3193,703.25588)" fill="#fe4900"/>
<use data-text="i" xlink:href="#font_79_9" transform="matrix(53.8952,0,0,-53.8952,816.5555,703.25588)" fill="#fe4900"/>
<use data-text="n" xlink:href="#font_79_12" transform="matrix(53.8952,0,0,-53.8952,831.26889,703.25588)" fill="#fe4900"/>
<use data-text="g" xlink:href="#font_79_8" transform="matrix(53.8952,0,0,-53.8952,888.50558,703.25588)" fill="#fe4900"/>
<use data-text="A" xlink:href="#font_79_2" transform="matrix(53.8952,0,0,-53.8952,141.30246,703.25588)" fill="#019ad9"/>
<use data-text="l" xlink:href="#font_79_10" transform="matrix(53.8952,0,0,-53.8952,196.81452,703.25588)" fill="#019ad9"/>
<use data-text="g" xlink:href="#font_79_8" transform="matrix(53.8952,0,0,-53.8952,238.79888,703.25588)" fill="#019ad9"/>
<use data-text="a" xlink:href="#font_79_5" transform="matrix(53.8952,0,0,-53.8952,287.089,703.25588)" fill="#019ad9"/>
<use data-text="r" xlink:href="#font_79_13" transform="matrix(53.8952,0,0,-53.8952,342.60105,703.25588)" fill="#019ad9"/>
<use data-text="v" xlink:href="#font_79_14" transform="matrix(53.8952,0,0,-53.8952,390.4061,703.25588)" fill="#019ad9"/>
<use data-text="e" xlink:href="#font_79_7" transform="matrix(53.8952,0,0,-53.8952,445.91816,703.25588)" fill="#019ad9"/>
<use data-text=" " xlink:href="#font_79_1" transform="matrix(53.8952,0,0,-53.8952,491.02845,703.25588)" fill="#019ad9"/>
</g>
</g>
</svg>
